<?xml version="1.0" encoding="utf-8"?>
<!-- Generator: Adobe Illustrator 23.0.2, SVG Export Plug-In . SVG Version: 6.00 Build 0)  -->
<svg version="1.1" id="Layer_1" xmlns="http://www.w3.org/2000/svg" xmlns:xlink="http://www.w3.org/1999/xlink" x="0px" y="0px"
	 viewBox="0 0 346.47 200" style="enable-background:new 0 0 346.47 200;" xml:space="preserve">
<style type="text/css">
	.st0{fill:#ED3226;}
	.st1{fill:#FFFFFF;}
	.st2{fill:#EC1C24;}
</style>
<rect x="0" class="st0" width="346.47" height="200"/>
<g>
	<path class="st1" d="M28.52,70.6h-2.31v-3.39h2.31v-7.74h14.87v3.39H32.1v4.35h7.87v3.39H32.1v4.84h11.29v3.39H28.52V70.6z"/>
	<path class="st1" d="M49.41,59.47v13.36c0,1.73,0.37,2.34,1.33,2.9l1.73,0.99l-1.42,2.53c-3.3-1.57-4.84-2.71-4.84-5.83V59.47
		H49.41z"/>
	<path class="st1" d="M61.93,69.49c0-3.79,2.53-5.98,5.46-5.98c2.25,0,3.89,1.08,4.47,2.65h0.06c0.59-1.57,2.22-2.65,4.47-2.65
		c2.93,0,5.46,2.19,5.46,5.98v9.35h-3.21v-9.32c0-1.79-1.14-2.81-2.47-2.81c-1.54,0-2.68,0.93-2.68,3.24v8.88h-3.21v-8.88
		c0-2.31-1.14-3.24-2.68-3.24c-1.33,0-2.47,1.02-2.47,2.81v9.32h-3.21V69.49z"/>
	<path class="st1" d="M97.03,77.02h-0.06c-1.02,1.36-2.87,2.22-4.9,2.22c-4.9,0-7.74-4.01-7.74-7.87c0-3.67,3.05-7.87,7.9-7.87
		c2.22,0,3.92,0.96,4.75,2.22h0.06v-1.82h3.21v14.93h-3.21V77.02z M92.46,76.22c2.53,0,4.69-2.16,4.69-4.84
		c0-2.68-2.16-4.84-4.69-4.84c-2.59,0-4.75,2.16-4.75,4.84C87.71,74.06,89.87,76.22,92.46,76.22z"/>
	<path class="st1" d="M102.43,63.91h1.82v-3.95l3.21-0.89v4.84h2.56v3.02h-2.56v5.89c0,1.6,0.37,2.34,1.33,2.9l1.73,0.99l-1.42,2.53
		c-3.3-1.57-4.84-2.71-4.84-5.83v-6.48h-1.82V63.91z"/>
	<path class="st1" d="M126.91,75.6c-1.79,2.25-4.26,3.61-6.94,3.64c-5.21,0-8.24-3.92-8.24-7.87c0-3.95,3.02-7.87,8.24-7.87
		c3.12,0,7.74,2.56,7.74,8.39v0.59h-12.4c0.19,2.28,2.31,3.92,4.57,3.92c1.73,0,3.21-0.83,4.32-2.31L126.91,75.6z M123.95,69.83
		c-0.68-2.28-2.38-3.49-4.41-3.49c-2.04,0-3.7,1.26-4.23,3.49H123.95z"/>
	<path class="st1" d="M130.59,63.91h3.02v1.63h0.06c0.52-1.23,1.63-2.04,2.93-2.04c0.71,0,1.33,0.19,1.76,0.46l-1.14,3.18
		c-0.31-0.25-0.89-0.43-1.2-0.43c-1.17,0-2.22,0.89-2.22,2.25v9.87h-3.21V63.91z"/>
	<path class="st1" d="M141.43,59.07c0.99,0,1.79,0.8,1.79,1.79c0,0.99-0.8,1.79-1.79,1.79c-0.99,0-1.79-0.8-1.79-1.79
		C139.64,59.87,140.44,59.07,141.43,59.07z M139.83,63.91h3.21v14.93h-3.21V63.91z"/>
	<path class="st1" d="M158.34,77.02h-0.06c-1.02,1.36-2.87,2.22-4.9,2.22c-4.9,0-7.74-4.01-7.74-7.87c0-3.67,3.05-7.87,7.9-7.87
		c2.22,0,3.92,0.96,4.75,2.22h0.06v-1.82h3.21v14.93h-3.21V77.02z M153.77,76.22c2.53,0,4.69-2.16,4.69-4.84
		c0-2.68-2.16-4.84-4.69-4.84c-2.59,0-4.75,2.16-4.75,4.84C149.02,74.06,151.18,76.22,153.77,76.22z"/>
	<path class="st1" d="M168.37,59.47v13.36c0,1.73,0.37,2.34,1.33,2.9l1.73,0.99L170,79.24c-3.3-1.57-4.84-2.71-4.84-5.83V59.47
		H168.37z"/>
	<path class="st1" d="M192.48,77.02h-0.06c-1.02,1.36-2.87,2.22-4.9,2.22c-4.9,0-7.74-4.01-7.74-7.87c0-3.67,3.05-7.87,7.9-7.87
		c2.22,0,3.92,0.96,4.75,2.22h0.06v-6.26h3.21v19.37h-3.21V77.02z M187.92,76.22c2.53,0,4.69-2.16,4.69-4.84
		c0-2.68-2.16-4.84-4.69-4.84c-2.59,0-4.75,2.16-4.75,4.84C183.17,74.06,185.33,76.22,187.92,76.22z"/>
	<path class="st1" d="M213.55,75.6c-1.79,2.25-4.26,3.61-6.94,3.64c-5.21,0-8.24-3.92-8.24-7.87c0-3.95,3.02-7.87,8.24-7.87
		c3.12,0,7.74,2.56,7.74,8.39v0.59h-12.4c0.19,2.28,2.31,3.92,4.57,3.92c1.73,0,3.21-0.83,4.32-2.31L213.55,75.6z M210.59,69.83
		c-0.68-2.28-2.38-3.49-4.41-3.49c-2.04,0-3.7,1.26-4.23,3.49H210.59z"/>
	<path class="st1" d="M223.95,63.91h1.82v-3.95l3.21-0.89v4.84h2.56v3.02h-2.56v5.89c0,1.6,0.37,2.34,1.33,2.9l1.73,0.99l-1.42,2.53
		c-3.3-1.57-4.84-2.71-4.84-5.83v-6.48h-1.82V63.91z"/>
	<path class="st1" d="M234.12,63.91h3.02v1.63h0.06c0.52-1.23,1.63-2.04,2.93-2.04c0.71,0,1.33,0.19,1.76,0.46l-1.14,3.18
		c-0.31-0.25-0.89-0.43-1.2-0.43c-1.17,0-2.22,0.89-2.22,2.25v9.87h-3.21V63.91z"/>
	<path class="st1" d="M254.9,77.02h-0.06c-1.02,1.36-2.87,2.22-4.9,2.22c-4.9,0-7.74-4.01-7.74-7.87c0-3.67,3.05-7.87,7.9-7.87
		c2.22,0,3.92,0.96,4.75,2.22h0.06v-1.82h3.21v14.93h-3.21V77.02z M250.33,76.22c2.53,0,4.69-2.16,4.69-4.84
		c0-2.68-2.16-4.84-4.69-4.84c-2.59,0-4.75,2.16-4.75,4.84C245.58,74.06,247.74,76.22,250.33,76.22z"/>
	<path class="st1" d="M261.04,59.47h3.21v6.26h0.06c0.77-1.23,2.78-2.22,4.87-2.22c3.89,0,7.77,2.87,7.77,7.87
		c0,5-3.89,7.87-7.77,7.87c-2.1,0-4.1-0.99-4.87-2.22h-0.06v1.82h-3.21V59.47z M268.91,66.53c-2.68,0-4.66,2.07-4.66,4.84
		c0,2.78,1.97,4.84,4.66,4.84c2.68,0,4.66-2.07,4.66-4.84C273.56,68.6,271.59,66.53,268.91,66.53z"/>
	<path class="st1" d="M291,77.02h-0.06c-1.02,1.36-2.87,2.22-4.9,2.22c-4.9,0-7.74-4.01-7.74-7.87c0-3.67,3.05-7.87,7.9-7.87
		c2.22,0,3.92,0.96,4.75,2.22H291v-1.82h3.21v14.93H291V77.02z M286.43,76.22c2.53,0,4.69-2.16,4.69-4.84
		c0-2.68-2.16-4.84-4.69-4.84c-2.59,0-4.75,2.16-4.75,4.84C281.68,74.06,283.84,76.22,286.43,76.22z"/>
	<path class="st1" d="M297.82,63.91h3.21v15.08c0,2.62-1.33,4.41-4.72,5.95l-1.3-2.56c2.22-1.17,2.81-1.85,2.81-3.61V63.91z
		 M299.42,59.07c0.99,0,1.79,0.8,1.79,1.79c0,0.99-0.8,1.79-1.79,1.79c-0.99,0-1.79-0.8-1.79-1.79
		C297.63,59.87,298.44,59.07,299.42,59.07z"/>
	<path class="st1" d="M311.86,63.51c5.21,0,8.24,3.92,8.24,7.87c0,3.95-3.02,7.87-8.24,7.87c-5.21,0-8.24-3.92-8.24-7.87
		C303.62,67.43,306.64,63.51,311.86,63.51z M311.86,76.22c2.81,0,4.84-2.16,4.84-4.84c0-2.68-2.04-4.84-4.84-4.84
		c-2.81,0-4.84,2.16-4.84,4.84C307.01,74.06,309.05,76.22,311.86,76.22z"/>
	<path class="st1" d="M21.06,90.31v13.36c0,1.73,0.37,2.34,1.33,2.9l1.73,0.99l-1.42,2.53c-3.3-1.57-4.84-2.71-4.84-5.83V90.31
		H21.06z"/>
	<path class="st1" d="M33,94.35c5.21,0,8.24,3.92,8.24,7.87s-3.02,7.87-8.24,7.87c-5.21,0-8.24-3.92-8.24-7.87S27.78,94.35,33,94.35
		z M33,107.06c2.81,0,4.84-2.16,4.84-4.84c0-2.68-2.04-4.84-4.84-4.84c-2.81,0-4.84,2.16-4.84,4.84
		C28.16,104.9,30.19,107.06,33,107.06z"/>
	<path class="st1" d="M55.89,96.58h0.06c1.14-1.42,2.87-2.22,4.9-2.22c4.9,0,7.74,4.01,7.74,7.87c0,3.67-3.05,7.87-7.9,7.87
		c-2.22,0-3.92-0.96-4.75-2.22h-0.06v6.97h-3.21V94.76h3.21V96.58z M60.45,97.38c-2.53,0-4.69,2.16-4.69,4.84
		c0,2.68,2.16,4.84,4.69,4.84c2.59,0,4.75-2.16,4.75-4.84C65.2,99.54,63.04,97.38,60.45,97.38z"/>
	<path class="st1" d="M78.53,94.35c5.21,0,8.24,3.92,8.24,7.87s-3.02,7.87-8.24,7.87c-5.21,0-8.24-3.92-8.24-7.87
		S73.32,94.35,78.53,94.35z M78.53,107.06c2.81,0,4.84-2.16,4.84-4.84c0-2.68-2.04-4.84-4.84-4.84c-2.81,0-4.84,2.16-4.84,4.84
		C73.69,104.9,75.73,107.06,78.53,107.06z"/>
	<path class="st1" d="M89.15,94.76h3.21v1.88h0.06c0.89-1.39,2.53-2.28,4.57-2.28c3.15,0,5.8,2.62,5.8,6.32v9.01h-3.21v-8.3
		c0-2.71-1.42-3.83-3.55-3.83c-2.07,0-3.67,1.33-3.67,3.76v8.36h-3.21V94.76z"/>
	<path class="st1" d="M120.48,106.45c-1.79,2.25-4.26,3.61-6.94,3.64c-5.21,0-8.24-3.92-8.24-7.87s3.02-7.87,8.24-7.87
		c3.12,0,7.74,2.56,7.74,8.39v0.59h-12.4c0.19,2.28,2.31,3.92,4.57,3.92c1.73,0,3.21-0.83,4.32-2.31L120.48,106.45z M117.52,100.68
		c-0.68-2.28-2.38-3.49-4.41-3.49s-3.7,1.26-4.23,3.49H117.52z"/>
	<path class="st1" d="M125.3,105.24c1.14,1.23,3.02,2.19,4.69,2.19c1.85,0,2.96-1.05,2.96-1.88c0-0.99-0.77-1.51-1.94-1.73
		l-1.82-0.34c-4.2-0.77-5.37-2.13-5.37-4.26c0-2.53,2.13-4.87,5.86-4.87c2.07,0,3.89,0.62,5.92,2.07l-1.82,2.25
		c-1.57-1.33-2.96-1.67-4.01-1.67c-1.39,0-2.75,0.68-2.75,1.88c0,0.89,0.71,1.36,1.94,1.57l3.24,0.62c2.65,0.49,3.95,1.76,3.95,3.98
		c0,2.19-1.79,5.03-6.32,5.03c-2.53,0-4.69-0.89-6.72-2.62L125.3,105.24z"/>
	<path class="st1" d="M145.94,94.76h1.82v-3.95l3.21-0.89v4.84h2.56v3.02h-2.56v5.89c0,1.6,0.37,2.34,1.33,2.9l1.73,0.99l-1.42,2.53
		c-3.3-1.57-4.84-2.71-4.84-5.83v-6.48h-1.82V94.76z"/>
	<path class="st1" d="M156.47,94.76h3.21v8.36c0,2.19,1.6,3.76,3.61,3.76s3.61-1.57,3.61-3.76v-8.36h3.21v8.64
		c0,4.2-3.27,6.69-6.82,6.69c-3.55,0-6.82-2.5-6.82-6.69V94.76z M160.89,90.9l6.05-1.54v2.22l-6.05,1.54V90.9z"/>
	<path class="st1" d="M174.59,106.51h3.21v3.58l-3.21,2.16V106.51z"/>
	<path class="st1" d="M194.26,90.31v13.36c0,1.73,0.37,2.34,1.33,2.9l1.73,0.99l-1.42,2.53c-3.3-1.57-4.84-2.71-4.84-5.83V90.31
		H194.26z"/>
	<path class="st1" d="M210.67,107.87h-0.06c-1.02,1.36-2.87,2.22-4.9,2.22c-4.9,0-7.74-4.01-7.74-7.87c0-3.67,3.05-7.87,7.9-7.87
		c2.22,0,3.92,0.96,4.75,2.22h0.06v-1.82h3.21v14.93h-3.21V107.87z M206.11,107.06c2.53,0,4.69-2.16,4.69-4.84
		c0-2.68-2.16-4.84-4.69-4.84c-2.59,0-4.75,2.16-4.75,4.84C201.36,104.9,203.51,107.06,206.11,107.06z"/>
	<path class="st1" d="M218.57,105.24c1.14,1.23,3.02,2.19,4.69,2.19c1.85,0,2.96-1.05,2.96-1.88c0-0.99-0.77-1.51-1.94-1.73
		l-1.82-0.34c-4.2-0.77-5.37-2.13-5.37-4.26c0-2.53,2.13-4.87,5.86-4.87c2.07,0,3.89,0.62,5.92,2.07l-1.82,2.25
		c-1.57-1.33-2.96-1.67-4.01-1.67c-1.39,0-2.75,0.68-2.75,1.88c0,0.89,0.71,1.36,1.94,1.57l3.24,0.62c2.65,0.49,3.95,1.76,3.95,3.98
		c0,2.19-1.79,5.03-6.32,5.03c-2.53,0-4.69-0.89-6.72-2.62L218.57,105.24z"/>
	<path class="st1" d="M253.59,108.02c0,4.94-3.76,7.77-7.8,7.77c-2.07,0-4.6-0.86-6.29-2.96l2.62-1.91
		c0.62,0.86,2.01,1.85,3.52,1.85c3.27,0,4.94-2.13,4.94-4.41v-0.99c-1.36,1.51-2.9,2.31-5.09,2.31c-3.86,0-7.25-2.9-7.25-7.62
		c0-4.9,3.64-7.71,7.62-7.71c2.01,0,3.61,0.77,4.66,2.16h0.06v-1.76h3.02V108.02z M246.12,106.66c2.59,0,4.44-2.07,4.44-4.63
		c0-2.59-2.01-4.66-4.44-4.66c-2.5,0-4.5,2.07-4.5,4.63C241.62,104.6,243.41,106.66,246.12,106.66z"/>
	<path class="st1" d="M268.68,107.87h-0.06c-1.02,1.36-2.87,2.22-4.9,2.22c-4.9,0-7.74-4.01-7.74-7.87c0-3.67,3.05-7.87,7.9-7.87
		c2.22,0,3.92,0.96,4.75,2.22h0.06v-1.82h3.21v14.93h-3.21V107.87z M264.11,107.06c2.53,0,4.69-2.16,4.69-4.84
		c0-2.68-2.16-4.84-4.69-4.84c-2.59,0-4.75,2.16-4.75,4.84C259.36,104.9,261.52,107.06,264.11,107.06z"/>
	<path class="st1" d="M275.19,94.76h3.21v1.88h0.06c0.89-1.39,2.53-2.28,4.57-2.28c3.15,0,5.8,2.62,5.8,6.32v9.01h-3.21v-8.3
		c0-2.71-1.42-3.83-3.55-3.83c-2.07,0-3.67,1.33-3.67,3.76v8.36h-3.21V94.76z"/>
	<path class="st1" d="M303.8,107.87h-0.06c-1.02,1.36-2.87,2.22-4.9,2.22c-4.9,0-7.74-4.01-7.74-7.87c0-3.67,3.05-7.87,7.9-7.87
		c2.22,0,3.92,0.96,4.75,2.22h0.06v-1.82h3.21v14.93h-3.21V107.87z M299.24,107.06c2.53,0,4.69-2.16,4.69-4.84
		c0-2.68-2.16-4.84-4.69-4.84c-2.59,0-4.75,2.16-4.75,4.84C294.49,104.9,296.64,107.06,299.24,107.06z"/>
	<path class="st1" d="M311.7,105.24c1.14,1.23,3.02,2.19,4.69,2.19c1.85,0,2.96-1.05,2.96-1.88c0-0.99-0.77-1.51-1.94-1.73
		l-1.82-0.34c-4.2-0.77-5.37-2.13-5.37-4.26c0-2.53,2.13-4.87,5.86-4.87c2.07,0,3.89,0.62,5.92,2.07l-1.82,2.25
		c-1.57-1.33-2.96-1.67-4.01-1.67c-1.39,0-2.75,0.68-2.75,1.88c0,0.89,0.71,1.36,1.94,1.57l3.24,0.62c2.65,0.49,3.95,1.76,3.95,3.98
		c0,2.19-1.79,5.03-6.32,5.03c-2.53,0-4.69-0.89-6.72-2.62L311.7,105.24z"/>
	<path class="st1" d="M326.73,94.35c1.05,0,1.88,0.83,1.88,1.88c0,1.05-0.83,1.88-1.88,1.88c-1.05,0-1.88-0.83-1.88-1.88
		C324.85,95.19,325.69,94.35,326.73,94.35z M326.73,106.32c1.05,0,1.88,0.83,1.88,1.88c0,1.05-0.83,1.88-1.88,1.88
		c-1.05,0-1.88-0.83-1.88-1.88C324.85,107.16,325.69,106.32,326.73,106.32z"/>
	<path class="st1" d="M111.36,125.6h3.21v1.88h0.06c0.89-1.39,2.53-2.28,4.57-2.28c3.15,0,5.8,2.62,5.8,6.32v9.01h-3.21v-8.3
		c0-2.71-1.42-3.83-3.55-3.83c-2.07,0-3.67,1.33-3.67,3.76v8.36h-3.21V125.6z"/>
	<path class="st1" d="M136.11,125.2c5.21,0,8.24,3.92,8.24,7.87c0,3.95-3.02,7.87-8.24,7.87c-5.21,0-8.24-3.92-8.24-7.87
		C127.87,129.12,130.9,125.2,136.11,125.2z M136.11,137.91c2.81,0,4.84-2.16,4.84-4.84c0-2.68-2.04-4.84-4.84-4.84
		c-2.81,0-4.84,2.16-4.84,4.84C131.27,135.75,133.3,137.91,136.11,137.91z"/>
	<path class="st1" d="M148.12,136.09c1.14,1.23,3.02,2.19,4.69,2.19c1.85,0,2.96-1.05,2.96-1.88c0-0.99-0.77-1.51-1.94-1.73
		l-1.82-0.34c-4.2-0.77-5.37-2.13-5.37-4.26c0-2.53,2.13-4.87,5.86-4.87c2.07,0,3.89,0.62,5.92,2.07l-1.82,2.25
		c-1.57-1.33-2.96-1.67-4.01-1.67c-1.39,0-2.75,0.68-2.75,1.88c0,0.89,0.71,1.36,1.94,1.57l3.24,0.62c2.65,0.49,3.95,1.76,3.95,3.98
		c0,2.19-1.79,5.03-6.32,5.03c-2.53,0-4.69-0.89-6.72-2.62L148.12,136.09z"/>
	<path class="st1" d="M168.79,125.2c5.21,0,8.24,3.92,8.24,7.87c0,3.95-3.02,7.87-8.24,7.87c-5.21,0-8.24-3.92-8.24-7.87
		C160.56,129.12,163.58,125.2,168.79,125.2z M168.79,137.91c2.81,0,4.84-2.16,4.84-4.84c0-2.68-2.04-4.84-4.84-4.84
		c-2.81,0-4.84,2.16-4.84,4.84C163.95,135.75,165.99,137.91,168.79,137.91z"/>
	<path class="st1" d="M178.67,125.6h1.82v-3.95l3.21-0.89v4.84h2.56v3.02h-2.56v5.89c0,1.6,0.37,2.34,1.33,2.9l1.73,0.99l-1.42,2.53
		c-3.3-1.57-4.84-2.71-4.84-5.83v-6.48h-1.82V125.6z"/>
	<path class="st1" d="M189.21,125.6h3.02v1.63h0.06c0.52-1.23,1.63-2.04,2.93-2.04c0.71,0,1.33,0.19,1.76,0.46l-1.14,3.18
		c-0.31-0.25-0.89-0.43-1.2-0.43c-1.17,0-2.22,0.89-2.22,2.25v9.87h-3.21V125.6z"/>
	<path class="st1" d="M205.52,125.2c5.21,0,8.24,3.92,8.24,7.87c0,3.95-3.02,7.87-8.24,7.87c-5.21,0-8.24-3.92-8.24-7.87
		C197.28,129.12,200.3,125.2,205.52,125.2z M205.52,137.91c2.81,0,4.84-2.16,4.84-4.84c0-2.68-2.04-4.84-4.84-4.84
		c-2.81,0-4.84,2.16-4.84,4.84C200.67,135.75,202.71,137.91,205.52,137.91z"/>
	<path class="st1" d="M217.52,136.09c1.14,1.23,3.02,2.19,4.69,2.19c1.85,0,2.96-1.05,2.96-1.88c0-0.99-0.77-1.51-1.94-1.73
		l-1.82-0.34c-4.2-0.77-5.37-2.13-5.37-4.26c0-2.53,2.13-4.87,5.86-4.87c2.07,0,3.89,0.62,5.92,2.07l-1.82,2.25
		c-1.57-1.33-2.96-1.67-4.01-1.67c-1.39,0-2.75,0.68-2.75,1.88c0,0.89,0.71,1.36,1.94,1.57l3.24,0.62c2.65,0.49,3.95,1.76,3.95,3.98
		c0,2.19-1.79,5.03-6.32,5.03c-2.53,0-4.69-0.89-6.72-2.62L217.52,136.09z"/>
	<path class="st1" d="M233.17,137.17c1.05,0,1.88,0.83,1.88,1.88c0,1.05-0.83,1.88-1.88,1.88c-1.05,0-1.88-0.83-1.88-1.88
		C231.29,138,232.12,137.17,233.17,137.17z"/>
</g>
</svg>
