<?xml version="1.0" encoding="utf-8"?>
<!-- Generator: Adobe Illustrator 23.0.2, SVG Export Plug-In . SVG Version: 6.00 Build 0)  -->
<svg version="1.1" id="Layer_1" xmlns="http://www.w3.org/2000/svg" xmlns:xlink="http://www.w3.org/1999/xlink" x="0px" y="0px"
	 viewBox="0 0 346.47 200" style="enable-background:new 0 0 346.47 200;" xml:space="preserve">
<style type="text/css">
	.st0{fill:#ED3226;}
	.st1{fill:#FFFFFF;}
	.st2{fill:#EC1C24;}
</style>
<rect class="st0" width="346.47" height="200"/>
<g>
	<path class="st1" d="M112.59,72.41c-2.16,2.71-5.18,3.98-8.27,3.98c-5.8,0-10.4-4.41-10.4-10.09s4.6-10.09,10.4-10.09
		c3.08,0,6.11,1.26,8.27,3.98l-2.96,2.22c-1.23-1.79-3.12-2.81-5.31-2.81c-3.49,0-6.63,2.93-6.63,6.69s3.15,6.69,6.63,6.69
		c2.19,0,4.13-1.02,5.37-2.68L112.59,72.41z"/>
	<path class="st1" d="M122.95,60.65c5.21,0,8.24,3.92,8.24,7.87s-3.02,7.87-8.24,7.87c-5.21,0-8.24-3.92-8.24-7.87
		S117.74,60.65,122.95,60.65z M122.95,73.36c2.81,0,4.84-2.16,4.84-4.84c0-2.68-2.04-4.84-4.84-4.84c-2.81,0-4.84,2.16-4.84,4.84
		C118.11,71.2,120.15,73.36,122.95,73.36z"/>
	<path class="st1" d="M141.59,60.65c5.21,0,8.24,3.92,8.24,7.87s-3.02,7.87-8.24,7.87c-5.21,0-8.24-3.92-8.24-7.87
		S136.37,60.65,141.59,60.65z M141.59,73.36c2.81,0,4.84-2.16,4.84-4.84c0-2.68-2.04-4.84-4.84-4.84c-2.81,0-4.84,2.16-4.84,4.84
		C136.74,71.2,138.78,73.36,141.59,73.36z"/>
	<path class="st1" d="M156.36,56.61v13.36c0,1.73,0.37,2.34,1.33,2.9l1.73,0.99L158,76.39c-3.3-1.57-4.84-2.71-4.84-5.83V56.61
		H156.36z"/>
	<path class="st1" d="M173.2,62.88h0.06c1.14-1.42,2.87-2.22,4.9-2.22c4.91,0,7.74,4.01,7.74,7.87c0,3.67-3.05,7.87-7.9,7.87
		c-2.22,0-3.92-0.96-4.75-2.22h-0.06v6.97H170V61.06h3.21V62.88z M177.77,63.68c-2.53,0-4.69,2.16-4.69,4.84
		c0,2.68,2.16,4.84,4.69,4.84c2.59,0,4.75-2.16,4.75-4.84C182.52,65.84,180.36,63.68,177.77,63.68z"/>
	<path class="st1" d="M203.5,72.75c-1.79,2.25-4.26,3.61-6.94,3.64c-5.21,0-8.24-3.92-8.24-7.87s3.02-7.87,8.24-7.87
		c3.12,0,7.74,2.56,7.74,8.39v0.59h-12.4c0.19,2.28,2.31,3.92,4.57,3.92c1.73,0,3.21-0.83,4.32-2.31L203.5,72.75z M200.54,66.98
		c-0.68-2.28-2.37-3.49-4.41-3.49c-2.04,0-3.7,1.26-4.23,3.49H200.54z"/>
	<path class="st1" d="M207.2,61.06h3.02v1.63h0.06c0.52-1.23,1.63-2.04,2.93-2.04c0.71,0,1.33,0.19,1.76,0.46l-1.14,3.18
		c-0.31-0.25-0.89-0.43-1.2-0.43c-1.17,0-2.22,0.89-2.22,2.25v9.87h-3.21V61.06z"/>
	<path class="st1" d="M217.72,69.75h-2.1v-3.02h2.1V56.61h3.21v10.12h1.63l3.92-5.68h3.89l-5.06,7.03l5.31,7.9h-3.79l-3.95-6.23
		h-1.94v6.23h-3.21V69.75z"/>
	<path class="st1" d="M233.73,71.54c1.14,1.23,3.02,2.19,4.69,2.19c1.85,0,2.96-1.05,2.96-1.88c0-0.99-0.77-1.51-1.94-1.73
		l-1.82-0.34c-4.2-0.77-5.37-2.13-5.37-4.26c0-2.53,2.13-4.87,5.86-4.87c2.07,0,3.89,0.62,5.92,2.07l-1.82,2.25
		c-1.57-1.33-2.96-1.67-4.01-1.67c-1.39,0-2.75,0.68-2.75,1.88c0,0.89,0.71,1.36,1.94,1.57l3.24,0.62c2.65,0.49,3.95,1.76,3.95,3.98
		c0,2.19-1.79,5.03-6.32,5.03c-2.53,0-4.69-0.89-6.72-2.62L233.73,71.54z"/>
	<path class="st1" d="M249.64,60.65c1.05,0,1.88,0.83,1.88,1.88c0,1.05-0.83,1.88-1.88,1.88c-1.05,0-1.88-0.83-1.88-1.88
		C247.76,61.49,248.6,60.65,249.64,60.65z M249.64,72.62c1.05,0,1.88,0.83,1.88,1.88c0,1.05-0.83,1.88-1.88,1.88
		c-1.05,0-1.88-0.83-1.88-1.88C247.76,73.46,248.6,72.62,249.64,72.62z"/>
	<path class="st1" d="M72.06,98.01h-2.1v-3.02h2.1v-2.53c0-2.78,1.7-5.4,5.55-5.4c0.77,0,1.79,0.12,2.47,0.4l-1.33,2.9
		c-0.43-0.19-0.83-0.28-1.42-0.28c-1.3,0-2.07,1.08-2.07,2.19v2.71h3.21v3.02h-3.21v13.97h-3.21V98.01z"/>
	<path class="st1" d="M81.25,91.9h3.02v1.63h0.06c0.52-1.23,1.63-2.04,2.93-2.04c0.71,0,1.33,0.19,1.76,0.46l-1.14,3.18
		c-0.31-0.25-0.89-0.43-1.2-0.43c-1.17,0-2.22,0.89-2.22,2.25v9.87h-3.21V91.9z"/>
	<path class="st1" d="M91.28,91.9h3.21v8.36c0,2.19,1.6,3.76,3.61,3.76c2.01,0,3.61-1.57,3.61-3.76V91.9h3.21v8.64
		c0,4.2-3.27,6.69-6.82,6.69c-3.55,0-6.82-2.5-6.82-6.69V91.9z"/>
	<path class="st1" d="M107.93,91.9h1.82v-3.95l3.21-0.89v4.84h2.56v3.02h-2.56v5.89c0,1.6,0.37,2.34,1.33,2.9l1.73,0.99l-1.42,2.53
		c-3.3-1.57-4.84-2.71-4.84-5.83v-6.48h-1.82V91.9z"/>
	<path class="st1" d="M118.73,91.9h3.02v1.63h0.06c0.52-1.23,1.63-2.04,2.93-2.04c0.71,0,1.33,0.19,1.76,0.46l-1.14,3.18
		c-0.31-0.25-0.89-0.43-1.2-0.43c-1.17,0-2.22,0.89-2.22,2.25v9.87h-3.21V91.9z"/>
	<path class="st1" d="M140.35,105.01h-0.06c-1.02,1.36-2.87,2.22-4.9,2.22c-4.9,0-7.74-4.01-7.74-7.87c0-3.67,3.05-7.87,7.9-7.87
		c2.22,0,3.92,0.96,4.75,2.22h0.06V91.9h3.21v14.93h-3.21V105.01z M135.79,104.21c2.53,0,4.69-2.16,4.69-4.84
		c0-2.68-2.16-4.84-4.69-4.84c-2.59,0-4.75,2.16-4.75,4.84C131.04,102.05,133.2,104.21,135.79,104.21z"/>
	<path class="st1" d="M157.35,98.01h-2.1v-3.02h2.1v-2.53c0-2.78,1.7-5.4,5.55-5.4c0.77,0,1.79,0.12,2.47,0.4l-1.33,2.9
		c-0.43-0.19-0.83-0.28-1.42-0.28c-1.3,0-2.07,1.08-2.07,2.19v2.71h3.21v3.02h-3.21v13.97h-3.21V98.01z"/>
	<path class="st1" d="M166.54,91.9h3.02v1.63h0.06c0.52-1.23,1.63-2.04,2.93-2.04c0.71,0,1.33,0.19,1.76,0.46l-1.14,3.18
		c-0.31-0.25-0.89-0.43-1.2-0.43c-1.17,0-2.22,0.89-2.22,2.25v9.87h-3.21V91.9z"/>
	<path class="st1" d="M190.32,103.59c-1.79,2.25-4.26,3.61-6.94,3.64c-5.21,0-8.24-3.92-8.24-7.87s3.02-7.87,8.24-7.87
		c3.12,0,7.74,2.56,7.74,8.39v0.59h-12.4c0.19,2.28,2.31,3.92,4.57,3.92c1.73,0,3.21-0.83,4.32-2.31L190.32,103.59z M187.36,97.83
		c-0.68-2.28-2.37-3.49-4.41-3.49c-2.04,0-3.7,1.26-4.23,3.49H187.36z"/>
	<path class="st1" d="M195.41,102.39c1.14,1.23,3.02,2.19,4.69,2.19c1.85,0,2.96-1.05,2.96-1.88c0-0.99-0.77-1.51-1.94-1.73
		l-1.82-0.34c-4.2-0.77-5.37-2.13-5.37-4.26c0-2.53,2.13-4.87,5.86-4.87c2.07,0,3.89,0.62,5.92,2.07l-1.82,2.25
		c-1.57-1.33-2.96-1.67-4.01-1.67c-1.39,0-2.75,0.68-2.75,1.88c0,0.89,0.71,1.36,1.94,1.57l3.24,0.62c2.65,0.49,3.95,1.76,3.95,3.98
		c0,2.19-1.79,5.03-6.32,5.03c-2.53,0-4.69-0.89-6.72-2.62L195.41,102.39z"/>
	<path class="st1" d="M220.25,96.78c-0.86-1.33-2.07-2.25-3.89-2.25c-2.81,0-4.84,2.16-4.84,4.84c0,2.68,2.04,4.84,4.84,4.84
		c1.76,0,3.02-0.89,3.89-2.25l2.81,1.67c-1.33,2.1-3.86,3.61-6.69,3.61c-5.21,0-8.24-3.92-8.24-7.87s3.02-7.87,8.24-7.87
		c3.18,0,5.24,1.51,6.69,3.61L220.25,96.78z"/>
	<path class="st1" d="M237.09,105.01h-0.06c-1.02,1.36-2.87,2.22-4.9,2.22c-4.9,0-7.74-4.01-7.74-7.87c0-3.67,3.05-7.87,7.9-7.87
		c2.22,0,3.92,0.96,4.75,2.22h0.06V91.9h3.21v14.93h-3.21V105.01z M232.52,104.21c2.53,0,4.69-2.16,4.69-4.84
		c0-2.68-2.16-4.84-4.69-4.84c-2.59,0-4.75,2.16-4.75,4.84C227.77,102.05,229.93,104.21,232.52,104.21z"/>
	<path class="st1" d="M253.25,91.9h3.21v8.76c0,2.5,1.54,3.55,3.52,3.55c2.5,0,3.7-1.54,3.7-3.86V91.9h3.21v14.47
		c0,4.57-4.04,6.57-6.82,6.57c-3.36,0-4.87-1.26-6.32-2.93l2.71-1.67c1.02,0.99,2.04,1.57,3.42,1.57c2.13,0,3.98-1.3,3.98-3.92v-0.8
		h-0.06c-1.26,1.42-2.44,2.04-4.5,2.04c-3.33,0-6.05-2.5-6.05-6.69V91.9z"/>
	<path class="st1" d="M26.64,118.31h3.21v6.26h0.06c0.77-1.23,2.78-2.22,4.87-2.22c3.89,0,7.77,2.87,7.77,7.87
		c0,5-3.89,7.87-7.77,7.87c-2.1,0-4.1-0.99-4.87-2.22h-0.06v1.82h-3.21V118.31z M34.5,125.37c-2.68,0-4.66,2.07-4.66,4.84
		c0,2.78,1.97,4.84,4.66,4.84c2.68,0,4.66-2.07,4.66-4.84C39.16,127.44,37.19,125.37,34.5,125.37z"/>
	<path class="st1" d="M60.14,134.44c-1.79,2.25-4.26,3.61-6.94,3.64c-5.21,0-8.24-3.92-8.24-7.87c0-3.95,3.02-7.87,8.24-7.87
		c3.12,0,7.74,2.56,7.74,8.39v0.59h-12.4c0.19,2.28,2.31,3.92,4.57,3.92c1.73,0,3.21-0.83,4.32-2.31L60.14,134.44z M57.17,128.67
		c-0.68-2.28-2.37-3.49-4.41-3.49c-2.04,0-3.7,1.26-4.23,3.49H57.17z"/>
	<path class="st1" d="M63.22,118.31h3.21v6.26h0.06c0.77-1.23,2.78-2.22,4.87-2.22c3.89,0,7.77,2.87,7.77,7.87
		c0,5-3.89,7.87-7.77,7.87c-2.1,0-4.1-0.99-4.87-2.22h-0.06v1.82h-3.21V118.31z M71.09,125.37c-2.68,0-4.66,2.07-4.66,4.84
		c0,2.78,1.97,4.84,4.66,4.84c2.68,0,4.66-2.07,4.66-4.84C75.74,127.44,73.77,125.37,71.09,125.37z"/>
	<path class="st1" d="M83.46,117.91c0.99,0,1.79,0.8,1.79,1.79c0,0.99-0.8,1.79-1.79,1.79c-0.99,0-1.79-0.8-1.79-1.79
		C81.67,118.71,82.47,117.91,83.46,117.91z M81.85,122.75h3.21v14.93h-3.21V122.75z"/>
	<path class="st1" d="M100.48,135.86h-0.06c-1.02,1.36-2.87,2.22-4.91,2.22c-4.9,0-7.74-4.01-7.74-7.87c0-3.67,3.05-7.87,7.9-7.87
		c2.22,0,3.92,0.96,4.75,2.22h0.06v-6.26h3.21v19.37h-3.21V135.86z M95.92,135.06c2.53,0,4.69-2.16,4.69-4.84
		c0-2.68-2.16-4.84-4.69-4.84c-2.59,0-4.75,2.16-4.75,4.84C91.17,132.9,93.33,135.06,95.92,135.06z"/>
	<path class="st1" d="M119.05,135.86h-0.06c-1.02,1.36-2.87,2.22-4.9,2.22c-4.9,0-7.74-4.01-7.74-7.87c0-3.67,3.05-7.87,7.9-7.87
		c2.22,0,3.92,0.96,4.75,2.22h0.06v-1.82h3.21v14.93h-3.21V135.86z M114.49,135.06c2.53,0,4.69-2.16,4.69-4.84
		c0-2.68-2.16-4.84-4.69-4.84c-2.59,0-4.75,2.16-4.75,4.84C109.74,132.9,111.9,135.06,114.49,135.06z"/>
	<path class="st1" d="M127.41,133.24c1.14,1.23,3.02,2.19,4.69,2.19c1.85,0,2.96-1.05,2.96-1.88c0-0.99-0.77-1.51-1.94-1.73
		l-1.82-0.34c-4.2-0.77-5.37-2.13-5.37-4.26c0-2.53,2.13-4.87,5.86-4.87c2.07,0,3.89,0.62,5.92,2.07l-1.82,2.25
		c-1.57-1.33-2.96-1.67-4.01-1.67c-1.39,0-2.75,0.68-2.75,1.88c0,0.89,0.71,1.36,1.94,1.57l3.24,0.62c2.65,0.49,3.95,1.76,3.95,3.98
		c0,2.19-1.79,5.03-6.32,5.03c-2.53,0-4.69-0.89-6.72-2.62L127.41,133.24z"/>
	<path class="st1" d="M164.12,134.44c-1.79,2.25-4.26,3.61-6.94,3.64c-5.21,0-8.24-3.92-8.24-7.87c0-3.95,3.02-7.87,8.24-7.87
		c3.12,0,7.74,2.56,7.74,8.39v0.59h-12.4c0.19,2.28,2.31,3.92,4.57,3.92c1.73,0,3.21-0.83,4.32-2.31L164.12,134.44z M161.16,128.67
		c-0.68-2.28-2.38-3.49-4.41-3.49c-2.04,0-3.7,1.26-4.23,3.49H161.16z"/>
	<path class="st1" d="M167.21,122.75h3.21v1.88h0.06c0.89-1.39,2.53-2.28,4.57-2.28c3.15,0,5.8,2.62,5.8,6.32v9.01h-3.21v-8.3
		c0-2.71-1.42-3.83-3.55-3.83c-2.07,0-3.67,1.33-3.67,3.76v8.36h-3.21V122.75z"/>
	<path class="st1" d="M198.3,134.44c-1.79,2.25-4.26,3.61-6.94,3.64c-5.21,0-8.24-3.92-8.24-7.87c0-3.95,3.02-7.87,8.24-7.87
		c3.12,0,7.74,2.56,7.74,8.39v0.59h-12.4c0.19,2.28,2.31,3.92,4.57,3.92c1.73,0,3.21-0.83,4.32-2.31L198.3,134.44z M195.34,128.67
		c-0.68-2.28-2.37-3.49-4.41-3.49c-2.04,0-3.7,1.26-4.23,3.49H195.34z"/>
	<path class="st1" d="M202,122.75h3.02v1.63h0.06c0.52-1.23,1.63-2.04,2.93-2.04c0.71,0,1.33,0.19,1.76,0.46l-1.14,3.18
		c-0.31-0.25-0.89-0.43-1.2-0.43c-1.17,0-2.22,0.89-2.22,2.25v9.87H202V122.75z"/>
	<path class="st1" d="M225.66,136.01c0,4.94-3.76,7.77-7.8,7.77c-2.07,0-4.6-0.86-6.29-2.96l2.62-1.91c0.62,0.86,2,1.85,3.52,1.85
		c3.27,0,4.94-2.13,4.94-4.41v-0.99c-1.36,1.51-2.9,2.31-5.09,2.31c-3.86,0-7.25-2.9-7.25-7.62c0-4.9,3.64-7.71,7.62-7.71
		c2,0,3.61,0.77,4.66,2.16h0.06v-1.76h3.02V136.01z M218.2,134.66c2.59,0,4.44-2.07,4.44-4.63c0-2.59-2-4.66-4.44-4.66
		c-2.5,0-4.5,2.07-4.5,4.63C213.69,132.59,215.48,134.66,218.2,134.66z"/>
	<path class="st1" d="M244.35,134.44c-1.79,2.25-4.26,3.61-6.94,3.64c-5.21,0-8.24-3.92-8.24-7.87c0-3.95,3.02-7.87,8.24-7.87
		c3.12,0,7.74,2.56,7.74,8.39v0.59h-12.4c0.19,2.28,2.31,3.92,4.57,3.92c1.73,0,3.21-0.83,4.32-2.31L244.35,134.44z M241.39,128.67
		c-0.68-2.28-2.38-3.49-4.41-3.49c-2.04,0-3.7,1.26-4.23,3.49H241.39z M234.76,118.89l6.05-1.54v2.22l-6.05,1.54V118.89z"/>
	<path class="st1" d="M246.7,122.75h1.82v-3.95l3.21-0.89v4.84h2.56v3.02h-2.56v5.89c0,1.6,0.37,2.34,1.33,2.9l1.73,0.99l-1.42,2.53
		c-3.3-1.57-4.84-2.71-4.84-5.83v-6.48h-1.82V122.75z"/>
	<path class="st1" d="M259.78,117.91c0.99,0,1.79,0.8,1.79,1.79c0,0.99-0.8,1.79-1.79,1.79s-1.79-0.8-1.79-1.79
		C257.99,118.71,258.79,117.91,259.78,117.91z M258.17,122.75h3.21v14.93h-3.21V122.75z"/>
	<path class="st1" d="M276.22,127.62c-0.86-1.33-2.07-2.25-3.89-2.25c-2.81,0-4.84,2.16-4.84,4.84c0,2.68,2.04,4.84,4.84,4.84
		c1.76,0,3.02-0.89,3.89-2.25l2.81,1.67c-1.33,2.1-3.86,3.61-6.69,3.61c-5.21,0-8.24-3.92-8.24-7.87c0-3.95,3.02-7.87,8.24-7.87
		c3.18,0,5.24,1.51,6.69,3.61L276.22,127.62z"/>
	<path class="st1" d="M293.68,135.86h-0.06c-1.02,1.36-2.87,2.22-4.91,2.22c-4.9,0-7.74-4.01-7.74-7.87c0-3.67,3.05-7.87,7.9-7.87
		c2.22,0,3.92,0.96,4.75,2.22h0.06v-1.82h3.21v14.93h-3.21V135.86z M289.11,135.06c2.53,0,4.69-2.16,4.69-4.84
		c0-2.68-2.16-4.84-4.69-4.84c-2.59,0-4.75,2.16-4.75,4.84C284.36,132.9,286.52,135.06,289.11,135.06z"/>
	<path class="st1" d="M302.04,133.24c1.14,1.23,3.02,2.19,4.69,2.19c1.85,0,2.96-1.05,2.96-1.88c0-0.99-0.77-1.51-1.94-1.73
		l-1.82-0.34c-4.2-0.77-5.37-2.13-5.37-4.26c0-2.53,2.13-4.87,5.86-4.87c2.07,0,3.89,0.62,5.92,2.07l-1.82,2.25
		c-1.57-1.33-2.96-1.67-4.01-1.67c-1.39,0-2.75,0.68-2.75,1.88c0,0.89,0.71,1.36,1.94,1.57l3.24,0.62c2.65,0.49,3.95,1.76,3.95,3.98
		c0,2.19-1.79,5.03-6.32,5.03c-2.53,0-4.69-0.89-6.72-2.62L302.04,133.24z"/>
	<path class="st1" d="M317.95,134.32c1.05,0,1.88,0.83,1.88,1.88c0,1.05-0.83,1.88-1.88,1.88s-1.88-0.83-1.88-1.88
		C316.07,135.15,316.91,134.32,317.95,134.32z"/>
</g>
</svg>
