<?xml version="1.0" encoding="utf-8"?>
<!-- Generator: Adobe Illustrator 23.0.2, SVG Export Plug-In . SVG Version: 6.00 Build 0)  -->
<svg version="1.1" id="Layer_1" xmlns="http://www.w3.org/2000/svg" xmlns:xlink="http://www.w3.org/1999/xlink" x="0px" y="0px"
	 viewBox="0 0 346.47 200" style="enable-background:new 0 0 346.47 200;" xml:space="preserve">
<style type="text/css">
	.st0{fill:#ED3226;}
	.st1{fill:#FFFFFF;}
	.st2{fill:#EC1C24;}
</style>
<rect x="0" y="0" class="st0" width="346.47" height="200"/>
<g>
	<path class="st1" d="M33.12,53.18h-5.76v-3.44h15.15v3.44h-5.76V69.4h-3.63V53.18z"/>
	<path class="st1" d="M41.95,54.25h3.07v1.66h0.06c0.53-1.25,1.66-2.07,2.97-2.07c0.72,0,1.35,0.19,1.78,0.47l-1.16,3.23
		c-0.31-0.25-0.91-0.44-1.22-0.44c-1.19,0-2.26,0.91-2.26,2.29V69.4h-3.26V54.25z"/>
	<path class="st1" d="M63.27,67.55h-0.06c-1.03,1.38-2.91,2.25-4.98,2.25c-4.98,0-7.86-4.07-7.86-7.98c0-3.73,3.1-7.98,8.02-7.98
		c2.25,0,3.98,0.97,4.82,2.25h0.06v-1.85h3.26V69.4h-3.26V67.55z M58.63,66.74c2.57,0,4.76-2.19,4.76-4.92s-2.19-4.92-4.76-4.92
		c-2.63,0-4.82,2.19-4.82,4.92S56,66.74,58.63,66.74z"/>
	<path class="st1" d="M70.34,49.74h3.26v6.36h0.06c0.78-1.25,2.82-2.25,4.95-2.25c3.94,0,7.89,2.91,7.89,7.98s-3.94,7.98-7.89,7.98
		c-2.13,0-4.16-1-4.95-2.25H73.6v1.85h-3.26V49.74z M78.33,56.91c-2.72,0-4.73,2.1-4.73,4.92s2,4.92,4.73,4.92
		c2.72,0,4.73-2.1,4.73-4.92S81.05,56.91,78.33,56.91z"/>
	<path class="st1" d="M100.96,67.55h-0.06c-1.03,1.38-2.91,2.25-4.98,2.25c-4.98,0-7.86-4.07-7.86-7.98c0-3.73,3.1-7.98,8.02-7.98
		c2.25,0,3.98,0.97,4.82,2.25h0.06v-1.85h3.26V69.4h-3.26V67.55z M96.33,66.74c2.57,0,4.76-2.19,4.76-4.92s-2.19-4.92-4.76-4.92
		c-2.63,0-4.82,2.19-4.82,4.92S93.7,66.74,96.33,66.74z"/>
	<path class="st1" d="M108.1,54.25h3.26v15.31c0,2.66-1.35,4.48-4.79,6.04l-1.31-2.6c2.25-1.19,2.85-1.88,2.85-3.66V54.25z
		 M109.73,49.33c1,0,1.82,0.81,1.82,1.82c0,1-0.81,1.82-1.82,1.82c-1,0-1.82-0.81-1.82-1.82C107.91,50.15,108.73,49.33,109.73,49.33
		z"/>
	<path class="st1" d="M127.01,67.55h-0.06c-1.03,1.38-2.91,2.25-4.98,2.25c-4.98,0-7.86-4.07-7.86-7.98c0-3.73,3.1-7.98,8.02-7.98
		c2.25,0,3.98,0.97,4.82,2.25h0.06v-1.85h3.26V69.4h-3.26V67.55z M122.38,66.74c2.57,0,4.76-2.19,4.76-4.92s-2.19-4.92-4.76-4.92
		c-2.63,0-4.82,2.19-4.82,4.92S119.75,66.74,122.38,66.74z"/>
	<path class="st1" d="M153.34,59.19c-0.88-1.35-2.1-2.29-3.94-2.29c-2.85,0-4.92,2.19-4.92,4.92s2.07,4.92,4.92,4.92
		c1.78,0,3.07-0.91,3.94-2.29l2.85,1.69c-1.35,2.13-3.91,3.66-6.79,3.66c-5.29,0-8.36-3.98-8.36-7.98s3.07-7.98,8.36-7.98
		c3.22,0,5.32,1.53,6.79,3.66L153.34,59.19z"/>
	<path class="st1" d="M165.89,53.84c5.29,0,8.36,3.98,8.36,7.98s-3.07,7.98-8.36,7.98c-5.29,0-8.36-3.98-8.36-7.98
		S160.6,53.84,165.89,53.84z M165.89,66.74c2.85,0,4.91-2.19,4.91-4.92s-2.07-4.92-4.91-4.92c-2.85,0-4.92,2.19-4.92,4.92
		S163.04,66.74,165.89,66.74z"/>
	<path class="st1" d="M176.32,54.25h3.26v1.91h0.06c0.91-1.41,2.57-2.32,4.63-2.32c3.19,0,5.89,2.66,5.89,6.42v9.14h-3.26v-8.42
		c0-2.76-1.44-3.88-3.6-3.88c-2.1,0-3.73,1.35-3.73,3.82v8.49h-3.26V54.25z"/>
	<path class="st1" d="M202.05,54.25h3.26v1.91h0.06c0.91-1.41,2.57-2.32,4.63-2.32c3.19,0,5.89,2.66,5.89,6.42v9.14h-3.26v-8.42
		c0-2.76-1.44-3.88-3.6-3.88c-2.1,0-3.73,1.35-3.73,3.82v8.49h-3.26V54.25z"/>
	<path class="st1" d="M226.94,53.84c5.29,0,8.36,3.98,8.36,7.98s-3.07,7.98-8.36,7.98c-5.29,0-8.36-3.98-8.36-7.98
		S221.65,53.84,226.94,53.84z M226.94,66.74c2.85,0,4.92-2.19,4.92-4.92s-2.07-4.92-4.92-4.92c-2.85,0-4.92,2.19-4.92,4.92
		S224.09,66.74,226.94,66.74z"/>
	<path class="st1" d="M238.78,64.89c1.16,1.25,3.07,2.22,4.76,2.22c1.88,0,3.01-1.06,3.01-1.91c0-1-0.78-1.53-1.97-1.75l-1.85-0.34
		c-4.26-0.78-5.45-2.16-5.45-4.32c0-2.57,2.16-4.95,5.95-4.95c2.1,0,3.94,0.63,6.01,2.1l-1.85,2.29c-1.6-1.35-3.01-1.69-4.07-1.69
		c-1.41,0-2.79,0.69-2.79,1.91c0,0.91,0.72,1.38,1.97,1.6l3.29,0.63c2.69,0.5,4.01,1.78,4.01,4.04c0,2.22-1.82,5.1-6.42,5.1
		c-2.57,0-4.76-0.91-6.83-2.66L238.78,64.89z"/>
	<path class="st1" d="M260.04,53.84c5.29,0,8.36,3.98,8.36,7.98s-3.07,7.98-8.36,7.98c-5.29,0-8.36-3.98-8.36-7.98
		S254.74,53.84,260.04,53.84z M260.04,66.74c2.85,0,4.91-2.19,4.91-4.92s-2.07-4.92-4.91-4.92c-2.85,0-4.92,2.19-4.92,4.92
		S257.19,66.74,260.04,66.74z"/>
	<path class="st1" d="M269.71,54.25h1.85v-4.01l3.26-0.91v4.92h2.6v3.07h-2.6v5.98c0,1.63,0.38,2.38,1.35,2.94l1.75,1l-1.44,2.57
		c-3.35-1.6-4.92-2.76-4.92-5.92v-6.58h-1.85V54.25z"/>
	<path class="st1" d="M280.04,54.25h3.07v1.66h0.06c0.53-1.25,1.66-2.07,2.97-2.07c0.72,0,1.35,0.19,1.78,0.47l-1.16,3.23
		c-0.31-0.25-0.91-0.44-1.22-0.44c-1.19,0-2.26,0.91-2.26,2.29V69.4h-3.26V54.25z"/>
	<path class="st1" d="M296.26,53.84c5.29,0,8.36,3.98,8.36,7.98s-3.07,7.98-8.36,7.98c-5.29,0-8.36-3.98-8.36-7.98
		S290.97,53.84,296.26,53.84z M296.26,66.74c2.85,0,4.92-2.19,4.92-4.92s-2.07-4.92-4.92-4.92c-2.85,0-4.92,2.19-4.92,4.92
		S293.41,66.74,296.26,66.74z"/>
	<path class="st1" d="M308.09,64.89c1.16,1.25,3.07,2.22,4.76,2.22c1.88,0,3.01-1.06,3.01-1.91c0-1-0.78-1.53-1.97-1.75l-1.85-0.34
		c-4.26-0.78-5.45-2.16-5.45-4.32c0-2.57,2.16-4.95,5.95-4.95c2.1,0,3.94,0.63,6.01,2.1l-1.85,2.29c-1.6-1.35-3.01-1.69-4.07-1.69
		c-1.41,0-2.79,0.69-2.79,1.91c0,0.91,0.72,1.38,1.97,1.6l3.29,0.63c2.69,0.5,4.01,1.78,4.01,4.04c0,2.22-1.82,5.1-6.42,5.1
		c-2.57,0-4.76-0.91-6.83-2.66L308.09,64.89z"/>
	<path class="st1" d="M73.19,90.5c-0.88-1.35-2.1-2.29-3.94-2.29c-2.85,0-4.92,2.19-4.92,4.92c0,2.72,2.07,4.92,4.92,4.92
		c1.78,0,3.07-0.91,3.94-2.29l2.85,1.69c-1.35,2.13-3.91,3.66-6.79,3.66c-5.29,0-8.36-3.98-8.36-7.98s3.07-7.98,8.36-7.98
		c3.22,0,5.32,1.53,6.79,3.66L73.19,90.5z"/>
	<path class="st1" d="M85.75,85.15c5.29,0,8.36,3.98,8.36,7.98s-3.07,7.98-8.36,7.98c-5.29,0-8.36-3.98-8.36-7.98
		S80.45,85.15,85.75,85.15z M85.75,98.05c2.85,0,4.91-2.19,4.91-4.92c0-2.72-2.07-4.92-4.91-4.92c-2.85,0-4.92,2.19-4.92,4.92
		C80.83,95.86,82.9,98.05,85.75,98.05z"/>
	<path class="st1" d="M96.8,91.22c0-3.85,2.57-6.07,5.54-6.07c2.29,0,3.95,1.1,4.54,2.69h0.06c0.59-1.6,2.25-2.69,4.54-2.69
		c2.97,0,5.54,2.22,5.54,6.07v9.49h-3.26v-9.46c0-1.82-1.16-2.85-2.51-2.85c-1.57,0-2.72,0.94-2.72,3.29v9.02h-3.26v-9.02
		c0-2.35-1.16-3.29-2.72-3.29c-1.35,0-2.51,1.03-2.51,2.85v9.46H96.8V91.22z"/>
	<path class="st1" d="M127.45,85.15c5.29,0,8.36,3.98,8.36,7.98s-3.07,7.98-8.36,7.98c-5.29,0-8.36-3.98-8.36-7.98
		S122.16,85.15,127.45,85.15z M127.45,98.05c2.85,0,4.92-2.19,4.92-4.92c0-2.72-2.07-4.92-4.92-4.92c-2.85,0-4.92,2.19-4.92,4.92
		C122.53,95.86,124.6,98.05,127.45,98.05z"/>
	<path class="st1" d="M147.33,92.35h-2.35V88.9h2.35v-7.86h15.09v3.44h-11.46v4.41h7.98v3.44h-7.98v8.36h-3.63V92.35z"/>
	<path class="st1" d="M163.67,85.55h3.07v1.66h0.06c0.53-1.25,1.66-2.07,2.97-2.07c0.72,0,1.35,0.19,1.78,0.47l-1.16,3.23
		c-0.31-0.25-0.91-0.44-1.22-0.44c-1.19,0-2.26,0.91-2.26,2.29v10.02h-3.26V85.55z"/>
	<path class="st1" d="M187.18,97.42c-1.82,2.29-4.32,3.66-7.04,3.69c-5.29,0-8.36-3.98-8.36-7.98s3.07-7.98,8.36-7.98
		c3.16,0,7.86,2.6,7.86,8.52v0.59h-12.59c0.19,2.32,2.35,3.98,4.63,3.98c1.75,0,3.26-0.85,4.38-2.35L187.18,97.42z M184.18,91.57
		c-0.69-2.32-2.41-3.54-4.48-3.54c-2.07,0-3.76,1.28-4.29,3.54H184.18z"/>
	<path class="st1" d="M205.47,97.42c-1.82,2.29-4.32,3.66-7.04,3.69c-5.29,0-8.36-3.98-8.36-7.98s3.07-7.98,8.36-7.98
		c3.16,0,7.86,2.6,7.86,8.52v0.59h-12.59c0.19,2.32,2.35,3.98,4.63,3.98c1.75,0,3.26-0.85,4.38-2.35L205.47,97.42z M202.46,91.57
		c-0.69-2.32-2.41-3.54-4.48-3.54c-2.07,0-3.76,1.28-4.29,3.54H202.46z"/>
	<path class="st1" d="M212.54,81.05V94.6c0,1.75,0.38,2.38,1.35,2.94l1.75,1l-1.44,2.57c-3.35-1.6-4.92-2.76-4.92-5.92V81.05H212.54
		z"/>
	<path class="st1" d="M228.82,98.86h-0.06c-1.03,1.38-2.91,2.25-4.98,2.25c-4.98,0-7.86-4.07-7.86-7.98c0-3.73,3.1-7.98,8.02-7.98
		c2.25,0,3.98,0.97,4.82,2.25h0.06v-1.85h3.26v15.15h-3.26V98.86z M224.19,98.05c2.57,0,4.76-2.19,4.76-4.92
		c0-2.72-2.19-4.92-4.76-4.92c-2.63,0-4.82,2.19-4.82,4.92C219.37,95.86,221.56,98.05,224.19,98.05z"/>
	<path class="st1" d="M235.9,85.55h3.26v1.91h0.06c0.91-1.41,2.57-2.32,4.63-2.32c3.19,0,5.89,2.66,5.89,6.42v9.14h-3.26v-8.42
		c0-2.76-1.44-3.88-3.6-3.88c-2.1,0-3.73,1.35-3.73,3.82v8.49h-3.26V85.55z"/>
	<path class="st1" d="M264.73,90.5c-0.88-1.35-2.1-2.29-3.94-2.29c-2.85,0-4.92,2.19-4.92,4.92c0,2.72,2.07,4.92,4.92,4.92
		c1.78,0,3.07-0.91,3.94-2.29l2.85,1.69c-1.35,2.13-3.91,3.66-6.79,3.66c-5.29,0-8.36-3.98-8.36-7.98s3.07-7.98,8.36-7.98
		c3.22,0,5.32,1.53,6.79,3.66L264.73,90.5z"/>
	<path class="st1" d="M284.58,97.42c-1.82,2.29-4.32,3.66-7.04,3.69c-5.29,0-8.36-3.98-8.36-7.98s3.07-7.98,8.36-7.98
		c3.16,0,7.86,2.6,7.86,8.52v0.59h-12.59c0.19,2.32,2.35,3.98,4.63,3.98c1.75,0,3.26-0.85,4.38-2.35L284.58,97.42z M281.58,91.57
		c-0.69-2.32-2.41-3.54-4.48-3.54c-2.07,0-3.76,1.28-4.29,3.54H281.58z"/>
	<path class="st1" d="M288.84,97.48h3.26v3.63l-3.26,2.19V97.48z"/>
	<path class="st1" d="M66.45,121.81c-0.88-1.35-2.1-2.29-3.94-2.29c-2.85,0-4.92,2.19-4.92,4.92s2.07,4.92,4.92,4.92
		c1.78,0,3.07-0.91,3.94-2.29l2.85,1.69c-1.35,2.13-3.91,3.66-6.79,3.66c-5.29,0-8.36-3.98-8.36-7.98c0-4.01,3.07-7.98,8.36-7.98
		c3.22,0,5.32,1.53,6.79,3.66L66.45,121.81z"/>
	<path class="st1" d="M79,116.46c5.29,0,8.36,3.98,8.36,7.98c0,4.01-3.07,7.98-8.36,7.98c-5.29,0-8.36-3.98-8.36-7.98
		C70.64,120.43,73.71,116.46,79,116.46z M79,129.36c2.85,0,4.91-2.19,4.91-4.92s-2.07-4.92-4.91-4.92c-2.85,0-4.92,2.19-4.92,4.92
		S76.15,129.36,79,129.36z"/>
	<path class="st1" d="M90.05,116.86h3.26v1.91h0.06c0.91-1.41,2.57-2.32,4.63-2.32c3.19,0,5.89,2.66,5.89,6.42v9.14h-3.26v-8.42
		c0-2.76-1.44-3.88-3.6-3.88c-2.1,0-3.73,1.35-3.73,3.82v8.49h-3.26V116.86z"/>
	<path class="st1" d="M114.41,116.86h1.85v-4.01l3.26-0.91v4.92h2.6v3.07h-2.6v5.98c0,1.63,0.38,2.38,1.35,2.94l1.75,1l-1.44,2.57
		c-3.35-1.6-4.92-2.76-4.92-5.92v-6.58h-1.85V116.86z"/>
	<path class="st1" d="M131.97,116.46c5.29,0,8.36,3.98,8.36,7.98c0,4.01-3.07,7.98-8.36,7.98c-5.29,0-8.36-3.98-8.36-7.98
		C123.61,120.43,126.68,116.46,131.97,116.46z M131.97,129.36c2.85,0,4.91-2.19,4.91-4.92s-2.07-4.92-4.91-4.92
		c-2.85,0-4.92,2.19-4.92,4.92S129.12,129.36,131.97,129.36z"/>
	<path class="st1" d="M141.65,116.86h1.85v-4.01l3.26-0.91v4.92h2.6v3.07h-2.6v5.98c0,1.63,0.38,2.38,1.35,2.94l1.75,1l-1.44,2.57
		c-3.35-1.6-4.92-2.76-4.92-5.92v-6.58h-1.85V116.86z"/>
	<path class="st1" d="M163.75,130.17h-0.06c-1.03,1.38-2.91,2.25-4.98,2.25c-4.98,0-7.86-4.07-7.86-7.98c0-3.73,3.1-7.98,8.02-7.98
		c2.25,0,3.98,0.97,4.82,2.25h0.06v-1.85h3.26v15.15h-3.26V130.17z M159.12,129.36c2.57,0,4.76-2.19,4.76-4.92s-2.19-4.92-4.76-4.92
		c-2.63,0-4.82,2.19-4.82,4.92S156.49,129.36,159.12,129.36z"/>
	<path class="st1" d="M174.14,112.35v13.56c0,1.75,0.38,2.38,1.35,2.94l1.75,1l-1.44,2.57c-3.35-1.6-4.91-2.76-4.91-5.92v-14.15
		H174.14z"/>
	<path class="st1" d="M190.05,112.35v13.56c0,1.75,0.38,2.38,1.35,2.94l1.75,1l-1.44,2.57c-3.35-1.6-4.91-2.76-4.91-5.92v-14.15
		H190.05z"/>
	<path class="st1" d="M196.25,111.95c1,0,1.82,0.81,1.82,1.82c0,1-0.81,1.82-1.82,1.82c-1,0-1.82-0.81-1.82-1.82
		C194.43,112.76,195.24,111.95,196.25,111.95z M194.62,116.86h3.26v15.15h-3.26V116.86z"/>
	<path class="st1" d="M201.76,112.35h3.26v6.36h0.06c0.78-1.25,2.82-2.25,4.95-2.25c3.94,0,7.89,2.91,7.89,7.98
		s-3.94,7.98-7.89,7.98c-2.13,0-4.16-1-4.95-2.25h-0.06v1.85h-3.26V112.35z M209.74,119.52c-2.72,0-4.73,2.1-4.73,4.92
		s2,4.92,4.73,4.92c2.72,0,4.73-2.1,4.73-4.92S212.46,119.52,209.74,119.52z"/>
	<path class="st1" d="M235.13,128.73c-1.82,2.29-4.32,3.66-7.04,3.69c-5.29,0-8.36-3.98-8.36-7.98c0-4.01,3.07-7.98,8.36-7.98
		c3.16,0,7.86,2.6,7.86,8.52v0.59h-12.59c0.19,2.32,2.35,3.98,4.63,3.98c1.75,0,3.26-0.85,4.38-2.35L235.13,128.73z M232.13,122.87
		c-0.69-2.32-2.41-3.54-4.48-3.54c-2.07,0-3.76,1.28-4.29,3.54H232.13z"/>
	<path class="st1" d="M238.89,116.86h3.07v1.66h0.06c0.53-1.25,1.66-2.07,2.97-2.07c0.72,0,1.35,0.19,1.78,0.47l-1.16,3.23
		c-0.31-0.25-0.91-0.44-1.22-0.44c-1.19,0-2.26,0.91-2.26,2.29v10.02h-3.26V116.86z"/>
	<path class="st1" d="M247.06,116.86h1.85v-4.01l3.26-0.91v4.92h2.6v3.07h-2.6v5.98c0,1.63,0.38,2.38,1.35,2.94l1.75,1l-1.44,2.57
		c-3.35-1.6-4.92-2.76-4.92-5.92v-6.58h-1.85V116.86z"/>
	<path class="st1" d="M269.16,130.17h-0.06c-1.03,1.38-2.91,2.25-4.98,2.25c-4.98,0-7.86-4.07-7.86-7.98c0-3.73,3.1-7.98,8.02-7.98
		c2.25,0,3.98,0.97,4.82,2.25h0.06v-1.85h3.26v15.15h-3.26V130.17z M264.53,129.36c2.57,0,4.76-2.19,4.76-4.92s-2.19-4.92-4.76-4.92
		c-2.63,0-4.82,2.19-4.82,4.92S261.9,129.36,264.53,129.36z"/>
	<path class="st1" d="M288.01,130.17h-0.06c-1.03,1.38-2.91,2.25-4.98,2.25c-4.98,0-7.86-4.07-7.86-7.98c0-3.73,3.1-7.98,8.02-7.98
		c2.25,0,3.98,0.97,4.82,2.25h0.06v-6.36h3.26v19.66h-3.26V130.17z M283.37,129.36c2.57,0,4.76-2.19,4.76-4.92s-2.19-4.92-4.76-4.92
		c-2.63,0-4.82,2.19-4.82,4.92S280.74,129.36,283.37,129.36z"/>
	<path class="st1" d="M297.21,128.6c1.07,0,1.91,0.85,1.91,1.91c0,1.06-0.85,1.91-1.91,1.91c-1.06,0-1.91-0.85-1.91-1.91
		C295.3,129.45,296.15,128.6,297.21,128.6z"/>
</g>
</svg>
