<?xml version="1.0" encoding="utf-8"?>
<!-- Generator: Adobe Illustrator 23.0.2, SVG Export Plug-In . SVG Version: 6.00 Build 0)  -->
<svg version="1.1" id="Layer_1" xmlns="http://www.w3.org/2000/svg" xmlns:xlink="http://www.w3.org/1999/xlink" x="0px" y="0px"
	 viewBox="0 0 346.47 200" style="enable-background:new 0 0 346.47 200;" xml:space="preserve">
<style type="text/css">
	.st0{fill:#ED3226;}
	.st1{fill:#FFFFFF;}
	.st2{fill:#EC1C24;}
</style>
<rect x="0" y="0" class="st0" width="346.47" height="200"/>
<g>
	<path class="st1" d="M33.14,70.52c3.21,0,6.35,1.32,8.59,4.14l-3.08,2.31c-1.28-1.86-3.24-2.92-5.51-2.92
		c-3.62,0-6.89,3.05-6.89,6.96c0,3.91,3.27,6.96,6.89,6.96c3.33,0,6.03-2.02,6.83-5.45h-6.86v-3.53h10.84v2.66
		c0,3.3-2.98,9.84-10.81,9.84c-6.03,0-10.81-4.59-10.81-10.48C22.34,75.1,27.12,70.52,33.14,70.52z"/>
	<path class="st1" d="M61.68,87.7c-1.86,2.34-4.42,3.75-7.21,3.78c-5.42,0-8.56-4.07-8.56-8.18c0-4.1,3.14-8.18,8.56-8.18
		c3.24,0,8.05,2.66,8.05,8.72v0.61H49.62c0.19,2.37,2.4,4.07,4.75,4.07c1.8,0,3.33-0.87,4.49-2.4L61.68,87.7z M58.6,81.71
		c-0.71-2.37-2.47-3.62-4.59-3.62s-3.85,1.31-4.39,3.62H58.6z"/>
	<path class="st1" d="M65.52,75.55h3.33v1.96h0.06c0.93-1.44,2.63-2.37,4.75-2.37c3.27,0,6.03,2.72,6.03,6.57v9.36h-3.33v-8.62
		c0-2.82-1.47-3.98-3.69-3.98c-2.15,0-3.82,1.38-3.82,3.91v8.69h-3.33V75.55z"/>
	<path class="st1" d="M85.34,70.52c1.03,0,1.86,0.83,1.86,1.86c0,1.03-0.83,1.86-1.86,1.86c-1.03,0-1.86-0.83-1.86-1.86
		C83.48,71.35,84.31,70.52,85.34,70.52z M83.67,75.55h3.33v15.52h-3.33V75.55z"/>
	<path class="st1" d="M103.04,89.18h-0.06c-1.06,1.41-2.98,2.31-5.1,2.31c-5.1,0-8.05-4.17-8.05-8.18c0-3.82,3.17-8.18,8.21-8.18
		c2.31,0,4.07,0.99,4.94,2.31h0.06v-1.89h3.33v15.52h-3.33V89.18z M98.29,88.35c2.63,0,4.87-2.25,4.87-5.03
		c0-2.79-2.24-5.03-4.87-5.03c-2.69,0-4.94,2.24-4.94,5.03C93.35,86.1,95.6,88.35,98.29,88.35z"/>
	<path class="st1" d="M113.68,70.94v13.88c0,1.79,0.39,2.44,1.38,3.01l1.8,1.03l-1.47,2.63c-3.43-1.64-5.03-2.82-5.03-6.06V70.94
		H113.68z"/>
	<path class="st1" d="M133.18,87.7c-1.86,2.34-4.42,3.75-7.21,3.78c-5.42,0-8.56-4.07-8.56-8.18c0-4.1,3.14-8.18,8.56-8.18
		c3.24,0,8.05,2.66,8.05,8.72v0.61h-12.89c0.19,2.37,2.4,4.07,4.75,4.07c1.8,0,3.33-0.87,4.49-2.4L133.18,87.7z M130.1,81.71
		c-0.71-2.37-2.47-3.62-4.59-3.62s-3.85,1.31-4.39,3.62H130.1z"/>
	<path class="st1" d="M137.82,86.45c1.19,1.28,3.14,2.28,4.87,2.28c1.92,0,3.08-1.09,3.08-1.96c0-1.03-0.8-1.57-2.02-1.8l-1.89-0.35
		c-4.36-0.8-5.58-2.21-5.58-4.42c0-2.63,2.21-5.07,6.09-5.07c2.15,0,4.04,0.64,6.16,2.15l-1.89,2.34c-1.63-1.38-3.08-1.73-4.17-1.73
		c-1.44,0-2.85,0.71-2.85,1.96c0,0.93,0.74,1.41,2.02,1.63l3.37,0.64c2.76,0.51,4.1,1.83,4.1,4.14c0,2.28-1.86,5.23-6.57,5.23
		c-2.63,0-4.87-0.93-6.99-2.73L137.82,86.45z"/>
	<path class="st1" d="M171.87,89.18h-0.06c-1.06,1.41-2.98,2.31-5.1,2.31c-5.1,0-8.05-4.17-8.05-8.18c0-3.82,3.17-8.18,8.21-8.18
		c2.31,0,4.07,0.99,4.94,2.31h0.06v-6.51h3.33v20.14h-3.33V89.18z M167.13,88.35c2.63,0,4.87-2.25,4.87-5.03
		c0-2.79-2.24-5.03-4.87-5.03c-2.69,0-4.94,2.24-4.94,5.03C162.19,86.1,164.43,88.35,167.13,88.35z"/>
	<path class="st1" d="M194,87.7c-1.86,2.34-4.42,3.75-7.21,3.78c-5.42,0-8.56-4.07-8.56-8.18c0-4.1,3.14-8.18,8.56-8.18
		c3.24,0,8.05,2.66,8.05,8.72v0.61h-12.89c0.19,2.37,2.4,4.07,4.75,4.07c1.8,0,3.33-0.87,4.49-2.4L194,87.7z M190.92,81.71
		c-0.71-2.37-2.47-3.62-4.59-3.62s-3.85,1.31-4.39,3.62H190.92z"/>
	<path class="st1" d="M198.64,86.45c1.19,1.28,3.14,2.28,4.87,2.28c1.92,0,3.08-1.09,3.08-1.96c0-1.03-0.8-1.57-2.02-1.8l-1.89-0.35
		c-4.36-0.8-5.58-2.21-5.58-4.42c0-2.63,2.21-5.07,6.09-5.07c2.15,0,4.04,0.64,6.16,2.15l-1.89,2.34c-1.63-1.38-3.08-1.73-4.17-1.73
		c-1.44,0-2.85,0.71-2.85,1.96c0,0.93,0.74,1.41,2.02,1.63l3.37,0.64c2.76,0.51,4.1,1.83,4.1,4.14c0,2.28-1.86,5.23-6.57,5.23
		c-2.63,0-4.87-0.93-6.99-2.73L198.64,86.45z"/>
	<path class="st1" d="M223.81,80.62c-0.9-1.38-2.15-2.34-4.04-2.34c-2.92,0-5.03,2.24-5.03,5.03c0,2.79,2.12,5.03,5.03,5.03
		c1.83,0,3.14-0.93,4.04-2.34l2.92,1.73c-1.38,2.18-4.01,3.75-6.96,3.75c-5.42,0-8.56-4.07-8.56-8.18c0-4.1,3.14-8.18,8.56-8.18
		c3.3,0,5.45,1.57,6.96,3.75L223.81,80.62z"/>
	<path class="st1" d="M229.26,75.55h3.33v8.69c0,2.28,1.67,3.91,3.75,3.91c2.08,0,3.75-1.63,3.75-3.91v-8.69h3.33v8.98
		c0,4.36-3.4,6.96-7.09,6.96c-3.69,0-7.09-2.6-7.09-6.96V75.55z"/>
	<path class="st1" d="M262.22,87.7c-1.86,2.34-4.42,3.75-7.21,3.78c-5.42,0-8.56-4.07-8.56-8.18c0-4.1,3.14-8.18,8.56-8.18
		c3.24,0,8.05,2.66,8.05,8.72v0.61h-12.89c0.19,2.37,2.4,4.07,4.75,4.07c1.8,0,3.33-0.87,4.49-2.4L262.22,87.7z M259.14,81.71
		c-0.71-2.37-2.47-3.62-4.59-3.62s-3.85,1.31-4.39,3.62H259.14z"/>
	<path class="st1" d="M266.07,75.55h3.33v1.96h0.06c0.93-1.44,2.63-2.37,4.75-2.37c3.27,0,6.03,2.72,6.03,6.57v9.36h-3.33v-8.62
		c0-2.82-1.47-3.98-3.69-3.98c-2.15,0-3.82,1.38-3.82,3.91v8.69h-3.33V75.55z"/>
	<path class="st1" d="M282.74,75.55h1.89v-4.1l3.33-0.93v5.03h2.66v3.14h-2.66v6.12c0,1.67,0.38,2.44,1.38,3.01l1.8,1.03l-1.47,2.63
		c-3.43-1.64-5.03-2.82-5.03-6.06v-6.73h-1.89V75.55z"/>
	<path class="st1" d="M300.73,75.14c5.42,0,8.56,4.07,8.56,8.18c0,4.1-3.14,8.18-8.56,8.18c-5.42,0-8.56-4.07-8.56-8.18
		C292.17,79.21,295.31,75.14,300.73,75.14z M300.73,88.35c2.92,0,5.03-2.25,5.03-5.03c0-2.79-2.12-5.03-5.03-5.03
		c-2.92,0-5.03,2.24-5.03,5.03C295.69,86.1,297.81,88.35,300.73,88.35z"/>
	<path class="st1" d="M312.85,86.45c1.19,1.28,3.14,2.28,4.87,2.28c1.92,0,3.08-1.09,3.08-1.96c0-1.03-0.8-1.57-2.02-1.8l-1.89-0.35
		c-4.36-0.8-5.58-2.21-5.58-4.42c0-2.63,2.21-5.07,6.09-5.07c2.15,0,4.04,0.64,6.16,2.15l-1.89,2.34c-1.63-1.38-3.08-1.73-4.17-1.73
		c-1.44,0-2.85,0.71-2.85,1.96c0,0.93,0.74,1.41,2.02,1.63l3.37,0.64c2.76,0.51,4.1,1.83,4.1,4.14c0,2.28-1.86,5.23-6.57,5.23
		c-2.63,0-4.87-0.93-6.99-2.73L312.85,86.45z"/>
	<path class="st1" d="M81.32,119.77c-1.86,2.34-4.42,3.75-7.21,3.78c-5.42,0-8.56-4.07-8.56-8.18s3.14-8.18,8.56-8.18
		c3.24,0,8.05,2.66,8.05,8.72v0.61H69.26c0.19,2.37,2.4,4.07,4.75,4.07c1.8,0,3.33-0.87,4.49-2.4L81.32,119.77z M78.24,113.77
		c-0.71-2.37-2.47-3.62-4.59-3.62s-3.85,1.31-4.39,3.62H78.24z"/>
	<path class="st1" d="M85.16,107.61h3.33v1.96h0.06c0.93-1.44,2.63-2.37,4.75-2.37c3.27,0,6.03,2.72,6.03,6.57v9.36H96v-8.62
		c0-2.82-1.47-3.98-3.69-3.98c-2.15,0-3.82,1.38-3.82,3.91v8.69h-3.33V107.61z"/>
	<path class="st1" d="M126.4,119.77c-1.86,2.34-4.42,3.75-7.21,3.78c-5.42,0-8.56-4.07-8.56-8.18s3.14-8.18,8.56-8.18
		c3.24,0,8.05,2.66,8.05,8.72v0.61h-12.89c0.19,2.37,2.4,4.07,4.75,4.07c1.8,0,3.33-0.87,4.49-2.4L126.4,119.77z M123.32,113.77
		c-0.71-2.37-2.47-3.62-4.59-3.62s-3.85,1.31-4.39,3.62H123.32z"/>
	<path class="st1" d="M133.64,103v13.88c0,1.79,0.39,2.44,1.38,3.01l1.8,1.03l-1.47,2.63c-3.43-1.64-5.03-2.82-5.03-6.06V103H133.64
		z"/>
	<path class="st1" d="M161.34,121.4c0,5.13-3.91,8.08-8.11,8.08c-2.15,0-4.78-0.9-6.54-3.08l2.73-1.99c0.64,0.9,2.08,1.92,3.65,1.92
		c3.4,0,5.13-2.21,5.13-4.58v-1.03c-1.41,1.57-3.01,2.4-5.29,2.4c-4.01,0-7.53-3.01-7.53-7.92c0-5.1,3.78-8.02,7.92-8.02
		c2.08,0,3.75,0.8,4.84,2.24h0.06v-1.83h3.14V121.4z M153.58,119.99c2.69,0,4.62-2.15,4.62-4.81c0-2.69-2.08-4.84-4.62-4.84
		c-2.6,0-4.68,2.15-4.68,4.81C148.9,117.84,150.76,119.99,153.58,119.99z"/>
	<path class="st1" d="M166.98,102.58c1.03,0,1.86,0.83,1.86,1.86c0,1.03-0.83,1.86-1.86,1.86c-1.03,0-1.86-0.83-1.86-1.86
		C165.12,103.41,165.96,102.58,166.98,102.58z M165.32,107.61h3.33v15.52h-3.33V107.61z"/>
	<path class="st1" d="M172.63,113.42c0-3.94,2.63-6.22,5.67-6.22c2.34,0,4.04,1.12,4.65,2.76h0.06c0.61-1.63,2.31-2.76,4.65-2.76
		c3.05,0,5.68,2.28,5.68,6.22v9.72H190v-9.68c0-1.86-1.19-2.92-2.56-2.92c-1.6,0-2.79,0.96-2.79,3.37v9.23h-3.33v-9.23
		c0-2.4-1.19-3.37-2.79-3.37c-1.38,0-2.57,1.06-2.57,2.92v9.68h-3.33V113.42z"/>
	<path class="st1" d="M197.25,107.61h3.33v1.96h0.06c0.93-1.44,2.63-2.37,4.75-2.37c3.27,0,6.03,2.72,6.03,6.57v9.36h-3.33v-8.62
		c0-2.82-1.47-3.98-3.69-3.98c-2.15,0-3.82,1.38-3.82,3.91v8.69h-3.33V107.61z"/>
	<path class="st1" d="M227.39,121.24h-0.06c-1.06,1.41-2.98,2.31-5.1,2.31c-5.1,0-8.05-4.17-8.05-8.18c0-3.82,3.17-8.18,8.21-8.18
		c2.31,0,4.07,0.99,4.94,2.31h0.06v-1.89h3.33v15.52h-3.33V121.24z M222.64,120.41c2.63,0,4.87-2.25,4.87-5.03
		c0-2.79-2.24-5.03-4.87-5.03c-2.69,0-4.94,2.24-4.94,5.03C217.7,118.16,219.95,120.41,222.64,120.41z"/>
	<path class="st1" d="M235.44,118.52c1.19,1.28,3.14,2.28,4.87,2.28c1.92,0,3.08-1.09,3.08-1.96c0-1.03-0.8-1.57-2.02-1.8
		l-1.89-0.35c-4.36-0.8-5.58-2.21-5.58-4.42c0-2.63,2.21-5.07,6.09-5.07c2.15,0,4.04,0.64,6.16,2.15l-1.89,2.34
		c-1.63-1.38-3.08-1.73-4.17-1.73c-1.44,0-2.85,0.71-2.85,1.96c0,0.93,0.74,1.41,2.02,1.63l3.37,0.64c2.76,0.51,4.1,1.83,4.1,4.14
		c0,2.28-1.86,5.23-6.57,5.23c-2.63,0-4.87-0.93-6.99-2.73L235.44,118.52z"/>
	<path class="st1" d="M250.89,102.58c1.03,0,1.86,0.83,1.86,1.86c0,1.03-0.83,1.86-1.86,1.86c-1.03,0-1.86-0.83-1.86-1.86
		C249.03,103.41,249.86,102.58,250.89,102.58z M249.22,107.61h3.33v15.52h-3.33V107.61z"/>
	<path class="st1" d="M263.94,107.2c5.42,0,8.56,4.07,8.56,8.18s-3.14,8.18-8.56,8.18c-5.42,0-8.56-4.07-8.56-8.18
		S258.52,107.2,263.94,107.2z M263.94,120.41c2.92,0,5.03-2.25,5.03-5.03c0-2.79-2.12-5.03-5.03-5.03c-2.92,0-5.03,2.24-5.03,5.03
		C258.9,118.16,261.02,120.41,263.94,120.41z"/>
	<path class="st1" d="M277.43,119.64c1.09,0,1.96,0.87,1.96,1.96c0,1.09-0.87,1.96-1.96,1.96c-1.09,0-1.96-0.87-1.96-1.96
		C275.48,120.5,276.35,119.64,277.43,119.64z"/>
</g>
</svg>
