<?xml version="1.0" encoding="utf-8"?>
<!-- Generator: Adobe Illustrator 23.0.2, SVG Export Plug-In . SVG Version: 6.00 Build 0)  -->
<svg version="1.1" id="Layer_1" xmlns="http://www.w3.org/2000/svg" xmlns:xlink="http://www.w3.org/1999/xlink" x="0px" y="0px"
	 viewBox="0 0 346.47 200" style="enable-background:new 0 0 346.47 200;" xml:space="preserve">
<style type="text/css">
	.st0{fill:#ED3226;}
	.st1{fill:#FFFFFF;}
	.st2{fill:#EC1C24;}
</style>
<rect class="st0" width="346.47" height="200"/>
<g>
	<path class="st1" d="M65.7,78.23V90.1h-3.58V70.33l12.49,12.28V70.73h3.58v19.77L65.7,78.23z"/>
	<path class="st1" d="M88.84,74.77c5.21,0,8.24,3.92,8.24,7.87s-3.02,7.87-8.24,7.87c-5.21,0-8.24-3.92-8.24-7.87
		S83.63,74.77,88.84,74.77z M88.84,87.48c2.81,0,4.84-2.16,4.84-4.84c0-2.68-2.04-4.84-4.84-4.84c-2.81,0-4.84,2.16-4.84,4.84
		C84,85.32,86.03,87.48,88.84,87.48z"/>
	<path class="st1" d="M121.07,86.87c-1.79,2.25-4.26,3.61-6.94,3.64c-5.21,0-8.24-3.92-8.24-7.87s3.02-7.87,8.24-7.87
		c3.12,0,7.74,2.56,7.74,8.39v0.59h-12.4c0.19,2.28,2.31,3.92,4.57,3.92c1.73,0,3.21-0.83,4.32-2.31L121.07,86.87z M118.11,81.1
		c-0.68-2.28-2.38-3.49-4.41-3.49c-2.04,0-3.7,1.26-4.23,3.49H118.11z"/>
	<path class="st1" d="M125.08,85.66c1.14,1.23,3.02,2.19,4.69,2.19c1.85,0,2.96-1.05,2.96-1.88c0-0.99-0.77-1.51-1.94-1.73
		l-1.82-0.34c-4.2-0.77-5.37-2.13-5.37-4.26c0-2.53,2.13-4.87,5.86-4.87c2.07,0,3.89,0.62,5.92,2.07l-1.82,2.25
		c-1.57-1.33-2.96-1.67-4.01-1.67c-1.39,0-2.75,0.68-2.75,1.88c0,0.89,0.71,1.36,1.94,1.57l3.24,0.62c2.65,0.49,3.95,1.76,3.95,3.98
		c0,2.19-1.79,5.03-6.32,5.03c-2.53,0-4.69-0.89-6.72-2.62L125.08,85.66z"/>
	<path class="st1" d="M145.32,75.17h3.21v8.36c0,2.19,1.6,3.76,3.61,3.76s3.61-1.57,3.61-3.76v-8.36h3.21v8.64
		c0,4.2-3.27,6.69-6.82,6.69c-3.55,0-6.82-2.5-6.82-6.69V75.17z"/>
	<path class="st1" d="M161.02,75.17h3.21v1.88h0.06c0.89-1.39,2.53-2.28,4.57-2.28c3.15,0,5.8,2.62,5.8,6.32v9.01h-3.21v-8.3
		c0-2.71-1.42-3.83-3.55-3.83c-2.07,0-3.67,1.33-3.67,3.76v8.36h-3.21V75.17z"/>
	<path class="st1" d="M184.09,75.17h1.82v-3.95l3.21-0.89v4.84h2.56v3.02h-2.56v5.89c0,1.6,0.37,2.34,1.33,2.9l1.73,0.99l-1.42,2.53
		c-3.3-1.57-4.84-2.71-4.84-5.83V78.2h-1.82V75.17z"/>
	<path class="st1" d="M193.81,75.17h3.02v1.63h0.06c0.52-1.23,1.63-2.04,2.93-2.04c0.71,0,1.33,0.19,1.76,0.46l-1.14,3.18
		c-0.31-0.25-0.89-0.43-1.2-0.43c-1.17,0-2.22,0.89-2.22,2.25v9.87h-3.21V75.17z"/>
	<path class="st1" d="M214.35,88.28h-0.06c-1.02,1.36-2.87,2.22-4.9,2.22c-4.9,0-7.74-4.01-7.74-7.87c0-3.67,3.05-7.87,7.9-7.87
		c2.22,0,3.92,0.96,4.75,2.22h0.06v-1.82h3.21V90.1h-3.21V88.28z M209.79,87.48c2.53,0,4.69-2.16,4.69-4.84
		c0-2.68-2.16-4.84-4.69-4.84c-2.59,0-4.75,2.16-4.75,4.84C205.04,85.32,207.2,87.48,209.79,87.48z"/>
	<path class="st1" d="M220.25,70.73h3.21v6.26h0.06c0.77-1.23,2.78-2.22,4.87-2.22c3.89,0,7.77,2.87,7.77,7.87s-3.89,7.87-7.77,7.87
		c-2.1,0-4.1-0.99-4.87-2.22h-0.06v1.82h-3.21V70.73z M228.11,77.8c-2.68,0-4.66,2.07-4.66,4.84s1.97,4.84,4.66,4.84
		c2.68,0,4.66-2.07,4.66-4.84S230.8,77.8,228.11,77.8z"/>
	<path class="st1" d="M249.95,88.28h-0.06c-1.02,1.36-2.87,2.22-4.9,2.22c-4.9,0-7.74-4.01-7.74-7.87c0-3.67,3.05-7.87,7.9-7.87
		c2.22,0,3.92,0.96,4.75,2.22h0.06v-1.82h3.21V90.1h-3.21V88.28z M245.39,87.48c2.53,0,4.69-2.16,4.69-4.84
		c0-2.68-2.16-4.84-4.69-4.84c-2.59,0-4.75,2.16-4.75,4.84C240.64,85.32,242.8,87.48,245.39,87.48z"/>
	<path class="st1" d="M256.52,75.17h3.21v15.08c0,2.62-1.33,4.41-4.72,5.95l-1.3-2.56c2.22-1.17,2.81-1.85,2.81-3.61V75.17z
		 M258.13,70.33c0.99,0,1.79,0.8,1.79,1.79c0,0.99-0.8,1.79-1.79,1.79c-0.99,0-1.79-0.8-1.79-1.79
		C256.34,71.13,257.14,70.33,258.13,70.33z"/>
	<path class="st1" d="M270.22,74.77c5.21,0,8.24,3.92,8.24,7.87s-3.02,7.87-8.24,7.87c-5.21,0-8.24-3.92-8.24-7.87
		S265,74.77,270.22,74.77z M270.22,87.48c2.81,0,4.84-2.16,4.84-4.84c0-2.68-2.04-4.84-4.84-4.84c-2.81,0-4.84,2.16-4.84,4.84
		C265.37,85.32,267.41,87.48,270.22,87.48z"/>
	<path class="st1" d="M281.14,86.93h3.21v3.58l-3.21,2.16V86.93z"/>
	<path class="st1" d="M110.54,117.71c-1.79,2.25-4.26,3.61-6.94,3.64c-5.21,0-8.24-3.92-8.24-7.87c0-3.95,3.02-7.87,8.24-7.87
		c3.12,0,7.74,2.56,7.74,8.39v0.59h-12.4c0.19,2.28,2.31,3.92,4.57,3.92c1.73,0,3.21-0.83,4.32-2.31L110.54,117.71z M107.58,111.94
		c-0.68-2.28-2.38-3.49-4.41-3.49c-2.04,0-3.7,1.26-4.23,3.49H107.58z"/>
	<path class="st1" d="M114.55,116.51c1.14,1.23,3.02,2.19,4.69,2.19c1.85,0,2.96-1.05,2.96-1.88c0-0.99-0.77-1.51-1.94-1.73
		l-1.82-0.34c-4.2-0.77-5.37-2.13-5.37-4.26c0-2.53,2.13-4.87,5.86-4.87c2.07,0,3.89,0.62,5.92,2.07l-1.82,2.25
		c-1.57-1.33-2.96-1.67-4.01-1.67c-1.39,0-2.75,0.68-2.75,1.88c0,0.89,0.71,1.36,1.94,1.57l3.24,0.62c2.65,0.49,3.95,1.76,3.95,3.98
		c0,2.19-1.79,5.03-6.32,5.03c-2.53,0-4.69-0.89-6.72-2.62L114.55,116.51z"/>
	<path class="st1" d="M134.78,106.02h3.21v8.36c0,2.19,1.6,3.76,3.61,3.76c2.01,0,3.61-1.57,3.61-3.76v-8.36h3.21v8.64
		c0,4.2-3.27,6.69-6.82,6.69c-3.55,0-6.82-2.5-6.82-6.69V106.02z"/>
	<path class="st1" d="M149.87,106.02h3.21v1.88h0.06c0.89-1.39,2.53-2.28,4.57-2.28c3.15,0,5.8,2.62,5.8,6.32v9.01h-3.21v-8.3
		c0-2.71-1.42-3.83-3.55-3.83c-2.07,0-3.67,1.33-3.67,3.76v8.36h-3.21V106.02z"/>
	<path class="st1" d="M177.79,119.13h-0.06c-1.02,1.36-2.87,2.22-4.9,2.22c-4.9,0-7.74-4.01-7.74-7.87c0-3.67,3.05-7.87,7.9-7.87
		c2.22,0,3.92,0.96,4.75,2.22h0.06v-1.82h3.21v14.93h-3.21V119.13z M173.22,118.33c2.53,0,4.69-2.16,4.69-4.84
		c0-2.68-2.16-4.84-4.69-4.84c-2.59,0-4.75,2.16-4.75,4.84C168.47,116.17,170.63,118.33,173.22,118.33z"/>
	<path class="st1" d="M189.69,106.02h3.58l3.3,8.54h0.06l3.3-8.54h3.58l-6.91,15.33L189.69,106.02z"/>
	<path class="st1" d="M206.38,101.18c0.99,0,1.79,0.8,1.79,1.79c0,0.99-0.8,1.79-1.79,1.79c-0.99,0-1.79-0.8-1.79-1.79
		C204.59,101.98,205.39,101.18,206.38,101.18z M204.78,106.02h3.21v14.93h-3.21V106.02z"/>
	<path class="st1" d="M222.33,119.13h-0.06c-1.02,1.36-2.87,2.22-4.9,2.22c-4.9,0-7.74-4.01-7.74-7.87c0-3.67,3.05-7.87,7.9-7.87
		c2.22,0,3.92,0.96,4.75,2.22h0.06v-6.26h3.21v19.37h-3.21V119.13z M217.76,118.33c2.53,0,4.69-2.16,4.69-4.84
		c0-2.68-2.16-4.84-4.69-4.84c-2.59,0-4.75,2.16-4.75,4.84C213.01,116.17,215.17,118.33,217.76,118.33z"/>
	<path class="st1" d="M239.82,119.13h-0.06c-1.02,1.36-2.87,2.22-4.9,2.22c-4.9,0-7.74-4.01-7.74-7.87c0-3.67,3.05-7.87,7.9-7.87
		c2.22,0,3.92,0.96,4.75,2.22h0.06v-1.82h3.21v14.93h-3.21V119.13z M235.25,118.33c2.53,0,4.69-2.16,4.69-4.84
		c0-2.68-2.16-4.84-4.69-4.84c-2.59,0-4.75,2.16-4.75,4.84C230.5,116.17,232.66,118.33,235.25,118.33z"/>
	<path class="st1" d="M248.42,117.59c1.05,0,1.88,0.83,1.88,1.88s-0.83,1.88-1.88,1.88c-1.05,0-1.88-0.83-1.88-1.88
		S247.38,117.59,248.42,117.59z"/>
</g>
</svg>
