<?xml version="1.0" encoding="utf-8"?>
<!-- Generator: Adobe Illustrator 23.0.2, SVG Export Plug-In . SVG Version: 6.00 Build 0)  -->
<svg version="1.1" id="Layer_1" xmlns="http://www.w3.org/2000/svg" xmlns:xlink="http://www.w3.org/1999/xlink" x="0px" y="0px"
	 viewBox="0 0 346.47 200" style="enable-background:new 0 0 346.47 200;" xml:space="preserve">
<style type="text/css">
	.st0{fill:#ED3226;}
	.st1{fill:#FFFFFF;}
	.st2{fill:#EC1C24;}
</style>
<rect x="0" class="st0" width="346.47" height="200"/>
<g>
	<path class="st1" d="M38.16,72.04h3.86l4.72,11.85l4.72-11.85h3.86l-8.58,19.77L38.16,72.04z"/>
	<path class="st1" d="M67.25,89.59h-0.06c-1.02,1.36-2.87,2.22-4.9,2.22c-4.9,0-7.74-4.01-7.74-7.87c0-3.67,3.05-7.87,7.9-7.87
		c2.22,0,3.92,0.96,4.75,2.22h0.06v-1.82h3.21v14.93h-3.21V89.59z M62.68,88.79c2.53,0,4.69-2.16,4.69-4.84
		c0-2.68-2.16-4.84-4.69-4.84c-2.59,0-4.75,2.16-4.75,4.84C57.93,86.63,60.09,88.79,62.68,88.79z"/>
	<path class="st1" d="M84.92,81.35c-0.86-1.33-2.07-2.25-3.89-2.25c-2.81,0-4.84,2.16-4.84,4.84c0,2.68,2.04,4.84,4.84,4.84
		c1.76,0,3.02-0.89,3.89-2.25l2.81,1.67c-1.33,2.1-3.86,3.61-6.69,3.61c-5.21,0-8.24-3.92-8.24-7.87s3.02-7.87,8.24-7.87
		c3.18,0,5.24,1.51,6.69,3.61L84.92,81.35z"/>
	<path class="st1" d="M101.46,89.59h-0.06c-1.02,1.36-2.87,2.22-4.9,2.22c-4.9,0-7.74-4.01-7.74-7.87c0-3.67,3.05-7.87,7.9-7.87
		c2.22,0,3.92,0.96,4.75,2.22h0.06v-1.82h3.21v14.93h-3.21V89.59z M96.89,88.79c2.53,0,4.69-2.16,4.69-4.84
		c0-2.68-2.16-4.84-4.69-4.84c-2.59,0-4.75,2.16-4.75,4.84C92.14,86.63,94.3,88.79,96.89,88.79z"/>
	<path class="st1" d="M119.13,81.35c-0.86-1.33-2.07-2.25-3.89-2.25c-2.81,0-4.84,2.16-4.84,4.84c0,2.68,2.04,4.84,4.84,4.84
		c1.76,0,3.02-0.89,3.89-2.25l2.81,1.67c-1.33,2.1-3.86,3.61-6.69,3.61c-5.21,0-8.24-3.92-8.24-7.87s3.02-7.87,8.24-7.87
		c3.18,0,5.24,1.51,6.69,3.61L119.13,81.35z"/>
	<path class="st1" d="M125.73,71.64c0.99,0,1.79,0.8,1.79,1.79c0,0.99-0.8,1.79-1.79,1.79c-0.99,0-1.79-0.8-1.79-1.79
		C123.94,72.44,124.74,71.64,125.73,71.64z M124.13,76.48h3.21v14.93h-3.21V76.48z"/>
	<path class="st1" d="M137.98,76.08c5.21,0,8.24,3.92,8.24,7.87s-3.02,7.87-8.24,7.87c-5.21,0-8.24-3.92-8.24-7.87
		S132.76,76.08,137.98,76.08z M137.98,88.79c2.81,0,4.84-2.16,4.84-4.84c0-2.68-2.04-4.84-4.84-4.84c-2.81,0-4.84,2.16-4.84,4.84
		C133.13,86.63,135.17,88.79,137.98,88.79z"/>
	<path class="st1" d="M148.56,76.48h3.21v1.88h0.06c0.89-1.39,2.53-2.28,4.57-2.28c3.15,0,5.8,2.62,5.8,6.32v9.01h-3.21v-8.3
		c0-2.71-1.42-3.83-3.55-3.83c-2.07,0-3.67,1.33-3.67,3.76v8.36h-3.21V76.48z"/>
	<path class="st1" d="M179.96,88.17c-1.79,2.25-4.26,3.61-6.94,3.64c-5.21,0-8.24-3.92-8.24-7.87s3.02-7.87,8.24-7.87
		c3.12,0,7.74,2.56,7.74,8.39v0.59h-12.4c0.19,2.28,2.31,3.92,4.57,3.92c1.73,0,3.21-0.83,4.32-2.31L179.96,88.17z M177,82.4
		c-0.68-2.28-2.38-3.49-4.41-3.49s-3.7,1.26-4.23,3.49H177z"/>
	<path class="st1" d="M184.74,86.97c1.14,1.23,3.02,2.19,4.69,2.19c1.85,0,2.96-1.05,2.96-1.88c0-0.99-0.77-1.51-1.94-1.73
		l-1.82-0.34c-4.2-0.77-5.37-2.13-5.37-4.26c0-2.53,2.13-4.87,5.86-4.87c2.07,0,3.89,0.62,5.92,2.07l-1.82,2.25
		c-1.57-1.33-2.96-1.67-4.01-1.67c-1.39,0-2.75,0.68-2.75,1.88c0,0.89,0.71,1.36,1.94,1.57l3.24,0.62c2.65,0.49,3.95,1.76,3.95,3.98
		c0,2.19-1.79,5.03-6.32,5.03c-2.53,0-4.69-0.89-6.72-2.62L184.74,86.97z"/>
	<path class="st1" d="M220.83,88.17c-1.79,2.25-4.26,3.61-6.94,3.64c-5.21,0-8.24-3.92-8.24-7.87s3.02-7.87,8.24-7.87
		c3.12,0,7.74,2.56,7.74,8.39v0.59h-12.4c0.19,2.28,2.31,3.92,4.57,3.92c1.73,0,3.21-0.83,4.32-2.31L220.83,88.17z M217.87,82.4
		c-0.68-2.28-2.38-3.49-4.41-3.49s-3.7,1.26-4.23,3.49H217.87z"/>
	<path class="st1" d="M222.87,76.48h1.82v-3.95l3.21-0.89v4.84h2.56v3.02h-2.56v5.89c0,1.6,0.37,2.34,1.33,2.9l1.73,0.99l-1.42,2.53
		c-3.3-1.57-4.84-2.71-4.84-5.83V79.5h-1.82V76.48z"/>
	<path class="st1" d="M247.05,88.17c-1.79,2.25-4.26,3.61-6.94,3.64c-5.21,0-8.24-3.92-8.24-7.87s3.02-7.87,8.24-7.87
		c3.12,0,7.74,2.56,7.74,8.39v0.59h-12.4c0.19,2.28,2.31,3.92,4.57,3.92c1.73,0,3.21-0.83,4.32-2.31L247.05,88.17z M244.09,82.4
		c-0.68-2.28-2.38-3.49-4.41-3.49s-3.7,1.26-4.23,3.49H244.09z"/>
	<path class="st1" d="M250.45,76.48h3.02v1.63h0.06c0.52-1.23,1.63-2.04,2.93-2.04c0.71,0,1.33,0.19,1.76,0.46l-1.14,3.18
		c-0.31-0.25-0.89-0.43-1.2-0.43c-1.17,0-2.22,0.89-2.22,2.25v9.87h-3.21V76.48z"/>
	<path class="st1" d="M260.72,76.48h3.21v1.88h0.06c0.89-1.39,2.53-2.28,4.57-2.28c3.15,0,5.8,2.62,5.8,6.32v9.01h-3.21v-8.3
		c0-2.71-1.42-3.83-3.55-3.83c-2.07,0-3.67,1.33-3.67,3.76v8.36h-3.21V76.48z"/>
	<path class="st1" d="M289.4,89.59h-0.06c-1.02,1.36-2.87,2.22-4.9,2.22c-4.9,0-7.74-4.01-7.74-7.87c0-3.67,3.05-7.87,7.9-7.87
		c2.22,0,3.92,0.96,4.75,2.22h0.06v-1.82h3.21v14.93h-3.21V89.59z M284.84,88.79c2.53,0,4.69-2.16,4.69-4.84
		c0-2.68-2.16-4.84-4.69-4.84c-2.59,0-4.75,2.16-4.75,4.84C280.09,86.63,282.25,88.79,284.84,88.79z"/>
	<path class="st1" d="M297.46,86.97c1.14,1.23,3.02,2.19,4.69,2.19c1.85,0,2.96-1.05,2.96-1.88c0-0.99-0.77-1.51-1.94-1.73
		l-1.82-0.34c-4.2-0.77-5.37-2.13-5.37-4.26c0-2.53,2.13-4.87,5.86-4.87c2.07,0,3.89,0.62,5.92,2.07l-1.82,2.25
		c-1.57-1.33-2.96-1.67-4.01-1.67c-1.39,0-2.75,0.68-2.75,1.88c0,0.89,0.71,1.36,1.94,1.57l3.24,0.62c2.65,0.49,3.95,1.76,3.95,3.98
		c0,2.19-1.79,5.03-6.32,5.03c-2.53,0-4.69-0.89-6.72-2.62L297.46,86.97z"/>
	<path class="st1" d="M43.96,112.32h2.71l0.8,14.37h-4.32L43.96,112.32z M45.31,106.93c1.05,0,1.88,0.83,1.88,1.88
		c0,1.05-0.83,1.88-1.88,1.88c-1.05,0-1.88-0.83-1.88-1.88C43.43,107.76,44.26,106.93,45.31,106.93z"/>
	<path class="st1" d="M50.28,107.33h1.82v-3.95l3.21-0.89v4.84h2.56v3.02h-2.56v5.89c0,1.6,0.37,2.34,1.33,2.9l1.73,0.99l-1.42,2.53
		c-3.3-1.57-4.84-2.71-4.84-5.83v-6.48h-1.82V107.33z"/>
	<path class="st1" d="M60.77,107.33h3.02v1.63h0.06c0.52-1.23,1.63-2.04,2.93-2.04c0.71,0,1.33,0.19,1.76,0.46l-1.14,3.18
		c-0.31-0.25-0.89-0.43-1.2-0.43c-1.17,0-2.22,0.89-2.22,2.25v9.87h-3.21V107.33z"/>
	<path class="st1" d="M82.08,120.44h-0.06c-1.02,1.36-2.87,2.22-4.9,2.22c-4.9,0-7.74-4.01-7.74-7.87c0-3.67,3.05-7.87,7.9-7.87
		c2.22,0,3.92,0.96,4.75,2.22h0.06v-1.82h3.21v14.93h-3.21V120.44z M77.52,119.63c2.53,0,4.69-2.16,4.69-4.84
		c0-2.68-2.16-4.84-4.69-4.84c-2.59,0-4.75,2.16-4.75,4.84C72.77,117.48,74.93,119.63,77.52,119.63z"/>
	<path class="st1" d="M89.36,102.88h3.21v6.26h0.06c0.77-1.23,2.78-2.22,4.87-2.22c3.89,0,7.77,2.87,7.77,7.87
		c0,5-3.89,7.87-7.77,7.87c-2.1,0-4.1-0.99-4.87-2.22h-0.06v1.82h-3.21V102.88z M97.23,109.95c-2.68,0-4.66,2.07-4.66,4.84
		c0,2.78,1.97,4.84,4.66,4.84c2.68,0,4.66-2.07,4.66-4.84C101.89,112.02,99.91,109.95,97.23,109.95z"/>
	<path class="st1" d="M119.84,120.44h-0.06c-1.02,1.36-2.87,2.22-4.9,2.22c-4.9,0-7.74-4.01-7.74-7.87c0-3.67,3.05-7.87,7.9-7.87
		c2.22,0,3.92,0.96,4.75,2.22h0.06v-1.82h3.21v14.93h-3.21V120.44z M115.27,119.63c2.53,0,4.69-2.16,4.69-4.84
		c0-2.68-2.16-4.84-4.69-4.84c-2.59,0-4.75,2.16-4.75,4.84C110.52,117.48,112.68,119.63,115.27,119.63z"/>
	<path class="st1" d="M126.56,107.33h3.21v15.08c0,2.62-1.33,4.41-4.72,5.95l-1.3-2.56c2.22-1.17,2.81-1.85,2.81-3.61V107.33z
		 M128.17,102.48c0.99,0,1.79,0.8,1.79,1.79c0,0.99-0.8,1.79-1.79,1.79c-0.99,0-1.79-0.8-1.79-1.79
		C126.38,103.29,127.18,102.48,128.17,102.48z"/>
	<path class="st1" d="M144.89,120.44h-0.06c-1.02,1.36-2.87,2.22-4.9,2.22c-4.9,0-7.74-4.01-7.74-7.87c0-3.67,3.05-7.87,7.9-7.87
		c2.22,0,3.92,0.96,4.75,2.22h0.06v-1.82h3.21v14.93h-3.21V120.44z M140.32,119.63c2.53,0,4.69-2.16,4.69-4.84
		c0-2.68-2.16-4.84-4.69-4.84c-2.59,0-4.75,2.16-4.75,4.84C135.57,117.48,137.73,119.63,140.32,119.63z"/>
	<path class="st1" d="M174.75,119.02c-1.79,2.25-4.26,3.61-6.94,3.64c-5.21,0-8.24-3.92-8.24-7.87c0-3.95,3.02-7.87,8.24-7.87
		c3.12,0,7.74,2.56,7.74,8.39v0.59h-12.4c0.19,2.28,2.31,3.92,4.57,3.92c1.73,0,3.21-0.83,4.32-2.31L174.75,119.02z M171.79,113.25
		c-0.68-2.28-2.38-3.49-4.41-3.49s-3.7,1.26-4.23,3.49H171.79z"/>
	<path class="st1" d="M178.76,107.33h3.21v1.88h0.06c0.89-1.39,2.53-2.28,4.57-2.28c3.15,0,5.8,2.62,5.8,6.32v9.01h-3.21v-8.3
		c0-2.71-1.42-3.83-3.55-3.83c-2.07,0-3.67,1.33-3.67,3.76v8.36h-3.21V107.33z"/>
	<path class="st1" d="M204.73,107.33h3.02v1.63h0.06c0.52-1.23,1.63-2.04,2.93-2.04c0.71,0,1.33,0.19,1.76,0.46l-1.14,3.18
		c-0.31-0.25-0.89-0.43-1.2-0.43c-1.17,0-2.22,0.89-2.22,2.25v9.87h-3.21V107.33z"/>
	<path class="st1" d="M228.2,119.02c-1.79,2.25-4.26,3.61-6.94,3.64c-5.21,0-8.24-3.92-8.24-7.87c0-3.95,3.02-7.87,8.24-7.87
		c3.12,0,7.74,2.56,7.74,8.39v0.59h-12.4c0.19,2.28,2.31,3.92,4.57,3.92c1.73,0,3.21-0.83,4.32-2.31L228.2,119.02z M225.24,113.25
		c-0.68-2.28-2.38-3.49-4.41-3.49s-3.7,1.26-4.23,3.49H225.24z"/>
	<path class="st1" d="M231.6,112.91c0-3.79,2.53-5.98,5.46-5.98c2.25,0,3.89,1.08,4.47,2.65h0.06c0.59-1.57,2.22-2.65,4.47-2.65
		c2.93,0,5.46,2.19,5.46,5.98v9.35h-3.21v-9.32c0-1.79-1.14-2.81-2.47-2.81c-1.54,0-2.68,0.93-2.68,3.24v8.88h-3.21v-8.88
		c0-2.31-1.14-3.24-2.68-3.24c-1.33,0-2.47,1.02-2.47,2.81v9.32h-3.21V112.91z"/>
	<path class="st1" d="M262.11,106.93c5.21,0,8.24,3.92,8.24,7.87c0,3.95-3.02,7.87-8.24,7.87c-5.21,0-8.24-3.92-8.24-7.87
		C253.87,110.84,256.89,106.93,262.11,106.93z M262.11,119.63c2.81,0,4.84-2.16,4.84-4.84c0-2.68-2.04-4.84-4.84-4.84
		c-2.81,0-4.84,2.16-4.84,4.84C257.26,117.48,259.3,119.63,262.11,119.63z"/>
	<path class="st1" d="M271.33,107.33h1.82v-3.95l3.21-0.89v4.84h2.56v3.02h-2.56v5.89c0,1.6,0.37,2.34,1.33,2.9l1.73,0.99
		l-1.42,2.53c-3.3-1.57-4.84-2.71-4.84-5.83v-6.48h-1.82V107.33z"/>
	<path class="st1" d="M288.33,106.93c5.21,0,8.24,3.92,8.24,7.87c0,3.95-3.02,7.87-8.24,7.87c-5.21,0-8.24-3.92-8.24-7.87
		C280.09,110.84,283.11,106.93,288.33,106.93z M288.33,119.63c2.81,0,4.84-2.16,4.84-4.84c0-2.68-2.04-4.84-4.84-4.84
		c-2.81,0-4.84,2.16-4.84,4.84C283.48,117.48,285.52,119.63,288.33,119.63z"/>
	<path class="st1" d="M299.62,102.88h4.32l-0.8,14.37h-2.71L299.62,102.88z M301.77,118.89c1.05,0,1.88,0.83,1.88,1.88
		c0,1.05-0.83,1.88-1.88,1.88c-1.05,0-1.88-0.83-1.88-1.88C299.89,119.73,300.73,118.89,301.77,118.89z"/>
</g>
</svg>
