<?xml version="1.0" encoding="utf-8"?>
<!-- Generator: Adobe Illustrator 23.0.2, SVG Export Plug-In . SVG Version: 6.00 Build 0)  -->
<svg version="1.1" id="Layer_1" xmlns="http://www.w3.org/2000/svg" xmlns:xlink="http://www.w3.org/1999/xlink" x="0px" y="0px"
	 viewBox="0 0 346.47 200" style="enable-background:new 0 0 346.47 200;" xml:space="preserve">
<style type="text/css">
	.st0{fill:#ED3226;}
	.st1{fill:#FFFFFF;}
	.st2{fill:#EC1C24;}
</style>
<rect x="0" y="0" class="st0" width="346.47" height="200"/>
<g>
	<path class="st1" d="M67.09,88.15h-2.31v-3.39h2.31v-9.87h9.22c4.32,0,6.97,2.84,6.97,6.63c0,3.79-2.65,6.63-6.97,6.63h-5.65v6.11
		h-3.58V88.15z M70.66,84.76h5.37c2.53,0,3.67-1.51,3.67-3.24c0-1.73-1.14-3.24-3.67-3.24h-5.37V84.76z"/>
	<path class="st1" d="M85.44,79.33h3.02v1.63h0.06c0.52-1.23,1.63-2.04,2.93-2.04c0.71,0,1.33,0.19,1.76,0.46l-1.14,3.18
		c-0.31-0.25-0.89-0.43-1.2-0.43c-1.17,0-2.22,0.89-2.22,2.25v9.87h-3.21V79.33z"/>
	<path class="st1" d="M101.38,78.93c5.21,0,8.24,3.92,8.24,7.87c0,3.95-3.02,7.87-8.24,7.87c-5.21,0-8.24-3.92-8.24-7.87
		C93.14,82.85,96.16,78.93,101.38,78.93z M101.38,91.64c2.81,0,4.84-2.16,4.84-4.84c0-2.68-2.04-4.84-4.84-4.84
		c-2.81,0-4.84,2.16-4.84,4.84C96.53,89.48,98.57,91.64,101.38,91.64z"/>
	<path class="st1" d="M123.84,92.44h-0.06c-1.02,1.36-2.87,2.22-4.9,2.22c-4.9,0-7.74-4.01-7.74-7.87c0-3.67,3.05-7.87,7.9-7.87
		c2.22,0,3.92,0.96,4.75,2.22h0.06v-6.26h3.21v19.37h-3.21V92.44z M119.27,91.64c2.53,0,4.69-2.16,4.69-4.84
		c0-2.68-2.16-4.84-4.69-4.84c-2.59,0-4.75,2.16-4.75,4.84C114.52,89.48,116.68,91.64,119.27,91.64z"/>
	<path class="st1" d="M130.6,79.33h3.21v8.36c0,2.19,1.6,3.76,3.61,3.76c2.01,0,3.61-1.57,3.61-3.76v-8.36h3.21v8.64
		c0,4.2-3.27,6.69-6.82,6.69c-3.55,0-6.82-2.5-6.82-6.69V79.33z"/>
	<path class="st1" d="M158.87,84.21c-0.86-1.33-2.07-2.25-3.89-2.25c-2.81,0-4.84,2.16-4.84,4.84c0,2.68,2.04,4.84,4.84,4.84
		c1.76,0,3.02-0.89,3.89-2.25l2.81,1.67c-1.33,2.1-3.86,3.61-6.69,3.61c-5.21,0-8.24-3.92-8.24-7.87c0-3.95,3.02-7.87,8.24-7.87
		c3.18,0,5.24,1.51,6.69,3.61L158.87,84.21z"/>
	<path class="st1" d="M162.65,79.33h1.82v-3.95l3.21-0.89v4.84h2.56v3.02h-2.56v5.89c0,1.6,0.37,2.34,1.33,2.9l1.73,0.99l-1.42,2.53
		c-3.3-1.57-4.84-2.71-4.84-5.83v-6.48h-1.82V79.33z"/>
	<path class="st1" d="M174.49,74.49c0.99,0,1.79,0.8,1.79,1.79c0,0.99-0.8,1.79-1.79,1.79c-0.99,0-1.79-0.8-1.79-1.79
		C172.7,75.29,173.5,74.49,174.49,74.49z M172.88,79.33h3.21v14.93h-3.21V79.33z"/>
	<path class="st1" d="M177.7,79.33h3.58l3.3,8.54h0.06l3.3-8.54h3.58l-6.91,15.33L177.7,79.33z"/>
	<path class="st1" d="M194.68,74.49c0.99,0,1.79,0.8,1.79,1.79c0,0.99-0.8,1.79-1.79,1.79c-0.99,0-1.79-0.8-1.79-1.79
		C192.89,75.29,193.69,74.49,194.68,74.49z M193.08,79.33h3.21v14.93h-3.21V79.33z"/>
	<path class="st1" d="M211.59,92.44h-0.06c-1.02,1.36-2.87,2.22-4.9,2.22c-4.9,0-7.74-4.01-7.74-7.87c0-3.67,3.05-7.87,7.9-7.87
		c2.22,0,3.92,0.96,4.75,2.22h0.06v-6.26h3.21v19.37h-3.21V92.44z M207.02,91.64c2.53,0,4.69-2.16,4.69-4.84
		c0-2.68-2.16-4.84-4.69-4.84c-2.59,0-4.75,2.16-4.75,4.84C202.27,89.48,204.43,91.64,207.02,91.64z"/>
	<path class="st1" d="M229.95,92.44h-0.06c-1.02,1.36-2.87,2.22-4.9,2.22c-4.9,0-7.74-4.01-7.74-7.87c0-3.67,3.05-7.87,7.9-7.87
		c2.22,0,3.92,0.96,4.75,2.22h0.06v-1.82h3.21v14.93h-3.21V92.44z M225.38,91.64c2.53,0,4.69-2.16,4.69-4.84
		c0-2.68-2.16-4.84-4.69-4.84c-2.59,0-4.75,2.16-4.75,4.84C220.63,89.48,222.79,91.64,225.38,91.64z"/>
	<path class="st1" d="M248.3,92.44h-0.06c-1.02,1.36-2.87,2.22-4.9,2.22c-4.9,0-7.74-4.01-7.74-7.87c0-3.67,3.05-7.87,7.9-7.87
		c2.22,0,3.92,0.96,4.75,2.22h0.06v-6.26h3.21v19.37h-3.21V92.44z M243.74,91.64c2.53,0,4.69-2.16,4.69-4.84
		c0-2.68-2.16-4.84-4.69-4.84c-2.59,0-4.75,2.16-4.75,4.84C238.99,89.48,241.15,91.64,243.74,91.64z"/>
	<path class="st1" d="M268.08,79.33h3.21v8.76c0,2.5,1.54,3.55,3.52,3.55c2.5,0,3.7-1.54,3.7-3.86v-8.45h3.21V93.8
		c0,4.57-4.04,6.57-6.82,6.57c-3.36,0-4.87-1.26-6.32-2.93l2.71-1.67c1.02,0.99,2.04,1.57,3.42,1.57c2.13,0,3.98-1.3,3.98-3.92v-0.8
		h-0.06c-1.26,1.42-2.44,2.04-4.5,2.04c-3.33,0-6.05-2.5-6.05-6.69V79.33z"/>
	<path class="st1" d="M46.66,115.05c-0.86-1.33-2.07-2.25-3.89-2.25c-2.81,0-4.84,2.16-4.84,4.84c0,2.68,2.04,4.84,4.84,4.84
		c1.76,0,3.02-0.89,3.89-2.25l2.81,1.67c-1.33,2.1-3.86,3.61-6.69,3.61c-5.21,0-8.24-3.92-8.24-7.87s3.02-7.87,8.24-7.87
		c3.18,0,5.24,1.51,6.69,3.61L46.66,115.05z"/>
	<path class="st1" d="M58.93,109.78c5.21,0,8.24,3.92,8.24,7.87s-3.02,7.87-8.24,7.87c-5.21,0-8.24-3.92-8.24-7.87
		S53.71,109.78,58.93,109.78z M58.93,122.49c2.81,0,4.84-2.16,4.84-4.84c0-2.68-2.04-4.84-4.84-4.84c-2.81,0-4.84,2.16-4.84,4.84
		C54.08,120.33,56.12,122.49,58.93,122.49z"/>
	<path class="st1" d="M69.79,110.18H73v1.88h0.06c0.89-1.39,2.53-2.28,4.57-2.28c3.15,0,5.8,2.62,5.8,6.32v9.01h-3.21v-8.3
		c0-2.71-1.42-3.83-3.55-3.83c-2.07,0-3.67,1.33-3.67,3.76v8.36h-3.21V110.18z"/>
	<path class="st1" d="M98.06,115.05c-0.86-1.33-2.07-2.25-3.89-2.25c-2.81,0-4.84,2.16-4.84,4.84c0,2.68,2.04,4.84,4.84,4.84
		c1.76,0,3.02-0.89,3.89-2.25l2.81,1.67c-1.33,2.1-3.86,3.61-6.69,3.61c-5.21,0-8.24-3.92-8.24-7.87s3.02-7.87,8.24-7.87
		c3.18,0,5.24,1.51,6.69,3.61L98.06,115.05z"/>
	<path class="st1" d="M104.87,105.34c0.99,0,1.79,0.8,1.79,1.79c0,0.99-0.8,1.79-1.79,1.79c-0.99,0-1.79-0.8-1.79-1.79
		C103.08,106.14,103.88,105.34,104.87,105.34z M103.27,110.18h3.21v14.93h-3.21V110.18z"/>
	<path class="st1" d="M113.45,105.74v13.36c0,1.73,0.37,2.34,1.33,2.9l1.73,0.99l-1.42,2.53c-3.3-1.57-4.84-2.71-4.84-5.83v-13.94
		H113.45z"/>
	<path class="st1" d="M120.17,105.34c0.99,0,1.79,0.8,1.79,1.79c0,0.99-0.8,1.79-1.79,1.79c-0.99,0-1.79-0.8-1.79-1.79
		C118.38,106.14,119.18,105.34,120.17,105.34z M118.57,110.18h3.21v14.93h-3.21V110.18z"/>
	<path class="st1" d="M137.08,123.29h-0.06c-1.02,1.36-2.87,2.22-4.9,2.22c-4.9,0-7.74-4.01-7.74-7.87c0-3.67,3.05-7.87,7.9-7.87
		c2.22,0,3.92,0.96,4.75,2.22h0.06v-1.82h3.21v14.93h-3.21V123.29z M132.51,122.49c2.53,0,4.69-2.16,4.69-4.84
		c0-2.68-2.16-4.84-4.69-4.84c-2.59,0-4.75,2.16-4.75,4.84C127.76,120.33,129.92,122.49,132.51,122.49z"/>
	<path class="st1" d="M154.85,115.05c-0.86-1.33-2.07-2.25-3.89-2.25c-2.81,0-4.84,2.16-4.84,4.84c0,2.68,2.04,4.84,4.84,4.84
		c1.76,0,3.02-0.89,3.89-2.25l2.81,1.67c-1.33,2.1-3.86,3.61-6.69,3.61c-5.21,0-8.24-3.92-8.24-7.87s3.02-7.87,8.24-7.87
		c3.18,0,5.24,1.51,6.69,3.61L154.85,115.05z"/>
	<path class="st1" d="M161.66,105.34c0.99,0,1.79,0.8,1.79,1.79c0,0.99-0.8,1.79-1.79,1.79c-0.99,0-1.79-0.8-1.79-1.79
		C159.87,106.14,160.67,105.34,161.66,105.34z M160.06,110.18h3.21v14.93h-3.21V110.18z"/>
	<path class="st1" d="M174.09,109.78c5.21,0,8.24,3.92,8.24,7.87s-3.02,7.87-8.24,7.87c-5.21,0-8.24-3.92-8.24-7.87
		S168.88,109.78,174.09,109.78z M174.09,122.49c2.81,0,4.84-2.16,4.84-4.84c0-2.68-2.04-4.84-4.84-4.84c-2.81,0-4.84,2.16-4.84,4.84
		C169.25,120.33,171.29,122.49,174.09,122.49z M171.69,106.32l6.05-1.54V107l-6.05,1.54V106.32z"/>
	<path class="st1" d="M184.96,110.18h3.21v1.88h0.06c0.89-1.39,2.53-2.28,4.57-2.28c3.15,0,5.8,2.62,5.8,6.32v9.01h-3.21v-8.3
		c0-2.71-1.42-3.83-3.55-3.83c-2.07,0-3.67,1.33-3.67,3.76v8.36h-3.21V110.18z"/>
	<path class="st1" d="M213.56,105.74v13.36c0,1.73,0.37,2.34,1.33,2.9l1.73,0.99l-1.42,2.53c-3.3-1.57-4.84-2.71-4.84-5.83v-13.94
		H213.56z"/>
	<path class="st1" d="M229.6,123.29h-0.06c-1.02,1.36-2.87,2.22-4.9,2.22c-4.9,0-7.74-4.01-7.74-7.87c0-3.67,3.05-7.87,7.9-7.87
		c2.22,0,3.92,0.96,4.75,2.22h0.06v-1.82h3.21v14.93h-3.21V123.29z M225.04,122.49c2.53,0,4.69-2.16,4.69-4.84
		c0-2.68-2.16-4.84-4.69-4.84c-2.59,0-4.75,2.16-4.75,4.84C220.28,120.33,222.44,122.49,225.04,122.49z"/>
	<path class="st1" d="M236.36,105.74h3.21V112h0.06c0.77-1.23,2.78-2.22,4.87-2.22c3.89,0,7.77,2.87,7.77,7.87
		c0,5-3.89,7.87-7.77,7.87c-2.1,0-4.1-0.99-4.87-2.22h-0.06v1.82h-3.21V105.74z M244.23,112.8c-2.68,0-4.66,2.07-4.66,4.84
		c0,2.78,1.97,4.84,4.66,4.84s4.66-2.07,4.66-4.84C248.88,114.87,246.91,112.8,244.23,112.8z"/>
	<path class="st1" d="M261.84,109.78c5.21,0,8.24,3.92,8.24,7.87s-3.02,7.87-8.24,7.87c-5.21,0-8.24-3.92-8.24-7.87
		S256.63,109.78,261.84,109.78z M261.84,122.49c2.81,0,4.84-2.16,4.84-4.84c0-2.68-2.04-4.84-4.84-4.84c-2.81,0-4.84,2.16-4.84,4.84
		C257,120.33,259.04,122.49,261.84,122.49z"/>
	<path class="st1" d="M272.71,110.18h3.02v1.63h0.06c0.52-1.23,1.63-2.04,2.93-2.04c0.71,0,1.33,0.19,1.76,0.46l-1.14,3.18
		c-0.31-0.25-0.89-0.43-1.2-0.43c-1.17,0-2.22,0.89-2.22,2.25v9.87h-3.21V110.18z"/>
	<path class="st1" d="M293.49,123.29h-0.06c-1.02,1.36-2.87,2.22-4.9,2.22c-4.9,0-7.74-4.01-7.74-7.87c0-3.67,3.05-7.87,7.9-7.87
		c2.22,0,3.92,0.96,4.75,2.22h0.06v-1.82h3.21v14.93h-3.21V123.29z M288.92,122.49c2.53,0,4.69-2.16,4.69-4.84
		c0-2.68-2.16-4.84-4.69-4.84c-2.59,0-4.75,2.16-4.75,4.84C284.17,120.33,286.33,122.49,288.92,122.49z"/>
	<path class="st1" d="M303.52,105.74v13.36c0,1.73,0.37,2.34,1.33,2.9l1.73,0.99l-1.42,2.53c-3.3-1.57-4.84-2.71-4.84-5.83v-13.94
		H303.52z"/>
	<path class="st1" d="M310.05,121.75c1.05,0,1.88,0.83,1.88,1.88c0,1.05-0.83,1.88-1.88,1.88c-1.05,0-1.88-0.83-1.88-1.88
		C308.17,122.58,309,121.75,310.05,121.75z"/>
</g>
</svg>
