<?xml version="1.0" encoding="utf-8"?>
<!-- Generator: Adobe Illustrator 23.0.2, SVG Export Plug-In . SVG Version: 6.00 Build 0)  -->
<svg version="1.1" id="Layer_1" xmlns="http://www.w3.org/2000/svg" xmlns:xlink="http://www.w3.org/1999/xlink" x="0px" y="0px"
	 viewBox="0 0 107 107" style="enable-background:new 0 0 107 107;" xml:space="preserve">
<style type="text/css">
	.st0{fill:#CCCCCC;}
	.st1{fill:#DA291C;}
	.st2{fill:#FFFFFF;}
	.st3{display:none;fill:none;stroke:#00FF00;stroke-width:1.9869;stroke-miterlimit:10;}
</style>
<g>
	<circle class="st1" cx="53.5" cy="53.5" r="52.5"/>
	<g id="XMLID_12_">
		<g id="XMLID_13_">
			<path id="XMLID_22_" class="st2" d="M82.87,54.68c-0.62-6.21-3.39-12.06-7.81-16.48c-3.78-3.78-8.4-6.2-13.27-7.28V27.5
				c1.99-0.49,3.46-2.29,3.46-4.43c0-2.52-2.05-4.57-4.57-4.57h-9.67c-2.52,0-4.57,2.05-4.57,4.57c0,2.14,1.48,3.94,3.46,4.43v3.42
				c-4.85,1.08-9.46,3.51-13.22,7.27c-0.82,0.82-1.58,1.69-2.28,2.59c-0.03,0-0.07-0.01-0.1-0.01h-9.57c-0.74,0-1.34,0.6-1.34,1.34
				c0,0.74,0.6,1.34,1.34,1.34h7.84c-0.98,1.65-1.78,3.38-2.38,5.16H15.59c-0.74,0-1.34,0.6-1.34,1.34c0,0.74,0.6,1.34,1.34,1.34
				h13.86c-0.39,1.7-0.61,3.43-0.67,5.16h-5.94c-0.74,0-1.34,0.6-1.34,1.34s0.6,1.34,1.34,1.34h5.98c0.11,1.74,0.39,3.47,0.84,5.16
				h-8.7c-0.74,0-1.34,0.6-1.34,1.34S20.22,67,20.96,67h9.56c1.32,3.48,3.38,6.75,6.18,9.55c4.42,4.42,10.28,7.2,16.5,7.81
				c0.89,0.09,1.77,0.13,2.66,0.13c5.24,0,10.41-1.52,14.8-4.38c0.62-0.4,0.8-1.24,0.39-1.86s-1.24-0.8-1.86-0.39
				c-9.61,6.26-22.48,4.9-30.6-3.22c-9.53-9.53-9.53-25.04,0-34.56c9.53-9.53,25.04-9.53,34.56,0c8.11,8.11,9.47,20.97,3.23,30.57
				c-0.4,0.62-0.23,1.45,0.39,1.86c0.62,0.4,1.45,0.23,1.86-0.39C81.98,67,83.48,60.8,82.87,54.68z M49.14,23.07
				c0-1.04,0.84-1.88,1.88-1.88h9.67c1.04,0,1.88,0.84,1.88,1.88c0,1.04-0.84,1.88-1.88,1.88h-0.24h-9.19h-0.24
				C49.99,24.95,49.14,24.1,49.14,23.07z M52.61,30.46v-2.82h6.5v2.82C56.95,30.19,54.76,30.2,52.61,30.46z"/>
			<path id="XMLID_21_" class="st2" d="M74.11,74.26c-0.35,0-0.7,0.14-0.95,0.39c-0.25,0.25-0.39,0.6-0.39,0.95s0.14,0.7,0.39,0.95
				c0.25,0.25,0.59,0.39,0.95,0.39c0.35,0,0.7-0.14,0.95-0.39c0.25-0.25,0.39-0.6,0.39-0.95s-0.14-0.7-0.39-0.95
				C74.81,74.41,74.46,74.26,74.11,74.26z"/>
			<path id="XMLID_20_" class="st2" d="M55.88,36.54c-11.49,0-20.83,9.35-20.83,20.83s9.35,20.83,20.83,20.83
				s20.83-9.35,20.83-20.83S67.36,36.54,55.88,36.54z M55.88,75.52c-10.01,0-18.15-8.14-18.15-18.15s8.14-18.15,18.15-18.15
				s18.15,8.14,18.15,18.15S65.88,75.52,55.88,75.52z"/>
			<path id="XMLID_19_" class="st2" d="M64.37,46.98l-6.65,6.65c-0.56-0.28-1.18-0.43-1.84-0.43c-0.66,0-1.29,0.16-1.84,0.43
				l-2.98-2.98c-0.52-0.52-1.37-0.52-1.9,0c-0.52,0.52-0.52,1.37,0,1.9l2.98,2.98c-0.28,0.56-0.43,1.18-0.43,1.84
				c0,2.3,1.87,4.17,4.17,4.17c2.3,0,4.17-1.87,4.17-4.17c0-0.66-0.16-1.29-0.43-1.84l6.46-6.46l0,0l0.2-0.2
				c0.52-0.52,0.52-1.37,0-1.9S64.9,46.46,64.37,46.98z M55.88,58.86c-0.82,0-1.49-0.67-1.49-1.49s0.67-1.49,1.49-1.49
				c0.82,0,1.49,0.67,1.49,1.49S56.7,58.86,55.88,58.86z"/>
			<path id="XMLID_18_" class="st2" d="M70.24,56.05h-1.24c-0.74,0-1.34,0.6-1.34,1.34s0.6,1.34,1.34,1.34h1.24
				c0.74,0,1.34-0.6,1.34-1.34S70.98,56.05,70.24,56.05z"/>
			<path id="XMLID_17_" class="st2" d="M42.76,56.01h-1.24c-0.74,0-1.34,0.6-1.34,1.34s0.6,1.34,1.34,1.34h1.24
				c0.74,0,1.34-0.6,1.34-1.34S43.5,56.01,42.76,56.01z"/>
			<path id="XMLID_16_" class="st2" d="M55.89,45.6c0.74,0,1.34-0.6,1.34-1.34v-1.24c0-0.74-0.6-1.34-1.34-1.34
				c-0.74,0-1.34,0.6-1.34,1.34v1.24C54.55,45,55.15,45.6,55.89,45.6z"/>
			<path id="XMLID_15_" class="st2" d="M55.86,69.14c-0.74,0-1.34,0.6-1.34,1.34v1.24c0,0.74,0.6,1.34,1.34,1.34
				c0.74,0,1.34-0.6,1.34-1.34v-1.24C57.2,69.75,56.6,69.14,55.86,69.14z"/>
			<path id="XMLID_14_" class="st2" d="M15.59,64.32c-0.35,0-0.7,0.14-0.95,0.39c-0.25,0.25-0.39,0.6-0.39,0.95
				c0,0.35,0.14,0.7,0.39,0.95c0.25,0.25,0.6,0.39,0.95,0.39c0.35,0,0.7-0.14,0.95-0.39c0.25-0.25,0.39-0.6,0.39-0.95
				c0-0.35-0.14-0.7-0.39-0.95C16.29,64.46,15.94,64.32,15.59,64.32z"/>
		</g>
	</g>
</g>
</svg>
