<?xml version="1.0" encoding="utf-8"?>
<!-- Generator: Adobe Illustrator 23.0.2, SVG Export Plug-In . SVG Version: 6.00 Build 0)  -->
<svg version="1.1" id="Layer_1" xmlns="http://www.w3.org/2000/svg" xmlns:xlink="http://www.w3.org/1999/xlink" x="0px" y="0px"
	 viewBox="0 0 109 110" style="enable-background:new 0 0 109 110;" xml:space="preserve">
<style type="text/css">
	.st0{fill:#CCCCCC;}
	.st1{fill:#DA291C;}
	.st2{fill:#FFFFFF;}
	.st3{display:none;fill:none;stroke:#00FF00;stroke-width:1.9869;stroke-miterlimit:10;}
</style>
<g>
	<circle class="st1" cx="54.5" cy="55" r="52.5"/>
	<g>
		<circle class="st2" cx="54.62" cy="27" r="5.95"/>
		<path class="st2" d="M72,41.35l-10.27-7.7h-3.97c0,0-1.52,2.22-3.27,2.22s-3.27-2.22-3.27-2.22h-3.97L37,41.35v10.5h0.01
			c0,0.04-0.01,0.08-0.01,0.12c0,1.35,1.1,2.45,2.45,2.45s2.45-1.1,2.45-2.45c0-0.04,0-0.08-0.01-0.12h0.01v-8.4l4.43-3.03v13.3
			l-5.14-0.03l5.14,5.86v25.9c0,1.93,1.57,3.5,3.5,3.5s3.5-1.57,3.5-3.5v-26.6c0,0,0.35-1.17,1.17-1.17s1.17,1.17,1.17,1.17v26.6
			c0,1.93,1.57,3.5,3.5,3.5s3.5-1.57,3.5-3.5v-25.9l5.14-5.86l-5.14,0.03v-13.3l4.43,3.03v8.4h0.01c0,0.04-0.01,0.08-0.01,0.12
			c0,1.35,1.1,2.45,2.45,2.45c1.35,0,2.45-1.1,2.45-2.45c0-0.04,0-0.08-0.01-0.12H72V41.35z"/>
	</g>
</g>
</svg>
