<?xml version="1.0" encoding="utf-8"?>
<!-- Generator: Adobe Illustrator 23.0.2, SVG Export Plug-In . SVG Version: 6.00 Build 0)  -->
<svg version="1.1" id="Layer_1" xmlns="http://www.w3.org/2000/svg" xmlns:xlink="http://www.w3.org/1999/xlink" x="0px" y="0px"
	 viewBox="0 0 269.28 68.8" style="enable-background:new 0 0 269.28 68.8;" xml:space="preserve">
<style type="text/css">
	.st0{fill:#ED3226;}
	.st1{fill:#FFFFFF;}
	.st2{fill:#EC1C24;}
</style>
<g>
	<g>
		<path class="st1" d="M25.86,36.29c-1.81-0.83-4.23-1.5-7.26-2.03c-2.68-0.49-4.64-1.13-5.89-1.9c-1.25-0.77-1.87-1.92-1.87-3.43
			c0-1.34,0.61-2.42,1.82-3.25c1.21-0.83,2.93-1.24,5.15-1.24c1.3,0,2.77,0.31,4.41,0.92c1.64,0.62,2.91,1.29,3.83,2.03
			c0.42,0.32,0.9,0.48,1.43,0.48c0.81,0,1.51-0.31,2.11-0.92c0.6-0.62,0.9-1.33,0.9-2.14c0-1.06-0.51-1.99-1.53-2.8
			c-1.3-1.09-2.93-1.97-4.88-2.64c-1.95-0.67-4.04-1-6.26-1c-2.46,0-4.7,0.43-6.71,1.29c-2.01,0.86-3.59,2.11-4.75,3.75
			c-1.16,1.64-1.74,3.56-1.74,5.78c0,6.05,3.85,9.65,11.56,10.77c3.06,0.46,5.3,1.13,6.71,2.03c1.41,0.9,2.11,2.14,2.11,3.72
			c0,1.3-0.71,2.39-2.14,3.27s-3.13,1.32-5.1,1.32c-1.83,0-3.41-0.26-4.75-0.79c-1.34-0.53-2.71-1.37-4.12-2.53
			c-0.53-0.42-1.13-0.63-1.79-0.63c-0.84,0-1.57,0.31-2.16,0.92c-0.6,0.62-0.9,1.33-0.9,2.14c0,1.02,0.47,1.95,1.43,2.8
			c1.72,1.51,3.57,2.59,5.54,3.22c1.97,0.63,4.22,0.95,6.76,0.95c2.39,0,4.63-0.45,6.71-1.35c2.08-0.9,3.74-2.18,4.99-3.85
			s1.88-3.62,1.88-5.83c0-2.36-0.46-4.25-1.37-5.68C29.04,38.25,27.67,37.12,25.86,36.29z"/>
		<path class="st1" d="M50.65,27.08c-1.79,0-3.42,0.45-4.88,1.35c-1.46,0.9-2.67,1.98-3.62,3.25V20c0-0.92-0.3-1.68-0.9-2.3
			c-0.6-0.62-1.36-0.92-2.27-0.92c-0.92,0-1.67,0.31-2.27,0.92c-0.6,0.62-0.9,1.38-0.9,2.3v32.63c0,0.92,0.3,1.68,0.9,2.3
			c0.6,0.62,1.36,0.92,2.27,0.92c0.91,0,1.67-0.31,2.27-0.92c0.6-0.62,0.9-1.38,0.9-2.3V39.12c0-1.8,0.55-3.28,1.66-4.46
			c1.11-1.18,2.65-1.77,4.62-1.77c1.9,0,3.23,0.55,3.99,1.66c0.76,1.11,1.13,2.63,1.13,4.57v13.52c0,0.92,0.3,1.68,0.9,2.3
			c0.6,0.62,1.35,0.92,2.27,0.92s1.67-0.31,2.27-0.92c0.6-0.62,0.9-1.38,0.9-2.3V39.12c0-3.77-0.67-6.71-2.01-8.84
			C56.55,28.14,54.14,27.08,50.65,27.08z"/>
		<path class="st1" d="M68.5,17.89c-1.16,0-2.01,0.19-2.53,0.58c-0.53,0.39-0.79,1.07-0.79,2.06v1c0,0.99,0.25,1.67,0.74,2.06
			c0.49,0.39,1.34,0.58,2.53,0.58c1.23,0,2.1-0.18,2.62-0.55c0.51-0.37,0.77-1.06,0.77-2.09v-1c0-0.99-0.25-1.67-0.74-2.06
			C70.59,18.09,69.73,17.89,68.5,17.89z"/>
		<path class="st1" d="M68.5,27.61c-0.92,0-1.67,0.31-2.27,0.92c-0.6,0.62-0.9,1.38-0.9,2.3v21.81c0,0.92,0.3,1.68,0.9,2.3
			c0.6,0.62,1.35,0.92,2.27,0.92s1.67-0.31,2.27-0.92c0.6-0.62,0.9-1.38,0.9-2.3V30.83c0-0.92-0.3-1.68-0.9-2.3
			C70.17,27.92,69.41,27.61,68.5,27.61z"/>
		<path class="st1" d="M108.36,33.94c0.85,0,1.55-0.27,2.11-0.82c0.56-0.55,0.84-1.22,0.84-2.03c0-0.85-0.28-1.55-0.84-2.11
			c-0.56-0.56-1.27-0.84-2.11-0.84h-3.75v-3.38c0-0.92-0.3-1.68-0.9-2.3c-0.6-0.62-1.34-0.92-2.22-0.92c-0.92,0-1.68,0.31-2.3,0.92
			c-0.62,0.62-0.92,1.38-0.92,2.3v3.38h-2.43h-5.91h-3.75v-3.38c0-0.92-0.3-1.68-0.9-2.3c-0.6-0.62-1.34-0.92-2.22-0.92
			c-0.91,0-1.68,0.31-2.3,0.92c-0.62,0.62-0.92,1.38-0.92,2.3v3.38h-2.43c-0.85,0-1.55,0.27-2.11,0.82
			c-0.56,0.55-0.84,1.22-0.84,2.03c0,0.85,0.28,1.55,0.84,2.11c0.56,0.56,1.27,0.84,2.11,0.84h2.43v14.57
			c0,3.03,0.75,5.01,2.24,5.94s3.34,1.4,5.52,1.4c1.3,0,2.47-0.33,3.51-0.98c1.04-0.65,1.56-1.45,1.56-2.4c0-0.77-0.2-1.4-0.61-1.87
			c-0.41-0.48-0.85-0.71-1.35-0.71c-0.39,0-0.79,0.09-1.21,0.26c-0.49,0.14-0.88,0.21-1.16,0.21c-0.67,0-1.2-0.17-1.58-0.5
			c-0.39-0.33-0.58-0.87-0.58-1.61V33.94h3.75h5.91h2.43v14.57c0,3.03,0.75,5.01,2.24,5.94s3.33,1.4,5.52,1.4
			c1.3,0,2.47-0.33,3.51-0.98c1.04-0.65,1.56-1.45,1.56-2.4c0-0.77-0.2-1.4-0.61-1.87c-0.4-0.48-0.85-0.71-1.35-0.71
			c-0.39,0-0.79,0.09-1.21,0.26c-0.49,0.14-0.88,0.21-1.16,0.21c-0.67,0-1.2-0.17-1.58-0.5c-0.39-0.33-0.58-0.87-0.58-1.61V33.94
			H108.36z"/>
		<path class="st1" d="M134.92,27.61c-0.92,0-1.67,0.31-2.27,0.92c-0.6,0.62-0.9,1.38-0.9,2.3v13.52c0,2.01-0.5,3.55-1.51,4.62
			c-1,1.07-2.42,1.61-4.25,1.61c-1.87,0-3.28-0.48-4.25-1.45c-0.97-0.97-1.45-2.56-1.45-4.78V30.83c0-0.92-0.3-1.68-0.9-2.3
			c-0.6-0.62-1.36-0.92-2.27-0.92s-1.67,0.31-2.27,0.92c-0.6,0.62-0.9,1.38-0.9,2.3v15.42c0,1.97,0.39,3.72,1.16,5.25
			c0.77,1.53,1.87,2.73,3.27,3.59s3.03,1.29,4.86,1.29c3.87,0,6.72-1.14,8.55-3.43v0.53c0,2.6-0.59,4.44-1.77,5.52
			c-1.18,1.07-3.02,1.61-5.52,1.61c-0.74,0-1.45-0.08-2.14-0.24c-0.69-0.16-1.34-0.36-1.95-0.61c-0.62-0.25-1.05-0.42-1.29-0.53
			c-0.32-0.11-0.65-0.16-1-0.16c-0.6,0-1.15,0.2-1.66,0.61c-0.51,0.4-0.87,0.99-1.08,1.77c-0.11,0.32-0.16,0.6-0.16,0.84
			c0,1.3,0.86,2.32,2.59,3.06c0.77,0.32,1.79,0.57,3.04,0.77s2.47,0.29,3.67,0.29c4.12,0,7.41-1.05,9.88-3.14
			c2.46-2.09,3.7-5.43,3.7-10.01V30.83c0-0.92-0.3-1.68-0.9-2.3C136.6,27.92,135.84,27.61,134.92,27.61z"/>
		<path class="st1" d="M147.86,27.61c-0.92,0-1.67,0.31-2.27,0.92c-0.6,0.62-0.9,1.38-0.9,2.3v23.71c0,1.48-0.15,2.63-0.45,3.46
			c-0.3,0.83-1.01,1.42-2.14,1.77c-1.79,0.53-2.69,1.5-2.69,2.9v0.58c0,0.84,0.28,1.55,0.84,2.11c0.56,0.56,1.27,0.84,2.11,0.84
			c1.62,0,3.09-0.4,4.41-1.21c1.32-0.81,2.36-1.95,3.12-3.43c0.76-1.48,1.13-3.2,1.13-5.17V30.83c0-0.92-0.3-1.68-0.9-2.3
			C149.53,27.92,148.77,27.61,147.86,27.61z"/>
		<path class="st1" d="M147.81,17.89c-1.16,0-2.01,0.19-2.54,0.58c-0.53,0.39-0.79,1.07-0.79,2.06v1c0,0.99,0.25,1.67,0.74,2.06
			c0.49,0.39,1.34,0.58,2.54,0.58c1.23,0,2.1-0.18,2.61-0.55s0.77-1.06,0.77-2.09v-1c0-0.99-0.25-1.67-0.74-2.06
			C149.9,18.09,149.04,17.89,147.81,17.89z"/>
		<path class="st1" d="M175.29,28.95c-2.2-1.25-4.62-1.87-7.26-1.87c-2.68,0-5.11,0.63-7.29,1.87c-2.18,1.25-3.91,2.99-5.17,5.23
			c-1.27,2.24-1.9,4.76-1.9,7.58c0,2.82,0.63,5.34,1.9,7.58c1.27,2.24,2.99,3.97,5.17,5.2c2.18,1.23,4.61,1.85,7.29,1.85
			c2.64,0,5.06-0.62,7.26-1.85c2.2-1.23,3.93-2.96,5.2-5.2c1.27-2.24,1.9-4.76,1.9-7.58c0-2.82-0.63-5.34-1.9-7.58
			C179.22,31.95,177.49,30.2,175.29,28.95z M174.97,46.35c-0.72,1.34-1.69,2.38-2.9,3.12s-2.56,1.11-4.04,1.11s-2.82-0.37-4.04-1.11
			s-2.18-1.78-2.9-3.12c-0.72-1.34-1.08-2.87-1.08-4.59c0-1.72,0.36-3.26,1.08-4.62c0.72-1.35,1.69-2.4,2.9-3.14
			s2.56-1.11,4.04-1.11s2.82,0.37,4.04,1.11s2.18,1.79,2.9,3.14c0.72,1.36,1.08,2.9,1.08,4.62
			C176.05,43.48,175.69,45.02,174.97,46.35z"/>
		<path class="st1" d="M211.46,34.15c-1.14-2.22-2.7-3.95-4.67-5.2c-1.97-1.25-4.17-1.87-6.6-1.87c-1.65,0-3.24,0.4-4.75,1.19
			s-2.69,1.72-3.54,2.77V20c0-0.92-0.3-1.68-0.9-2.3c-0.6-0.62-1.36-0.92-2.27-0.92c-0.92,0-1.67,0.31-2.27,0.92
			c-0.6,0.62-0.9,1.38-0.9,2.3v33.16c0,0.95,0.3,1.73,0.9,2.32c0.6,0.6,1.36,0.9,2.27,0.9c0.91,0,1.67-0.31,2.27-0.92
			c0.6-0.62,0.9-1.38,0.9-2.3v-0.32c0.98,0.99,2.22,1.82,3.72,2.51c1.5,0.69,3.09,1.03,4.78,1.03c2.36,0,4.52-0.62,6.47-1.87
			c1.95-1.25,3.49-2.99,4.62-5.23c1.13-2.24,1.69-4.76,1.69-7.58C213.18,38.89,212.6,36.37,211.46,34.15z M204.94,48.04
			c-1.44,1.69-3.29,2.54-5.54,2.54c-2.29,0-4.15-0.84-5.6-2.54c-1.44-1.69-2.16-3.8-2.16-6.34s0.72-4.64,2.16-6.31
			s3.31-2.51,5.6-2.51c2.29,0,4.14,0.84,5.57,2.51s2.14,3.78,2.14,6.31S206.38,46.35,204.94,48.04z"/>
		<path class="st1" d="M234.14,43.34c-0.88-1.16-1.95-2.02-3.22-2.59c-1.27-0.56-2.85-1.11-4.75-1.64
			c-1.37-0.39-2.44-0.71-3.19-0.98c-0.76-0.26-1.38-0.63-1.88-1.11c-0.49-0.48-0.74-1.1-0.74-1.88c0-1.94,1.34-2.9,4.01-2.9
			c1.27,0,2.4,0.23,3.41,0.69c1,0.46,1.82,1.07,2.46,1.85c0.49,0.49,1.13,0.74,1.9,0.74c0.63,0,1.2-0.19,1.69-0.58
			c0.67-0.53,1-1.2,1-2.01c0-0.7-0.23-1.34-0.69-1.9c-1.02-1.3-2.43-2.29-4.22-2.96c-1.8-0.67-3.59-1-5.39-1
			c-1.76,0-3.42,0.34-4.99,1.03s-2.83,1.65-3.8,2.9c-0.97,1.25-1.45,2.72-1.45,4.41c0,1.94,0.47,3.48,1.4,4.62
			c0.93,1.14,2.04,2,3.33,2.56c1.29,0.56,2.95,1.13,4.99,1.69c1.97,0.53,3.42,1.06,4.36,1.58c0.93,0.53,1.4,1.3,1.4,2.32
			c0,1.97-1.37,3.01-4.12,3.12c-1.62,0-3-0.26-4.14-0.79c-1.14-0.53-2.24-1.34-3.3-2.43c-0.67-0.67-1.37-1-2.11-1
			c-0.53,0-1.04,0.16-1.53,0.48c-0.92,0.63-1.37,1.41-1.37,2.32c0,0.63,0.16,1.16,0.47,1.58c1.27,1.73,2.9,2.97,4.91,3.75
			c2.01,0.77,4.17,1.16,6.49,1.16c1.69,0,3.34-0.33,4.94-1s2.91-1.64,3.93-2.93c1.02-1.28,1.53-2.79,1.53-4.51
			C235.46,46.04,235.02,44.5,234.14,43.34z"/>
	</g>
	<circle class="st1" cx="252.29" cy="36.15" r="3.26"/>
	<g>
		<path class="st1" d="M269.03,24.71c0.49-2.28,0.26-5-0.63-7.67c-0.89-2.68-2.38-4.98-4.1-6.49c-0.87-2.99-3.14-5.49-6.21-6.52
			c-0.65-0.22-1.32-0.38-2-0.46c-2.1-0.24-4.11,0.21-5.82,1.17c-2.66-0.18-5.93,1.01-8.8,3.3c-4.73,3.77-6.61,9.02-4.28,11.94
			c0.55,0.68,1.28,1.19,2.18,1.49c2.36,0.79,5.57,0.12,8.59-1.71c1.07,1.14,2.42,2.03,3.98,2.55c0,0,0,0,0,0
			c0.65,0.22,1.3,0.43,1.98,0.5c0.81,0.09,1.62,0.08,2.4-0.02c1.43,3.24,3.73,5.73,6.12,6.53c1.06,0.36,2.08,0.38,3.04,0.06
			C267.26,28.8,268.52,27.14,269.03,24.71z M239.89,19.98c-0.61-0.2-1.09-0.53-1.45-0.98c-1.72-2.16,0.13-6.61,4.03-9.72
			c1.77-1.41,3.74-2.37,5.53-2.76c-1.41,1.47-2.36,3.4-2.61,5.58c-0.26,2.33,0.35,4.58,1.59,6.43
			C244.43,20.02,241.75,20.6,239.89,19.98z M264.99,27.89c-0.62,0.21-1.31,0.19-2.03-0.06c-1.91-0.64-3.79-2.67-5.04-5.37
			c1.12-0.34,2.18-0.88,3.13-1.64c2.03-1.61,3.31-3.92,3.6-6.5c0.04-0.35,0.05-0.71,0.05-1.06c0.9,1.18,1.67,2.64,2.21,4.27
			c0.8,2.4,1.01,4.83,0.58,6.84C267.09,26.24,266.2,27.48,264.99,27.89z"/>
		<path class="st1" d="M252.88,23.82L250.42,23c-4.32-1.44-6.68-6.16-5.24-10.48l2.2-6.59c1.44-4.32,6.16-6.68,10.48-5.24l2.45,0.82
			c4.32,1.44,6.68,6.16,5.24,10.48l-2.2,6.59C261.91,22.9,257.2,25.26,252.88,23.82z"/>
	</g>
</g>
</svg>
