<?xml version="1.0" encoding="utf-8"?>
<!-- Generator: Adobe Illustrator 23.0.2, SVG Export Plug-In . SVG Version: 6.00 Build 0)  -->
<svg version="1.1" id="Layer_1" xmlns="http://www.w3.org/2000/svg" xmlns:xlink="http://www.w3.org/1999/xlink" x="0px" y="0px"
	 viewBox="0 0 274 119" style="enable-background:new 0 0 274 119;" xml:space="preserve">
<style type="text/css">
	.st0{fill:#1C1C1B;}
</style>
<g>
	<path class="st0" d="M68.58,53.17c1.85-1.22,3.08-3.32,3.08-5.7c0-1.72-0.64-3.29-1.69-4.49l3.64,0.04
		c0.21,3.43,2.99,6.16,6.44,6.3l-0.3,1.32c-1.29-0.55-2.43-0.65-2.67-0.19c-0.28,0.54,0.74,1.62,2.27,2.43
		c0.36,0.19,0.71,0.34,1.05,0.46l-0.6,1.6c-0.15-0.18-0.31-0.37-0.47-0.55c-1.48-1.62-3.1-2.56-3.62-2.09
		c-0.52,0.47,0.26,2.17,1.74,3.8c0.25,0.27,0.5,0.53,0.75,0.76l-1.94,0.75c-0.02-0.28-0.05-0.57-0.1-0.87
		c-0.31-1.9-1.12-3.34-1.82-3.23c-0.7,0.11-1.02,1.74-0.71,3.64c0.05,0.31,0.11,0.61,0.19,0.89l-2.08-0.38
		c1.05-2.28,1.22-4.34,0.3-4.86c-0.74-0.43-1.99,0.26-3.22,1.63L68.58,53.17z"/>
	<path class="st0" d="M51.17,66.4c1.39,7.25,11.7,7.41,13.28,0.36l1.21,0.56c-2.28,3.52,0.63,3.5,2.79-0.19l1.43,0.87
		c-5.58,3.11-3.5,5.79,1.69,1.86l0.42,2.06c-2.19-0.26-4.4,0.31-4.41,1.16c-0.01,0.83,2.09,1.49,4.33,1.32l-0.7,1.98
		c-4.18-2.9-6.6-1.42-3.69,2.3l-1.24,0.08c-1.61-3.84-6.54-5.82-11.13-2.54"/>
	<path class="st0" d="M53.17,25.92c-1.67-3.34-5.79-4.77-9.22-3.01l-0.81-0.92c4.7-0.89,3.81-3.62-1.28-4.17l0.78-1.99
		c1.55,1.61,3.62,2.54,4.16,1.89c0.54-0.64-0.71-2.5-2.52-3.75l1.63-1.34c0.51,2.55,1.83,4.78,2.63,4.54
		c0.75-0.23,0.7-2.52-0.15-4.85l1.7,0.17c-0.89,4.2,1.32,6.39,1.95,2.16l1.23,0.45c-2.07,3.96,0.25,8.82,4.64,9.7"/>
	<path class="st0" d="M36.1,71.05"/>
	<circle class="st0" cx="72.53" cy="59.24" r="1.76"/>
	<circle class="st0" cx="67.07" cy="54.22" r="1.76"/>
	<circle class="st0" cx="77.78" cy="58.55" r="1.76"/>
	<circle class="st0" cx="81.24" cy="54.58" r="1.49"/>
	<circle class="st0" cx="81.16" cy="50.24" r="1.49"/>
	<path class="st0" d="M72.42,77.55c-2.23-0.65-1.24-4.02,0.99-3.37c0.93,0.27,1.46,1.25,1.19,2.18
		C74.32,77.29,73.35,77.82,72.42,77.55z"/>
	<path class="st0" d="M66.52,82.05c-0.93-0.27-1.46-1.25-1.19-2.18c0.65-2.23,4.02-1.24,3.37,0.99
		C68.43,81.79,67.45,82.33,66.52,82.05z"/>
	<path class="st0" d="M72.61,72.25c-2.21-0.72-1.11-4.06,1.1-3.34c0.92,0.3,1.42,1.3,1.12,2.22C74.52,72.05,73.53,72.56,72.61,72.25
		z"/>
	<path class="st0" d="M69.35,65.08c0.77-0.28,1.63,0.12,1.9,0.89s-0.12,1.63-0.89,1.9C68.51,68.54,67.5,65.75,69.35,65.08z"/>
	<path class="st0" d="M65.07,64.39c0.77-0.28,1.63,0.12,1.9,0.89c0.28,0.77-0.12,1.63-0.89,1.9C64.23,67.86,63.21,65.06,65.07,64.39
		z"/>
	<path class="st0" d="M54.01,74.7"/>
	<path class="st0" d="M40.21,17.91c0.88,0.41,1.92,0.02,2.33-0.86c0.97-2.11-2.21-3.58-3.19-1.47
		C38.95,16.46,39.33,17.5,40.21,17.91z"/>
	<path class="st0" d="M41.69,25.18c0.88,0.41,1.92,0.02,2.33-0.86c0.97-2.11-2.21-3.58-3.19-1.47
		C40.43,23.73,40.81,24.77,41.69,25.18z"/>
	<path class="st0" d="M43.55,13.79c2.14,0.9,3.51-2.33,1.37-3.24c-0.89-0.38-1.92,0.04-2.3,0.93
		C42.24,12.38,42.66,13.41,43.55,13.79z"/>
	<path class="st0" d="M50.73,10.53c-0.4-0.72-1.3-0.98-2.02-0.58c-0.72,0.4-0.98,1.3-0.58,2.02C49.08,13.69,51.68,12.25,50.73,10.53
		z"/>
	<path class="st0" d="M53.82,14.85c0.72-0.4,0.98-1.3,0.58-2.02s-1.3-0.98-2.02-0.58C50.66,13.2,52.1,15.8,53.82,14.85z"/>
	<circle class="st0" cx="13.43" cy="83.25" r="1.76"/>
	<path class="st0" d="M22.3,83.84c0.53-0.81,0.31-1.9-0.5-2.43c-1.94-1.28-3.87,1.65-1.93,2.93C20.68,84.87,21.77,84.65,22.3,83.84z
		"/>
	<path class="st0" d="M10.74,77.88c-0.83-0.51-1.91-0.25-2.42,0.58c-0.51,0.83-0.25,1.91,0.58,2.42
		C10.88,82.09,12.72,79.1,10.74,77.88z"/>
	<path class="st0" d="M9.17,72.72C8.4,73,8.01,73.86,8.29,74.63c0.29,0.77,1.14,1.16,1.91,0.88C12.05,74.82,11.01,72.03,9.17,72.72z
		"/>
	<path class="st0" d="M13.9,70.3c-0.29-0.77-1.14-1.16-1.91-0.88c-0.77,0.29-1.16,1.14-0.88,1.91C11.8,73.18,14.59,72.14,13.9,70.3z
		"/>
	<path class="st0" d="M19.36,81.9c-0.19-4.76-3.01-4.25-4.31,0.68l-1.88-1.04c0.25-0.18,0.51-0.38,0.76-0.6
		c3.86-3.38,1.26-5.12-2.36-1.29l-0.98-1.85c2.53-0.13,4.94-1.09,4.82-1.92c-0.11-0.79-2.43-1.06-4.79-0.58l0.5-1.61
		c4.05,1.46,6.35-0.42,2.31-1.64l0.59-1.18c2.36,1.76,5.53,1.75,7.86,0.13c3.67-3.59,13.1-5.76,13.1-5.76s-0.87-8.37-0.3-15.82
		c1.75-22.65,31.16-36.29,51.7-11.9c5.59,6.64,14.75,10.46,24.24,9.18c7.48-1.01,11.86-6.83,11.86-13.07
		c-0.23-7.12-6.52-12.78-13.26-13.09l-0.47,0.01c9.43-0.2,16.65,7.28,16.43,16.43c0,9.08-9.81,17.19-18.89,17.19
		c-19.96,0-21.06-11.17-34.64-11.17c-21.03,0-28.47,27.81-10.54,38.46l0.46,0.14c6.6,2.21,7.66,7.95,8.01,8.93
		c1.98,5.51,2.91,16.55,1.57,18.16c-1.52,1.82-23.4-5.32-25.07-7.29c-1.67-1.98-1.67-10.42-1.67-10.42
		c-3.77-6.07-8.31-19.92-8.31-19.92c-4.61-0.94-9.67-0.03-13.84,3.02c-1.48,1.08-2.86,4.09-1.9,7.1L19.36,81.9z M59.56,99.55
		c-2.34-0.8-4.59-0.4-5.03,0.89s1.09,2.99,3.42,3.8c2.34,0.8,4.59,0.4,5.03-0.89S61.89,100.35,59.56,99.55z"/>
	<line class="st0" x1="53.17" y1="25.92" x2="57.9" y2="24.81"/>
	<polyline class="st0" points="51.17,66.4 51.35,68.46 52.87,73.13 55.14,76.22 	"/>
</g>
<g>
	<path d="M190.78,51.88c-2.1-0.12-4.08-0.06-7.62-0.06c-1.08,0-2.82,0.06-4.74,0.06h-0.84c-0.96,0-1.14,0.3-1.14-0.3
		c0.12-5.1,0.18-9,0.18-13.68c0-4.74-0.06-6.36-0.18-10.98c0-0.6,0.6-0.24,1.14-0.24c0.84,0,1.14-0.3,1.14,0.24
		c-0.12,4.62-0.18,6.24-0.18,10.98c0,4.5,0.06,8.16,0.24,13.02c1.44-0.06,3.36-0.18,4.26-0.24c3.6-0.24,5.22-0.36,7.44-0.48
		c0.24,0,0.18,0.18,0.3,0.96C190.9,51.82,190.96,51.82,190.78,51.88z"/>
	<path d="M214.54,39.28c0,9.06-4.68,13.62-10.92,13.62c-6.24,0-10.92-4.56-10.92-13.62c0-8.52,4.68-13.26,10.92-13.26
		C209.86,26.02,214.54,30.76,214.54,39.28z M212.26,39.28c0-8.1-3.84-12-8.64-12s-8.64,3.9-8.64,12c0,8.64,3.84,12.36,8.64,12.36
		S212.26,47.92,212.26,39.28z"/>
	<path d="M238.72,29.8c-0.12,0.3-0.3,0.54-0.72,0.72c-0.3,0.12-0.66-0.06-0.9-0.36c-1.44-1.68-2.34-2.52-4.02-2.52
		c-4.56,0-7.98,6.18-7.98,17.58h-0.06c0.06,1.92,0.12,3.6,0.18,6.36c0,0.6-0.3,0.24-1.14,0.24c-0.54,0-1.14,0.42-1.14-0.24
		c0.12-4.56,0.18-6.18,0.18-10.92c0-4.68-0.06-8.58-0.18-13.68c0-0.6,0.18-0.3,1.14-0.3s1.2-0.36,1.2,0.3
		c-0.06,2.1-0.12,3.96-0.12,5.76c1.68-4.32,4.44-6.36,7.74-6.36c2.4,0,4.02,1.02,5.46,2.58C238.84,29.44,238.78,29.62,238.72,29.8z"
		/>
	<path d="M260.38,47.98c-2.34,3.3-5.22,4.56-8.58,4.56c-5.64,0-10.02-4.56-10.02-13.26c0-8.52,4.98-13.02,10.02-13.02
		c5.04,0,7.86,2.94,7.86,6.36c0,4.38-4.44,7.14-9.42,7.56c-1.62,0.12-3.48-0.12-4.08-0.24c-0.36-0.06-0.24-0.54-0.24-0.84
		c0-0.3-0.12-0.9,0.24-0.78c1.38,0.48,2.52,0.72,4.2,0.6c4.08-0.36,7.02-2.52,7.02-6.36c0-3.12-1.86-5.04-5.58-5.04
		c-3.6,0-7.74,3.66-7.74,11.76c0,8.28,3.54,12,7.74,12c2.64,0,5.1-1.2,7.08-4.44c0.36-0.6,0.72-0.12,1.02,0.12
		C260.32,47.32,260.68,47.56,260.38,47.98z"/>
</g>
<g>
	<path d="M124.88,97.54c-2.34,3.3-5.22,4.56-8.58,4.56c-6.24,0-10.92-4.56-10.92-13.62c0-8.52,4.68-13.26,10.92-13.26
		c2.7,0,5.1,0.96,7.14,3.12c0.48,0.48,0,0.72-0.24,0.96c-0.42,0.36-0.66,0.66-1.02,0.18c-1.68-2.04-3.72-3-5.88-3
		c-4.8,0-8.64,3.9-8.64,12c0,8.64,3.84,12.36,8.64,12.36c2.64,0,5.1-1.2,7.08-4.44c0.36-0.66,0.72-0.12,1.2,0.24
		C124.94,96.94,125.18,97.12,124.88,97.54z"/>
	<path d="M144.62,101.2c-0.78,0.24-1.08,0.36-1.2,0c-0.54-1.56-0.72-3.24-0.72-4.5v-0.78c-1.74,2.64-3.78,5.58-7.8,5.64
		c-3.6,0.06-6.54-2.46-6.6-6.6c-0.06-4.62,4.08-8.7,10.5-8.7c0.96,0,1.62,0.12,2.22,0.24c0.18,0.06,0.24,0.24,0.18,0.42
		c0,0.18,0,0.3-0.06,0.42c0,0.24,0,0.78-0.18,0.78h-0.12c-0.78-0.3-1.32-0.6-2.64-0.54c-5.34,0.24-7.68,3.48-7.62,7.44
		c0.06,3.84,2.22,5.34,4.56,5.28c3.78-0.12,5.76-3.3,7.56-6.6c0.06-2.34,0.12-4.74,0.12-8.16c0-6.9-2.34-9.06-5.58-9.06
		c-2.52,0-4.38,1.32-5.46,2.82c-0.48,0.66-0.6,0.18-1.14-0.24c-0.36-0.3-0.54-0.42-0.24-0.72c1.2-1.38,3.3-3.12,7.02-3.12
		c5.82,0,7.32,4.02,7.26,10.32c-0.06,3.6,0.06,5.4,0.06,10.44c0,1.68,0.42,3.66,0.84,4.56C145.76,101.08,145.22,101.02,144.62,101.2
		z"/>
	<path d="M169.22,101.32c-0.9,0.18-1.86-0.12-2.82-1.08c-2.58-2.58-2.82-9.54-6.78-10.2c-0.36,0-1.38,0-1.92-0.12
		c-0.36-0.06-0.18-0.36-0.12-0.72c0.12-0.48,0.06-0.9,0.6-0.66c0.3,0.18,0.84,0.24,1.44,0.24c4.32,0,6.9-2.28,6.9-6.3
		c0-4.38-3.6-5.64-7.08-5.64c-1.26,0-2.46,0.12-3.42,0.3c-0.06,4.62-0.18,8.34-0.18,12.72c0,4.74,0.06,6.36,0.18,10.92
		c0,0.6-0.3,0.24-1.14,0.24c-0.54,0-1.14,0.42-1.08-0.24c0.06-4.56,0.12-6.18,0.12-10.92c0-4.68,0-7.92-0.18-13.26
		c0-0.42,1.2-0.9,5.7-0.9c4.92,0,9.36,1.98,9.36,6.78c0,4.08-2.82,6.78-7.14,7.44c4.62,1.8,4.68,9.96,8.52,10.14
		C171.26,100.06,170.66,101.08,169.22,101.32z"/>
	<path d="M191.9,101.32c-0.9,0.18-1.86-0.12-2.82-1.08c-2.58-2.58-2.82-9.54-6.78-10.2c-0.36,0-1.38,0-1.92-0.12
		c-0.36-0.06-0.18-0.36-0.12-0.72c0.12-0.48,0.06-0.9,0.6-0.66c0.3,0.18,0.84,0.24,1.44,0.24c4.32,0,6.9-2.28,6.9-6.3
		c0-4.38-3.6-5.64-7.08-5.64c-1.26,0-2.46,0.12-3.42,0.3c-0.06,4.62-0.18,8.34-0.18,12.72c0,4.74,0.06,6.36,0.18,10.92
		c0,0.6-0.3,0.24-1.14,0.24c-0.54,0-1.14,0.42-1.08-0.24c0.06-4.56,0.12-6.18,0.12-10.92c0-4.68,0-7.92-0.18-13.26
		c0-0.42,1.2-0.9,5.7-0.9c4.92,0,9.36,1.98,9.36,6.78c0,4.08-2.82,6.78-7.14,7.44c4.62,1.8,4.68,9.96,8.52,10.14
		C193.94,100.06,193.34,101.08,191.9,101.32z"/>
	<path d="M216.2,97.18c-2.34,3.3-5.22,4.56-8.58,4.56c-5.64,0-10.02-4.56-10.02-13.26c0-8.52,4.98-13.02,10.02-13.02
		c5.04,0,7.86,2.94,7.86,6.36c0,4.38-4.44,7.14-9.42,7.56c-1.62,0.12-3.48-0.12-4.08-0.24c-0.36-0.06-0.24-0.54-0.24-0.84
		c0-0.3-0.12-0.9,0.24-0.78c1.38,0.48,2.52,0.72,4.2,0.6c4.08-0.36,7.02-2.52,7.02-6.36c0-3.12-1.86-5.04-5.58-5.04
		c-3.6,0-7.74,3.66-7.74,11.76c0,8.28,3.54,12,7.74,12c2.64,0,5.1-1.2,7.08-4.44c0.36-0.6,0.72-0.12,1.02,0.12
		C216.14,96.52,216.5,96.76,216.2,97.18z"/>
	<path d="M239.6,79c-0.12,0.3-0.3,0.54-0.72,0.72c-0.3,0.12-0.66-0.06-0.9-0.36c-1.44-1.68-2.34-2.52-4.02-2.52
		c-4.56,0-7.98,6.18-7.98,17.58h-0.06c0.06,1.92,0.12,3.6,0.18,6.36c0,0.6-0.3,0.24-1.14,0.24c-0.54,0-1.14,0.42-1.14-0.24
		c0.12-4.56,0.18-6.18,0.18-10.92c0-4.68-0.06-8.58-0.18-13.68c0-0.6,0.18-0.3,1.14-0.3s1.2-0.36,1.2,0.3
		c-0.06,2.1-0.12,3.96-0.12,5.76c1.68-4.32,4.44-6.36,7.74-6.36c2.4,0,4.02,1.02,5.46,2.58C239.72,78.64,239.66,78.82,239.6,79z"/>
	<path d="M259.88,101.2c-0.78,0.24-1.08,0.36-1.2,0c-0.54-1.56-0.72-3.24-0.72-4.5v-0.78c-1.74,2.64-3.78,5.58-7.8,5.64
		c-3.6,0.06-6.54-2.46-6.6-6.6c-0.06-4.62,4.08-8.7,10.5-8.7c0.96,0,1.62,0.12,2.22,0.24c0.18,0.06,0.24,0.24,0.18,0.42
		c0,0.18,0,0.3-0.06,0.42c0,0.24,0,0.78-0.18,0.78h-0.12c-0.78-0.3-1.32-0.6-2.64-0.54c-5.34,0.24-7.68,3.48-7.62,7.44
		c0.06,3.84,2.22,5.34,4.56,5.28c3.78-0.12,5.76-3.3,7.56-6.6c0.06-2.34,0.12-4.74,0.12-8.16c0-6.9-2.34-9.06-5.58-9.06
		c-2.52,0-4.38,1.32-5.46,2.82c-0.48,0.66-0.6,0.18-1.14-0.24c-0.36-0.3-0.54-0.42-0.24-0.72c1.2-1.38,3.3-3.12,7.02-3.12
		c5.82,0,7.32,4.02,7.26,10.32c-0.06,3.6,0.06,5.4,0.06,10.44c0,1.68,0.42,3.66,0.84,4.56C261.02,101.08,260.48,101.02,259.88,101.2
		z"/>
</g>
</svg>
