<svg id="Layer_1" data-name="Layer 1" xmlns="http://www.w3.org/2000/svg" viewBox="0 0 1200 628"><defs><style>.cls-1{fill:#ed3226;}.cls-2{fill:#fff;}</style></defs><rect class="cls-1" x="-15.8" y="-12.83" width="1235.2" height="662.4"/><path class="cls-2" d="M205.5,228.44h-6.3V219.2h6.3V198.12H246v9.24H215.24V219.2h21.42v9.24H215.24v13.19H246v9.24H205.5Z"/><path class="cls-2" d="M262.38,198.12v36.37c0,4.71,1,6.39,3.61,7.9l4.71,2.69L266.83,252c-9-4.28-13.19-7.39-13.19-15.87v-38Z"/><path class="cls-2" d="M296.46,225.42c0-10.33,6.89-16.3,14.87-16.3,6.13,0,10.58,2.94,12.18,7.23h.17c1.59-4.29,6-7.23,12.18-7.23,8,0,14.86,6,14.86,16.3v25.45H342V225.5c0-4.87-3.11-7.64-6.72-7.64-4.2,0-7.31,2.52-7.31,8.82v24.19h-8.74V226.68c0-6.3-3.1-8.82-7.3-8.82-3.62,0-6.72,2.77-6.72,7.64v25.37h-8.74Z"/><path class="cls-2" d="M392,245.92h-.17c-2.77,3.69-7.81,6-13.36,6-13.35,0-21.08-10.92-21.08-21.42,0-10,8.31-21.42,21.5-21.42,6.05,0,10.67,2.61,12.94,6H392v-4.95h8.73v40.65H392Zm-12.44-2.19a13.19,13.19,0,1,0-12.93-13.19A13.07,13.07,0,0,0,379.6,243.73Z"/><path class="cls-2" d="M406.75,210.22h4.95V199.46l8.74-2.43v13.19h7v8.23h-7v16c0,4.37,1,6.39,3.61,7.9l4.71,2.69L424.89,252c-9-4.28-13.19-7.39-13.19-15.87V218.45h-4.95Z"/><path class="cls-2" d="M473.41,242.05c-4.87,6.13-11.59,9.83-18.9,9.91-14.19,0-22.43-10.66-22.43-21.42s8.24-21.42,22.43-21.42c8.49,0,21.09,7,21.09,22.85v1.6H441.83c.5,6.21,6.3,10.67,12.43,10.67,4.7,0,8.74-2.27,11.76-6.3Zm-8.06-15.71c-1.85-6.21-6.47-9.49-12-9.49s-10.08,3.45-11.51,9.49Z"/><path class="cls-2" d="M483.43,210.22h8.23v4.45h.17a8.7,8.7,0,0,1,8-5.55,9,9,0,0,1,4.79,1.26L501.49,219a6.44,6.44,0,0,0-3.28-1.18,6,6,0,0,0-6,6.13v26.88h-8.73Z"/><path class="cls-2" d="M513,197a4.87,4.87,0,1,1-4.88,4.87A4.88,4.88,0,0,1,513,197Zm-4.37,13.19h8.73v40.65h-8.73Z"/><path class="cls-2" d="M559,245.92h-.17c-2.77,3.69-7.81,6-13.36,6-13.35,0-21.08-10.92-21.08-21.42,0-10,8.31-21.42,21.5-21.42,6.05,0,10.67,2.61,12.94,6H559v-4.95h8.73v40.65H559Zm-12.44-2.19a13.19,13.19,0,1,0-12.93-13.19A13.07,13.07,0,0,0,546.56,243.73Z"/><path class="cls-2" d="M586.31,198.12v36.37c0,4.71,1,6.39,3.61,7.9l4.7,2.69L590.76,252c-9-4.28-13.19-7.39-13.19-15.87v-38Z"/><path class="cls-2" d="M652,245.92h-.17c-2.77,3.69-7.81,6-13.35,6-13.36,0-21.09-10.92-21.09-21.42,0-10,8.32-21.42,21.51-21.42,6,0,10.67,2.61,12.93,6H652v-17h8.74v52.75H652Zm-12.43-2.19a13.19,13.19,0,1,0-12.94-13.19A13.07,13.07,0,0,0,639.54,243.73Z"/><path class="cls-2" d="M709.36,242.05c-4.88,6.13-11.6,9.83-18.9,9.91C676.26,252,668,241.3,668,230.54s8.23-21.42,22.43-21.42c8.48,0,21.08,7,21.08,22.85v1.6H677.77c.51,6.21,6.3,10.67,12.43,10.67,4.71,0,8.74-2.27,11.76-6.3Zm-8.07-15.71c-1.85-6.21-6.47-9.49-12-9.49s-10.08,3.45-11.51,9.49Z"/><path class="cls-2" d="M737.67,210.22h5V199.46l8.74-2.43v13.19h7v8.23h-7v16c0,4.37,1,6.39,3.61,7.9l4.71,2.69L755.81,252c-9-4.28-13.19-7.39-13.19-15.87V218.45h-5Z"/><path class="cls-2" d="M765.36,210.22h8.23v4.45h.17a8.69,8.69,0,0,1,8-5.55,9,9,0,0,1,4.78,1.26l-3.1,8.66a6.44,6.44,0,0,0-3.28-1.18,6,6,0,0,0-6,6.13v26.88h-8.73Z"/><path class="cls-2" d="M821.93,245.92h-.17c-2.77,3.69-7.81,6-13.35,6-13.36,0-21.09-10.92-21.09-21.42,0-10,8.32-21.42,21.51-21.42,6,0,10.67,2.61,12.93,6h.17v-4.95h8.74v40.65h-8.74Zm-12.43-2.19a13.19,13.19,0,1,0-12.94-13.19A13.07,13.07,0,0,0,809.5,243.73Z"/><path class="cls-2" d="M838.66,198.12h8.74v17h.16c2.1-3.36,7.56-6,13.28-6,10.58,0,21.16,7.82,21.16,21.42S871.42,252,860.84,252c-5.72,0-11.18-2.68-13.28-6h-.16v5h-8.74Zm21.42,19.24c-7.31,0-12.68,5.62-12.68,13.18s5.37,13.19,12.68,13.19,12.68-5.63,12.68-13.19S867.39,217.36,860.08,217.36Z"/><path class="cls-2" d="M920.24,245.92h-.17c-2.77,3.69-7.81,6-13.36,6-13.35,0-21.08-10.92-21.08-21.42,0-10,8.31-21.42,21.5-21.42,6,0,10.67,2.61,12.94,6h.17v-4.95H929v40.65h-8.73Zm-12.44-2.19a13.19,13.19,0,1,0-12.93-13.19A13.07,13.07,0,0,0,907.8,243.73Z"/><path class="cls-2" d="M938.81,210.22h8.74v41.07c0,7.14-3.61,12-12.85,16.21l-3.53-7c6.05-3.19,7.64-5,7.64-9.83ZM943.18,197a4.87,4.87,0,1,1-4.87,4.87A4.87,4.87,0,0,1,943.18,197Z"/><path class="cls-2" d="M977,209.12c14.2,0,22.43,10.67,22.43,21.42S991.24,252,977,252s-22.43-10.66-22.43-21.42S962.84,209.12,977,209.12Zm0,34.61a13.19,13.19,0,1,0-13.19-13.19A13,13,0,0,0,977,243.73Z"/><path class="cls-2" d="M185.18,282.12v36.37c0,4.71,1,6.39,3.62,7.9l4.7,2.69L189.64,336c-9-4.28-13.19-7.39-13.19-15.87v-38Z"/><path class="cls-2" d="M217.68,293.12c14.2,0,22.43,10.67,22.43,21.42S231.88,336,217.68,336s-22.42-10.66-22.42-21.42S203.49,293.12,217.68,293.12Zm0,34.61a13.19,13.19,0,1,0-13.18-13.19A12.95,12.95,0,0,0,217.68,327.73Z"/><path class="cls-2" d="M280,299.17h.16a16.7,16.7,0,0,1,13.36-6.05c13.36,0,21.08,10.92,21.08,21.42,0,10-8.31,21.42-21.5,21.42-6.05,0-10.67-2.6-12.94-6H280v19h-8.74V294.22H280Zm12.43,2.19a13.19,13.19,0,1,0,12.93,13.18A13.07,13.07,0,0,0,292.45,301.36Z"/><path class="cls-2" d="M341.68,293.12c14.2,0,22.43,10.67,22.43,21.42S355.88,336,341.68,336s-22.42-10.66-22.42-21.42S327.49,293.12,341.68,293.12Zm0,34.61a13.19,13.19,0,1,0-13.18-13.19A12.95,12.95,0,0,0,341.68,327.73Z"/><path class="cls-2" d="M370.6,294.22h8.74v5.12h.16c2.44-3.78,6.89-6.22,12.44-6.22,8.56,0,15.79,7.14,15.79,17.22v24.53H399V312.28c0-7.4-3.86-10.42-9.66-10.42-5.63,0-10,3.61-10,10.25v22.76H370.6Z"/><path class="cls-2" d="M455.9,326.05c-4.88,6.13-11.6,9.83-18.9,9.91-14.2,0-22.43-10.66-22.43-21.42s8.23-21.42,22.43-21.42c8.48,0,21.08,7,21.08,22.85v1.6H424.31c.51,6.21,6.3,10.67,12.43,10.67,4.71,0,8.74-2.27,11.76-6.3Zm-8.07-15.71c-1.85-6.21-6.47-9.49-12-9.49s-10.08,3.45-11.51,9.49Z"/><path class="cls-2" d="M469,322.78c3.11,3.36,8.23,6,12.77,6,5,0,8.06-2.86,8.06-5.12,0-2.69-2.1-4.12-5.29-4.71l-5-.92c-11.42-2.1-14.61-5.8-14.61-11.59,0-6.89,5.79-13.28,16-13.28,5.63,0,10.58,1.68,16.13,5.63l-5,6.13c-4.28-3.61-8.06-4.53-10.92-4.53-3.78,0-7.48,1.85-7.48,5.12,0,2.44,1.94,3.7,5.3,4.29l8.82,1.68c7.22,1.34,10.75,4.78,10.75,10.83S493.72,336,481.37,336c-6.89,0-12.77-2.43-18.31-7.14Z"/><path class="cls-2" d="M525.22,294.22h5V283.46l8.74-2.43v13.19h7v8.23h-7v16c0,4.37,1,6.39,3.61,7.9l4.7,2.69L543.37,336c-9-4.28-13.19-7.39-13.19-15.87V302.45h-5Z"/><path class="cls-2" d="M553.92,294.22h8.74V317c0,6,4.36,10.25,9.82,10.25s9.83-4.29,9.83-10.25V294.22h8.74v23.52c0,11.42-8.91,18.22-18.57,18.22s-18.56-6.8-18.56-18.22Zm12-10.5,16.47-4.2v6l-16.47,4.2Z"/><path class="cls-2" d="M603.26,326.22H612V336l-8.74,5.88Z"/><path class="cls-2" d="M656.82,282.12v36.37c0,4.71,1,6.39,3.62,7.9l4.7,2.69L661.28,336c-9-4.28-13.19-7.39-13.19-15.87v-38Z"/><path class="cls-2" d="M701.5,329.92h-.16c-2.78,3.69-7.82,6-13.36,6-13.36,0-21.08-10.92-21.08-21.42,0-10,8.31-21.42,21.5-21.42,6.05,0,10.67,2.61,12.94,6.05h.16v-4.95h8.74v40.65H701.5Zm-12.43-2.19a13.19,13.19,0,1,0-12.93-13.19A13.07,13.07,0,0,0,689.07,327.73Z"/><path class="cls-2" d="M723,322.78c3.11,3.36,8.23,6,12.77,6,5,0,8.06-2.86,8.06-5.12,0-2.69-2.1-4.12-5.29-4.71l-5-.92c-11.42-2.1-14.61-5.8-14.61-11.59,0-6.89,5.79-13.28,16-13.28,5.63,0,10.58,1.68,16.13,5.63l-5,6.13c-4.28-3.61-8.06-4.53-10.92-4.53-3.78,0-7.48,1.85-7.48,5.12,0,2.44,1.94,3.7,5.3,4.29l8.82,1.68c7.22,1.34,10.75,4.78,10.75,10.83S747.72,336,735.37,336c-6.89,0-12.77-2.43-18.31-7.14Z"/><path class="cls-2" d="M818.37,330.34c0,13.44-10.25,21.16-21.25,21.16A22.34,22.34,0,0,1,780,343.44l7.14-5.21a12.69,12.69,0,0,0,9.58,5c8.9,0,13.44-5.79,13.44-12v-2.69a17.36,17.36,0,0,1-13.86,6.3c-10.5,0-19.74-7.89-19.74-20.75,0-13.35,9.91-21,20.74-21,5.46,0,9.83,2.1,12.69,5.88h.17v-4.78h8.23ZM798,326.64c7.06,0,12.1-5.63,12.1-12.6a12.19,12.19,0,1,0-24.36-.08C785.78,321,790.65,326.64,798,326.64Z"/><path class="cls-2" d="M859.46,329.92h-.16c-2.78,3.69-7.82,6-13.36,6-13.36,0-21.08-10.92-21.08-21.42,0-10,8.31-21.42,21.5-21.42,6,0,10.67,2.61,12.94,6.05h.16v-4.95h8.74v40.65h-8.74ZM847,327.73a13.19,13.19,0,1,0-12.93-13.19A13.07,13.07,0,0,0,847,327.73Z"/><path class="cls-2" d="M877.2,294.22h8.74v5.12h.16c2.44-3.78,6.89-6.22,12.44-6.22,8.56,0,15.79,7.14,15.79,17.22v24.53h-8.74V312.28c0-7.4-3.86-10.42-9.66-10.42-5.63,0-10,3.61-10,10.25v22.76H877.2Z"/><path class="cls-2" d="M955.1,329.92h-.16c-2.78,3.69-7.82,6-13.36,6-13.36,0-21.08-10.92-21.08-21.42,0-10,8.31-21.42,21.5-21.42,6,0,10.67,2.61,12.94,6.05h.16v-4.95h8.74v40.65H955.1Zm-12.43-2.19a13.19,13.19,0,1,0-12.93-13.19A13.07,13.07,0,0,0,942.67,327.73Z"/><path class="cls-2" d="M976.62,322.78c3.11,3.36,8.23,6,12.77,6,5,0,8.06-2.86,8.06-5.12,0-2.69-2.1-4.12-5.29-4.71l-5-.92c-11.42-2.1-14.61-5.8-14.61-11.59,0-6.89,5.79-13.28,16-13.28,5.63,0,10.58,1.68,16.13,5.63l-5,6.13c-4.28-3.61-8.06-4.53-10.92-4.53-3.78,0-7.48,1.85-7.48,5.12,0,2.44,1.94,3.7,5.3,4.29l8.82,1.68c7.22,1.34,10.75,4.78,10.75,10.83S1001.32,336,989,336c-6.89,0-12.77-2.43-18.31-7.14Z"/><path class="cls-2" d="M1017.55,293.12a5.13,5.13,0,1,1-5.12,5.13A5.1,5.1,0,0,1,1017.55,293.12Zm0,32.6a5.12,5.12,0,1,1-5.12,5.12A5.09,5.09,0,0,1,1017.55,325.72Z"/><path class="cls-2" d="M431.06,378.22h8.74v5.12H440c2.44-3.78,6.89-6.22,12.44-6.22,8.56,0,15.79,7.14,15.79,17.22v24.53h-8.74V396.28c0-7.4-3.86-10.42-9.66-10.42-5.63,0-10,3.61-10,10.25v22.76h-8.74Z"/><path class="cls-2" d="M498.46,377.12c14.2,0,22.43,10.67,22.43,21.42S512.66,420,498.46,420,476,409.3,476,398.54,484.27,377.12,498.46,377.12Zm0,34.61a13.19,13.19,0,1,0-13.18-13.19A12.95,12.95,0,0,0,498.46,411.73Z"/><path class="cls-2" d="M531.16,406.78c3.11,3.36,8.23,6,12.77,6,5,0,8.06-2.86,8.06-5.12,0-2.69-2.1-4.12-5.29-4.71l-5-.92c-11.42-2.1-14.61-5.8-14.61-11.59,0-6.89,5.79-13.28,16-13.28,5.63,0,10.58,1.68,16.13,5.63l-5,6.13c-4.28-3.61-8.06-4.53-10.92-4.53-3.78,0-7.48,1.85-7.48,5.12,0,2.44,1.94,3.7,5.3,4.29l8.82,1.68c7.22,1.34,10.75,4.78,10.75,10.83S555.86,420,543.51,420c-6.89,0-12.77-2.43-18.31-7.14Z"/><path class="cls-2" d="M587.46,377.12c14.2,0,22.43,10.67,22.43,21.42S601.66,420,587.46,420,565,409.3,565,398.54,573.27,377.12,587.46,377.12Zm0,34.61a13.19,13.19,0,1,0-13.18-13.19A12.95,12.95,0,0,0,587.46,411.73Z"/><path class="cls-2" d="M614.36,378.22h5V367.46l8.74-2.43v13.19h7v8.23h-7v16c0,4.37,1,6.39,3.61,7.9l4.7,2.69L632.51,420c-9-4.28-13.19-7.39-13.19-15.87V386.45h-5Z"/><path class="cls-2" d="M643.06,378.22h8.23v4.45h.17a8.7,8.7,0,0,1,8-5.55,9,9,0,0,1,4.79,1.26L661.12,387a6.44,6.44,0,0,0-3.28-1.18,6,6,0,0,0-6,6.13v26.88h-8.74Z"/><path class="cls-2" d="M687.46,377.12c14.2,0,22.43,10.67,22.43,21.42S701.66,420,687.46,420,665,409.3,665,398.54,673.27,377.12,687.46,377.12Zm0,34.61a13.19,13.19,0,1,0-13.18-13.19A12.95,12.95,0,0,0,687.46,411.73Z"/><path class="cls-2" d="M720.16,406.78c3.11,3.36,8.23,6,12.77,6,5,0,8.06-2.86,8.06-5.12,0-2.69-2.1-4.12-5.29-4.71l-5-.92c-11.42-2.1-14.61-5.8-14.61-11.59,0-6.89,5.79-13.28,16-13.28,5.63,0,10.58,1.68,16.13,5.63l-5,6.13c-4.28-3.61-8.06-4.53-10.92-4.53-3.78,0-7.48,1.85-7.48,5.12,0,2.44,1.94,3.7,5.3,4.29l8.82,1.68c7.22,1.34,10.75,4.78,10.75,10.83S744.86,420,732.51,420c-6.89,0-12.77-2.43-18.31-7.14Z"/><path class="cls-2" d="M762.77,409.72a5.12,5.12,0,1,1-5.12,5.12A5.09,5.09,0,0,1,762.77,409.72Z"/><path class="cls-2" d="M919.84,568.62a28.44,28.44,0,0,0-6.86-1.93,16.75,16.75,0,0,1-5.57-1.79,3.73,3.73,0,0,1,0-6.32,8.61,8.61,0,0,1,4.87-1.17,12.06,12.06,0,0,1,4.17.87A13.69,13.69,0,0,1,920,560.2a2.19,2.19,0,0,0,1.35.45,2.69,2.69,0,0,0,2-.87,2.8,2.8,0,0,0,.85-2,3.35,3.35,0,0,0-1.44-2.65,14.5,14.5,0,0,0-4.62-2.49,18,18,0,0,0-5.92-1,16,16,0,0,0-6.34,1.22,10.35,10.35,0,0,0-4.49,3.55,9.17,9.17,0,0,0-1.65,5.46q0,8.6,10.93,10.19A16.82,16.82,0,0,1,917,574a4,4,0,0,1,2,3.52,3.6,3.6,0,0,1-2,3.09,8.94,8.94,0,0,1-4.82,1.25,12.17,12.17,0,0,1-4.49-.75,14.82,14.82,0,0,1-3.9-2.39,2.63,2.63,0,0,0-1.69-.6,2.75,2.75,0,0,0-2.05.87,2.8,2.8,0,0,0-.85,2,3.51,3.51,0,0,0,1.35,2.65,14.83,14.83,0,0,0,5.24,3,20.85,20.85,0,0,0,6.39.9,15.78,15.78,0,0,0,6.34-1.27,11.42,11.42,0,0,0,4.72-3.64,9,9,0,0,0,1.77-5.52,9.79,9.79,0,0,0-1.3-5.37A8.66,8.66,0,0,0,919.84,568.62Z"/><path class="cls-2" d="M943.28,559.9a8.58,8.58,0,0,0-4.61,1.28,12,12,0,0,0-3.42,3.07v-11a3,3,0,0,0-.85-2.17,3.09,3.09,0,0,0-4.3,0,3,3,0,0,0-.85,2.17v30.86a3,3,0,0,0,.85,2.17,3.09,3.09,0,0,0,4.3,0,3,3,0,0,0,.85-2.17V571.29a5.9,5.9,0,0,1,1.57-4.22,5.68,5.68,0,0,1,4.37-1.67c1.79,0,3,.52,3.76,1.57a7.54,7.54,0,0,1,1.08,4.32v12.78a3,3,0,0,0,.85,2.17,3.08,3.08,0,0,0,4.29,0,3,3,0,0,0,.85-2.17V571.29q0-5.34-1.9-8.36T943.28,559.9Z"/><path class="cls-2" d="M960.16,551.22a4.09,4.09,0,0,0-2.4.55,2.24,2.24,0,0,0-.75,1.94v.95a2.35,2.35,0,0,0,.7,2,3.94,3.94,0,0,0,2.4.55,4.35,4.35,0,0,0,2.47-.53,2.28,2.28,0,0,0,.72-2v-.95a2.31,2.31,0,0,0-.7-1.94A4,4,0,0,0,960.16,551.22Z"/><path class="cls-2" d="M960.16,560.4a2.89,2.89,0,0,0-2.15.88,3,3,0,0,0-.85,2.17v20.62a3,3,0,0,0,.85,2.17,3.08,3.08,0,0,0,4.29,0,3,3,0,0,0,.85-2.17V563.45a3,3,0,0,0-.85-2.17A2.86,2.86,0,0,0,960.16,560.4Z"/><path class="cls-2" d="M997.85,566.4a2.76,2.76,0,0,0,2-.78,2.55,2.55,0,0,0,.79-1.92,2.72,2.72,0,0,0-2.79-2.8h-3.54v-3.19a3,3,0,0,0-.85-2.17,2.8,2.8,0,0,0-2.1-.88,3,3,0,0,0-3.05,3.05v3.19H976.88v-3.19a3,3,0,0,0-.85-2.17,2.77,2.77,0,0,0-2.1-.88,3,3,0,0,0-3,3.05v3.19h-2.3a2.72,2.72,0,0,0-2,.78,2.52,2.52,0,0,0-.8,1.92,2.73,2.73,0,0,0,2.79,2.8h2.3v13.77q0,4.3,2.12,5.62a9.73,9.73,0,0,0,5.22,1.32,6.08,6.08,0,0,0,3.32-.92,2.67,2.67,0,0,0,1.47-2.27,2.63,2.63,0,0,0-.57-1.77,1.68,1.68,0,0,0-1.27-.68,3.1,3.1,0,0,0-1.15.25,4.08,4.08,0,0,1-1.1.2,2.25,2.25,0,0,1-1.5-.47,1.92,1.92,0,0,1-.55-1.53V566.4h11.43v13.77q0,4.3,2.13,5.62a9.67,9.67,0,0,0,5.21,1.32,6.06,6.06,0,0,0,3.32-.92,2.68,2.68,0,0,0,1.48-2.27,2.64,2.64,0,0,0-.58-1.77,1.67,1.67,0,0,0-1.27-.68,3.1,3.1,0,0,0-1.15.25,4,4,0,0,1-1.1.2,2.26,2.26,0,0,1-1.5-.47,2,2,0,0,1-.54-1.53V566.4Z"/><path class="cls-2" d="M1023,560.4a2.9,2.9,0,0,0-2.15.88,3,3,0,0,0-.84,2.17v12.78a6.17,6.17,0,0,1-1.43,4.37,5.24,5.24,0,0,1-4,1.52,5.44,5.44,0,0,1-4-1.37c-.92-.92-1.38-2.42-1.38-4.52V563.45a3,3,0,0,0-.85-2.17,3.05,3.05,0,0,0-4.29,0,3,3,0,0,0-.85,2.17V578a10.84,10.84,0,0,0,1.1,5,8.23,8.23,0,0,0,3.1,3.4,8.56,8.56,0,0,0,4.59,1.22c3.66,0,6.35-1.08,8.09-3.24v.5q0,3.69-1.68,5.21t-5.21,1.53a9,9,0,0,1-2-.23,13.15,13.15,0,0,1-1.84-.57l-1.23-.5a2.94,2.94,0,0,0-.94-.15,2.5,2.5,0,0,0-1.58.57,3.13,3.13,0,0,0-1,1.68,2.53,2.53,0,0,0-.15.79c0,1.23.81,2.2,2.45,2.9a12.68,12.68,0,0,0,2.87.72,21.73,21.73,0,0,0,3.47.28q5.83,0,9.33-3t3.5-9.46V563.45a3,3,0,0,0-.85-2.17A2.89,2.89,0,0,0,1023,560.4Z"/><path class="cls-2" d="M1035.19,560.4a2.86,2.86,0,0,0-2.14.88,3,3,0,0,0-.85,2.17v22.42a10.09,10.09,0,0,1-.43,3.27,2.85,2.85,0,0,1-2,1.67c-1.7.5-2.54,1.41-2.54,2.74v.55a2.72,2.72,0,0,0,2.79,2.8,7.79,7.79,0,0,0,4.17-1.15,8,8,0,0,0,2.94-3.24,10.56,10.56,0,0,0,1.08-4.9V563.45a3,3,0,0,0-.85-2.17A2.89,2.89,0,0,0,1035.19,560.4Z"/><path class="cls-2" d="M1035.14,551.22a4.05,4.05,0,0,0-2.39.55,2.24,2.24,0,0,0-.75,1.94v.95a2.35,2.35,0,0,0,.7,2,3.91,3.91,0,0,0,2.39.55,4.33,4.33,0,0,0,2.47-.53,2.25,2.25,0,0,0,.73-2v-.95a2.34,2.34,0,0,0-.7-1.94A4.06,4.06,0,0,0,1035.14,551.22Z"/><path class="cls-2" d="M1061.13,561.68a14.19,14.19,0,0,0-13.76,0,13,13,0,0,0-4.89,4.94,15.16,15.16,0,0,0,0,14.33,12.84,12.84,0,0,0,4.89,4.92,14.47,14.47,0,0,0,13.76,0A12.69,12.69,0,0,0,1066,581a15.16,15.16,0,0,0,0-14.33A12.81,12.81,0,0,0,1061.13,561.68Zm-.3,16.45a7.65,7.65,0,0,1-2.75,2.94,7.47,7.47,0,0,1-7.64,0,7.63,7.63,0,0,1-2.74-2.94,8.93,8.93,0,0,1-1-4.35,9,9,0,0,1,1-4.36,7.54,7.54,0,0,1,2.74-3,7.54,7.54,0,0,1,7.64,0,7.56,7.56,0,0,1,2.75,3,9.14,9.14,0,0,1,1,4.36A9,9,0,0,1,1060.83,578.13Z"/><path class="cls-2" d="M1095.33,566.59a12.53,12.53,0,0,0-4.42-4.91,11.46,11.46,0,0,0-6.24-1.78,9.57,9.57,0,0,0-4.5,1.13,10.33,10.33,0,0,0-3.34,2.62V553.21A3,3,0,0,0,1076,551a3.08,3.08,0,0,0-4.29,0,3,3,0,0,0-.85,2.17v31.36a2.93,2.93,0,0,0,.85,2.19,3.11,3.11,0,0,0,4.29,0,3,3,0,0,0,.85-2.17v-.3a11.94,11.94,0,0,0,3.52,2.37,10.67,10.67,0,0,0,4.52,1,11.09,11.09,0,0,0,6.11-1.77,12.23,12.23,0,0,0,4.37-4.94,15.66,15.66,0,0,0,1.6-7.17A15.39,15.39,0,0,0,1095.33,566.59Zm-6.17,13.13a7,7,0,0,1-10.53,0,9.73,9.73,0,0,1,0-12,7.07,7.07,0,0,1,10.56,0,9.79,9.79,0,0,1,0,12Z"/><path class="cls-2" d="M1116.77,575.28a7.65,7.65,0,0,0-3-2.44,31.55,31.55,0,0,0-4.49-1.55c-1.3-.37-2.31-.68-3-.93a4.67,4.67,0,0,1-1.77-1,2.34,2.34,0,0,1-.7-1.78q0-2.74,3.79-2.74a7.56,7.56,0,0,1,3.22.65,6.31,6.31,0,0,1,2.32,1.74,2.43,2.43,0,0,0,1.8.7,2.51,2.51,0,0,0,1.6-.55,2.32,2.32,0,0,0,1-1.89,2.79,2.79,0,0,0-.65-1.8,9,9,0,0,0-4-2.8,14.5,14.5,0,0,0-5.09-1,11.64,11.64,0,0,0-4.72,1,9,9,0,0,0-3.59,2.74,6.61,6.61,0,0,0-1.37,4.17,6.72,6.72,0,0,0,1.32,4.37,8.34,8.34,0,0,0,3.14,2.42,34.57,34.57,0,0,0,4.72,1.6,18.51,18.51,0,0,1,4.12,1.5,2.39,2.39,0,0,1,1.33,2.19q0,2.8-3.9,3a9.29,9.29,0,0,1-3.92-.75,10.45,10.45,0,0,1-3.12-2.3,2.81,2.81,0,0,0-2-.94,2.85,2.85,0,0,0-2.74,2.64,2.43,2.43,0,0,0,.45,1.5,10.17,10.17,0,0,0,4.64,3.54,16.74,16.74,0,0,0,6.14,1.1,11.89,11.89,0,0,0,4.67-1,9.16,9.16,0,0,0,3.72-2.77,6.67,6.67,0,0,0,1.45-4.27A7,7,0,0,0,1116.77,575.28Z"/><circle class="cls-2" cx="1133.93" cy="568.48" r="3.09"/><path class="cls-2" d="M1149.76,557.66a15.21,15.21,0,0,0-4.46-13.38,9.14,9.14,0,0,0-13.27-5.49,12.77,12.77,0,0,0-8.31,3.11c-4.48,3.57-6.26,8.53-4,11.3a4.34,4.34,0,0,0,2.06,1.41c2.23.75,5.27.11,8.12-1.62a9.16,9.16,0,0,0,3.76,2.41h0a10.07,10.07,0,0,0,1.87.48,10.22,10.22,0,0,0,2.28,0c1.35,3.06,3.53,5.42,5.78,6.17a4.42,4.42,0,0,0,2.87.06C1148.08,561.53,1149.27,560,1149.76,557.66Zm-27.55-4.47a2.81,2.81,0,0,1-1.37-.92c-1.63-2,.12-6.26,3.81-9.2a13.35,13.35,0,0,1,5.22-2.61,9,9,0,0,0-1,11.35C1126.5,553.23,1124,553.78,1122.21,553.19Zm23.73,7.48a3,3,0,0,1-1.92,0c-1.81-.61-3.58-2.53-4.77-5.08a8.76,8.76,0,0,0,3-1.55,9.11,9.11,0,0,0,3.4-6.14,8.37,8.37,0,0,0,.05-1,14,14,0,0,1,2.09,4,12.64,12.64,0,0,1,.55,6.46C1147.93,559.11,1147.09,560.29,1145.94,560.67Z"/><rect class="cls-2" x="1127.79" y="534.77" width="18.11" height="22.23" rx="7.83" transform="matrix(0.95, 0.32, -0.32, 0.95, 231, -331.52)"/></svg>