<svg id="Layer_1" data-name="Layer 1" xmlns="http://www.w3.org/2000/svg" viewBox="0 0 1200 628"><defs><style>.cls-1{fill:#ed3226;}.cls-2{font-size:84px;font-family:Insignia;letter-spacing:-0.03em;}.cls-2,.cls-8{fill:#fff;}.cls-3{letter-spacing:-0.06em;}.cls-4{letter-spacing:-0.04em;}.cls-5{letter-spacing:-0.09em;}.cls-6{letter-spacing:-0.05em;}.cls-7{letter-spacing:-0.02em;}</style></defs><rect class="cls-1" x="-15.8" y="-17.2" width="1235.2" height="662.4"/><text class="cls-2" transform="translate(299.33 293.07)">No es <tspan class="cls-3" x="227.13" y="0">u</tspan><tspan x="269.89" y="0">n tr</tspan><tspan class="cls-4" x="383.54" y="0">a</tspan><tspan x="431.16" y="0">bajo,</tspan><tspan x="93.45" y="84">es </tspan><tspan class="cls-5" x="198.45" y="84">u</tspan><tspan class="cls-6" x="239.52" y="84">n</tspan><tspan class="cls-7" x="283.96" y="84">a v</tspan><tspan class="cls-6" x="388.87" y="84">id</tspan><tspan x="452.88" y="84">a.</tspan></text><path class="cls-8" d="M919.84,568.62a28.44,28.44,0,0,0-6.86-1.93,16.75,16.75,0,0,1-5.57-1.79,3.73,3.73,0,0,1,0-6.32,8.61,8.61,0,0,1,4.87-1.17,12.06,12.06,0,0,1,4.17.87A13.69,13.69,0,0,1,920,560.2a2.19,2.19,0,0,0,1.35.45,2.69,2.69,0,0,0,2-.87,2.8,2.8,0,0,0,.85-2,3.35,3.35,0,0,0-1.44-2.65,14.5,14.5,0,0,0-4.62-2.49,18,18,0,0,0-5.92-1,16,16,0,0,0-6.34,1.22,10.35,10.35,0,0,0-4.49,3.55,9.17,9.17,0,0,0-1.65,5.46q0,8.6,10.93,10.19A16.82,16.82,0,0,1,917,574a4,4,0,0,1,2,3.52,3.6,3.6,0,0,1-2,3.09,8.94,8.94,0,0,1-4.82,1.25,12.17,12.17,0,0,1-4.49-.75,14.82,14.82,0,0,1-3.9-2.39,2.63,2.63,0,0,0-1.69-.6,2.75,2.75,0,0,0-2.05.87,2.8,2.8,0,0,0-.85,2,3.51,3.51,0,0,0,1.35,2.65,14.83,14.83,0,0,0,5.24,3,20.85,20.85,0,0,0,6.39.9,15.78,15.78,0,0,0,6.34-1.27,11.42,11.42,0,0,0,4.72-3.64,9,9,0,0,0,1.77-5.52,9.79,9.79,0,0,0-1.3-5.37A8.66,8.66,0,0,0,919.84,568.62Z"/><path class="cls-8" d="M943.28,559.9a8.58,8.58,0,0,0-4.61,1.28,12,12,0,0,0-3.42,3.07v-11a3,3,0,0,0-.85-2.17,3.09,3.09,0,0,0-4.3,0,3,3,0,0,0-.85,2.17v30.86a3,3,0,0,0,.85,2.17,3.09,3.09,0,0,0,4.3,0,3,3,0,0,0,.85-2.17V571.29a5.9,5.9,0,0,1,1.57-4.22,5.68,5.68,0,0,1,4.37-1.67c1.79,0,3,.52,3.76,1.57a7.54,7.54,0,0,1,1.08,4.32v12.78a3,3,0,0,0,.85,2.17,3.08,3.08,0,0,0,4.29,0,3,3,0,0,0,.85-2.17V571.29q0-5.34-1.9-8.36T943.28,559.9Z"/><path class="cls-8" d="M960.16,551.22a4.09,4.09,0,0,0-2.4.55,2.24,2.24,0,0,0-.75,1.94v.95a2.35,2.35,0,0,0,.7,2,3.94,3.94,0,0,0,2.4.55,4.35,4.35,0,0,0,2.47-.53,2.28,2.28,0,0,0,.72-2v-.95a2.31,2.31,0,0,0-.7-1.94A4,4,0,0,0,960.16,551.22Z"/><path class="cls-8" d="M960.16,560.4a2.89,2.89,0,0,0-2.15.88,3,3,0,0,0-.85,2.17v20.62a3,3,0,0,0,.85,2.17,3.08,3.08,0,0,0,4.29,0,3,3,0,0,0,.85-2.17V563.45a3,3,0,0,0-.85-2.17A2.86,2.86,0,0,0,960.16,560.4Z"/><path class="cls-8" d="M997.85,566.4a2.76,2.76,0,0,0,2-.78,2.55,2.55,0,0,0,.79-1.92,2.72,2.72,0,0,0-2.79-2.8h-3.54v-3.19a3,3,0,0,0-.85-2.17,2.8,2.8,0,0,0-2.1-.88,3,3,0,0,0-3.05,3.05v3.19H976.88v-3.19a3,3,0,0,0-.85-2.17,2.77,2.77,0,0,0-2.1-.88,3,3,0,0,0-3,3.05v3.19h-2.3a2.72,2.72,0,0,0-2,.78,2.52,2.52,0,0,0-.8,1.92,2.73,2.73,0,0,0,2.79,2.8h2.3v13.77q0,4.3,2.12,5.62a9.73,9.73,0,0,0,5.22,1.32,6.08,6.08,0,0,0,3.32-.92,2.67,2.67,0,0,0,1.47-2.27,2.63,2.63,0,0,0-.57-1.77,1.68,1.68,0,0,0-1.27-.68,3.1,3.1,0,0,0-1.15.25,4.08,4.08,0,0,1-1.1.2,2.25,2.25,0,0,1-1.5-.47,1.92,1.92,0,0,1-.55-1.53V566.4h11.43v13.77q0,4.3,2.13,5.62a9.67,9.67,0,0,0,5.21,1.32,6.06,6.06,0,0,0,3.32-.92,2.68,2.68,0,0,0,1.48-2.27,2.64,2.64,0,0,0-.58-1.77,1.67,1.67,0,0,0-1.27-.68,3.1,3.1,0,0,0-1.15.25,4,4,0,0,1-1.1.2,2.26,2.26,0,0,1-1.5-.47,2,2,0,0,1-.54-1.53V566.4Z"/><path class="cls-8" d="M1023,560.4a2.9,2.9,0,0,0-2.15.88,3,3,0,0,0-.84,2.17v12.78a6.17,6.17,0,0,1-1.43,4.37,5.24,5.24,0,0,1-4,1.52,5.44,5.44,0,0,1-4-1.37c-.92-.92-1.38-2.42-1.38-4.52V563.45a3,3,0,0,0-.85-2.17,3.05,3.05,0,0,0-4.29,0,3,3,0,0,0-.85,2.17V578a10.84,10.84,0,0,0,1.1,5,8.23,8.23,0,0,0,3.1,3.4,8.56,8.56,0,0,0,4.59,1.22c3.66,0,6.35-1.08,8.09-3.24v.5q0,3.69-1.68,5.21t-5.21,1.53a9,9,0,0,1-2-.23,13.15,13.15,0,0,1-1.84-.57l-1.23-.5a2.94,2.94,0,0,0-.94-.15,2.5,2.5,0,0,0-1.58.57,3.13,3.13,0,0,0-1,1.68,2.53,2.53,0,0,0-.15.79c0,1.23.81,2.2,2.45,2.9a12.68,12.68,0,0,0,2.87.72,21.73,21.73,0,0,0,3.47.28q5.83,0,9.33-3t3.5-9.46V563.45a3,3,0,0,0-.85-2.17A2.89,2.89,0,0,0,1023,560.4Z"/><path class="cls-8" d="M1035.19,560.4a2.86,2.86,0,0,0-2.14.88,3,3,0,0,0-.85,2.17v22.42a10.09,10.09,0,0,1-.43,3.27,2.85,2.85,0,0,1-2,1.67c-1.7.5-2.54,1.41-2.54,2.74v.55a2.72,2.72,0,0,0,2.79,2.8,7.79,7.79,0,0,0,4.17-1.15,8,8,0,0,0,2.94-3.24,10.56,10.56,0,0,0,1.08-4.9V563.45a3,3,0,0,0-.85-2.17A2.89,2.89,0,0,0,1035.19,560.4Z"/><path class="cls-8" d="M1035.14,551.22a4.05,4.05,0,0,0-2.39.55,2.24,2.24,0,0,0-.75,1.94v.95a2.35,2.35,0,0,0,.7,2,3.91,3.91,0,0,0,2.39.55,4.33,4.33,0,0,0,2.47-.53,2.25,2.25,0,0,0,.73-2v-.95a2.34,2.34,0,0,0-.7-1.94A4.06,4.06,0,0,0,1035.14,551.22Z"/><path class="cls-8" d="M1061.13,561.68a14.19,14.19,0,0,0-13.76,0,13,13,0,0,0-4.89,4.94,15.16,15.16,0,0,0,0,14.33,12.84,12.84,0,0,0,4.89,4.92,14.47,14.47,0,0,0,13.76,0A12.69,12.69,0,0,0,1066,581a15.16,15.16,0,0,0,0-14.33A12.81,12.81,0,0,0,1061.13,561.68Zm-.3,16.45a7.65,7.65,0,0,1-2.75,2.94,7.47,7.47,0,0,1-7.64,0,7.63,7.63,0,0,1-2.74-2.94,8.93,8.93,0,0,1-1-4.35,9,9,0,0,1,1-4.36,7.54,7.54,0,0,1,2.74-3,7.54,7.54,0,0,1,7.64,0,7.56,7.56,0,0,1,2.75,3,9.14,9.14,0,0,1,1,4.36A9,9,0,0,1,1060.83,578.13Z"/><path class="cls-8" d="M1095.33,566.59a12.53,12.53,0,0,0-4.42-4.91,11.46,11.46,0,0,0-6.24-1.78,9.57,9.57,0,0,0-4.5,1.13,10.33,10.33,0,0,0-3.34,2.62V553.21A3,3,0,0,0,1076,551a3.08,3.08,0,0,0-4.29,0,3,3,0,0,0-.85,2.17v31.36a2.93,2.93,0,0,0,.85,2.19,3.11,3.11,0,0,0,4.29,0,3,3,0,0,0,.85-2.17v-.3a11.94,11.94,0,0,0,3.52,2.37,10.67,10.67,0,0,0,4.52,1,11.09,11.09,0,0,0,6.11-1.77,12.23,12.23,0,0,0,4.37-4.94,15.66,15.66,0,0,0,1.6-7.17A15.39,15.39,0,0,0,1095.33,566.59Zm-6.17,13.13a7,7,0,0,1-10.53,0,9.73,9.73,0,0,1,0-12,7.07,7.07,0,0,1,10.56,0,9.79,9.79,0,0,1,0,12Z"/><path class="cls-8" d="M1116.77,575.28a7.65,7.65,0,0,0-3-2.44,31.55,31.55,0,0,0-4.49-1.55c-1.3-.37-2.31-.68-3-.93a4.67,4.67,0,0,1-1.77-1,2.34,2.34,0,0,1-.7-1.78q0-2.74,3.79-2.74a7.56,7.56,0,0,1,3.22.65,6.31,6.31,0,0,1,2.32,1.74,2.43,2.43,0,0,0,1.8.7,2.51,2.51,0,0,0,1.6-.55,2.32,2.32,0,0,0,1-1.89,2.79,2.79,0,0,0-.65-1.8,9,9,0,0,0-4-2.8,14.5,14.5,0,0,0-5.09-1,11.64,11.64,0,0,0-4.72,1,9,9,0,0,0-3.59,2.74,6.61,6.61,0,0,0-1.37,4.17,6.72,6.72,0,0,0,1.32,4.37,8.34,8.34,0,0,0,3.14,2.42,34.57,34.57,0,0,0,4.72,1.6,18.51,18.51,0,0,1,4.12,1.5,2.39,2.39,0,0,1,1.33,2.19q0,2.8-3.9,3a9.29,9.29,0,0,1-3.92-.75,10.45,10.45,0,0,1-3.12-2.3,2.81,2.81,0,0,0-2-.94,2.85,2.85,0,0,0-2.74,2.64,2.43,2.43,0,0,0,.45,1.5,10.17,10.17,0,0,0,4.64,3.54,16.74,16.74,0,0,0,6.14,1.1,11.89,11.89,0,0,0,4.67-1,9.16,9.16,0,0,0,3.72-2.77,6.67,6.67,0,0,0,1.45-4.27A7,7,0,0,0,1116.77,575.28Z"/><circle class="cls-8" cx="1133.93" cy="568.48" r="3.09"/><path class="cls-8" d="M1149.76,557.66a15.21,15.21,0,0,0-4.46-13.38,9.14,9.14,0,0,0-13.27-5.49,12.77,12.77,0,0,0-8.31,3.11c-4.48,3.57-6.26,8.53-4,11.3a4.34,4.34,0,0,0,2.06,1.41c2.23.75,5.27.11,8.12-1.62a9.16,9.16,0,0,0,3.76,2.41h0a10.07,10.07,0,0,0,1.87.48,10.22,10.22,0,0,0,2.28,0c1.35,3.06,3.53,5.42,5.78,6.17a4.42,4.42,0,0,0,2.87.06C1148.08,561.53,1149.27,560,1149.76,557.66Zm-27.55-4.47a2.81,2.81,0,0,1-1.37-.92c-1.63-2,.12-6.26,3.81-9.2a13.35,13.35,0,0,1,5.22-2.61,9,9,0,0,0-1,11.35C1126.5,553.23,1124,553.78,1122.21,553.19Zm23.73,7.48a3,3,0,0,1-1.92,0c-1.81-.61-3.58-2.53-4.77-5.08a8.76,8.76,0,0,0,3-1.55,9.11,9.11,0,0,0,3.4-6.14,8.37,8.37,0,0,0,.05-1,14,14,0,0,1,2.09,4,12.64,12.64,0,0,1,.55,6.46C1147.93,559.11,1147.09,560.29,1145.94,560.67Z"/><rect class="cls-8" x="1127.79" y="534.77" width="18.11" height="22.23" rx="7.83" transform="translate(231 -331.52) rotate(18.44)"/></svg>